<?xml version="1.0" standalone="no"?>
<!DOCTYPE svg PUBLIC "-//W3C//DTD SVG 1.1//EN" "http://www.w3.org/Graphics/SVG/1.1/DTD/svg11.dtd" >
<svg>
<metadata>
Created by FontForge 20090622 at Tue Apr 30 05:59:39 2019
 By deploy user
Copyright (c) 2018 by Pi Creative Studio. All rights reserved.
</metadata>
<defs>
<font id="Lackonic-Regular" horiz-adv-x="530" >
  <font-face 
    font-family="Lackonic"
    font-weight="400"
    font-stretch="normal"
    units-per-em="1000"
    panose-1="0 0 5 0 0 0 0 0 0 0"
    ascent="750"
    descent="-250"
    x-height="500"
    cap-height="690"
    bbox="-50 -229 1018 886"
    underline-thickness="50"
    underline-position="-50"
    unicode-range="U+0020-U+F6D0"
  />
<missing-glyph horiz-adv-x="810" 
d="M405 -10q-14 1 -24.5 10t-10.5 22v235l-166 -166q-9 -9 -22 -9q-14 0 -24 10q-11 13 -11 28q0 12 8 20l215 215v303q0 16 10 24t25 8q14 0 24 -8t10 -24v-302l216 -216q8 -8 8 -20q0 -15 -11 -28q-10 -10 -24 -10q-13 0 -22 9l-167 167v-236q0 -13 -10 -22.5t-24 -9.5z
M130 149q-19 0 -29 18q-46 84 -46 173q0 118 70.5 210.5t179.5 124.5q6 2 10 2q13 0 23 -9.5t10 -23.5q0 -25 -24 -32q-89 -26 -146 -101.5t-57 -170.5q0 -75 37 -141q5 -8 5 -17q0 -14 -9.5 -23.5t-23.5 -9.5zM680 150q-14 0 -23.5 10t-9.5 23q0 7 6 19q36 63 36 138
q0 95 -57 170t-145 102q-26 9 -26 32q0 14 9.5 23.5t23.5 9.5q8 0 16 -2q104 -31 174.5 -125t70.5 -210q0 -92 -45 -171q-10 -19 -30 -19zM315 3q-6 0 -10 1q-42 13 -76 33q-16 10 -16 28q0 13 9.5 23t23.5 10q9 0 17 -5q26 -15 61 -25q24 -7 24 -32q0 -14 -10 -23.5
t-23 -9.5zM494 3q-14 0 -23.5 9.5t-9.5 23.5q0 27 28 33q25 6 58 25q10 4 16 4q13 0 23 -10t10 -23q0 -19 -22 -31q-41 -22 -69 -30q-3 -1 -11 -1z" />
    <glyph glyph-name="f_f.liga" unicode="ff" horiz-adv-x="624" 
d="M330 659q0 -17 -11 -28.5t-27 -11.5q-54 0 -80.5 -20t-26.5 -70v-496q0 -18 -13 -30.5t-32 -12.5t-32 12.5t-13 30.5v396h-51q-14 0 -24 10.5t-10 24.5q0 15 10 25.5t24 10.5h51v29q0 87 52 129t145 42q16 0 27 -12t11 -29zM609 659q0 -17 -11 -28.5t-27 -11.5
q-54 0 -80.5 -20t-26.5 -70v-496q0 -18 -13 -30.5t-32 -12.5t-32 12.5t-13 30.5v396h-126q-14 0 -24 10.5t-10 24.5q0 15 10 25.5t24 10.5h126v29q0 87 52 129t145 42q16 0 27 -12t11 -29zM570 500q14 0 24 -10.5t10 -25.5q0 -14 -10 -24.5t-24 -10.5h-43q-14 0 -24 10.5
t-10 24.5q0 15 10 25.5t24 10.5h43z" />
    <glyph glyph-name="f_t.liga" unicode="ft" horiz-adv-x="650" 
d="M330 659q0 -17 -11 -28.5t-27 -11.5q-54 0 -80.5 -20t-26.5 -70v-496q0 -18 -13 -30.5t-32 -12.5t-32 12.5t-13 30.5v396h-51q-14 0 -24 10.5t-10 24.5q0 15 10 25.5t24 10.5h51v29q0 87 52 129t145 42q16 0 27 -12t11 -29zM555 68q14 -11 14 -32q0 -18 -11 -30
q-13 -16 -35 -16q-16 0 -27 10l-95 83q-27 23 -27 60v286h-126q-14 0 -24 10.5t-10 24.5q0 15 10 25.5t24 10.5h126v107q0 18 13 30.5t32 12.5t32 -12.5t13 -30.5v-459zM580 500q14 0 24 -10.5t10 -25.5q0 -14 -10 -24.5t-24 -10.5h-53q-14 0 -24 10.5t-10 24.5
q0 15 10 25.5t24 10.5h53z" />
    <glyph glyph-name=".notdef" horiz-adv-x="810" 
d="M405 -10q-14 1 -24.5 10t-10.5 22v235l-166 -166q-9 -9 -22 -9q-14 0 -24 10q-11 13 -11 28q0 12 8 20l215 215v303q0 16 10 24t25 8q14 0 24 -8t10 -24v-302l216 -216q8 -8 8 -20q0 -15 -11 -28q-10 -10 -24 -10q-13 0 -22 9l-167 167v-236q0 -13 -10 -22.5t-24 -9.5z
M130 149q-19 0 -29 18q-46 84 -46 173q0 118 70.5 210.5t179.5 124.5q6 2 10 2q13 0 23 -9.5t10 -23.5q0 -25 -24 -32q-89 -26 -146 -101.5t-57 -170.5q0 -75 37 -141q5 -8 5 -17q0 -14 -9.5 -23.5t-23.5 -9.5zM680 150q-14 0 -23.5 10t-9.5 23q0 7 6 19q36 63 36 138
q0 95 -57 170t-145 102q-26 9 -26 32q0 14 9.5 23.5t23.5 9.5q8 0 16 -2q104 -31 174.5 -125t70.5 -210q0 -92 -45 -171q-10 -19 -30 -19zM315 3q-6 0 -10 1q-42 13 -76 33q-16 10 -16 28q0 13 9.5 23t23.5 10q9 0 17 -5q26 -15 61 -25q24 -7 24 -32q0 -14 -10 -23.5
t-23 -9.5zM494 3q-14 0 -23.5 9.5t-9.5 23.5q0 27 28 33q25 6 58 25q10 4 16 4q13 0 23 -10t10 -23q0 -19 -22 -31q-41 -22 -69 -30q-3 -1 -11 -1z" />
    <glyph glyph-name=".null" horiz-adv-x="0" 
 />
    <glyph glyph-name="nonmarkingreturn" horiz-adv-x="333" 
 />
    <glyph glyph-name="space" unicode=" " horiz-adv-x="215" 
 />
    <glyph glyph-name="exclam" unicode="!" horiz-adv-x="200" 
d="M100 225q-16 0 -28 11.5t-12 27.5l-5 374q0 17 13 29.5t32 12.5t32 -12.5t13 -29.5l-5 -374q0 -16 -12 -27.5t-28 -11.5zM100 -10q-19 0 -32 12.5t-13 30.5v42q0 18 13 30.5t32 12.5t32 -12.5t13 -30.5v-42q0 -18 -13 -30.5t-32 -12.5z" />
    <glyph glyph-name="quotedbl" unicode="&#x22;" horiz-adv-x="365" 
d="M100 505q-17 0 -29.5 11.5t-12.5 28.5v105q0 17 12.5 28.5t29.5 11.5t29.5 -11.5t12.5 -28.5v-105q0 -17 -12.5 -28.5t-29.5 -11.5zM268 505q-17 0 -29.5 11.5t-12.5 28.5v105q0 17 12.5 28.5t29.5 11.5t29.5 -11.5t12.5 -28.5v-105q0 -17 -12.5 -28.5t-29.5 -11.5z" />
    <glyph glyph-name="numbersign" unicode="#" horiz-adv-x="645" 
d="M528 374q17 0 28 -10.5t11 -26.5t-11 -27t-28 -11h-79l-3 -34q-1 -18 -12.5 -27.5t-26.5 -9.5q-18 0 -30.5 12.5t-10.5 34.5l2 24h-269q-17 0 -28 11t-11 27t11 26.5t28 10.5h73l9 97q2 17 13 27t27 10q19 0 30.5 -13.5t9.5 -33.5l-8 -87h122l9 99q2 17 13 27t27 10
q19 0 30.5 -13.5t9.5 -33.5l-8 -89h72zM508 199q17 0 28 -10.5t11 -26.5t-11 -27t-28 -11h-76l-9 -99q-1 -18 -12.5 -27.5t-26.5 -9.5q-17 0 -29 12.5t-11 34.5l7 89h-121l-9 -97q-1 -18 -12.5 -27.5t-26.5 -9.5q-18 0 -30.5 12.5t-10.5 34.5l8 87h-70q-17 0 -28 11t-11 27
t11 26.5t28 10.5h77l3 36q2 17 13 27t27 10q19 0 30.5 -13.5t9.5 -33.5l-2 -26h271z" />
    <glyph glyph-name="dollar" unicode="$" horiz-adv-x="554" 
d="M124 369q-67 48 -67 128q0 17 4 36.5t16.5 43.5t32 43.5t54 34t78.5 17.5l1 86q0 18 13.5 30.5t31.5 12.5q19 0 32 -12.5t13 -30.5v-91l11 -2q71 -13 109 -24q15 -4 24 -16t9 -27q0 -18 -12.5 -31t-30.5 -13q-2 0 -4.5 0.5l-10.5 2t-18.5 4t-33.5 7l-51 10.5q-38 8 -63 8
q-35 0 -59.5 -10.5t-35 -26.5t-14.5 -28.5t-4 -23.5q0 -28 18 -44t53 -28q29 -10 29 -43q0 -21 -13 -34t-31 -13q-30 0 -81 34zM499 207q0 -24 -7 -50.5t-24 -57t-52 -54.5t-83 -33v-2v-87q-1 -18 -14 -30.5t-32 -12.5q-18 0 -31.5 12.5t-13.5 30.5l1 86q-29 2 -52 7
q-62 12 -105 26q-31 8 -31 41q0 18 12.5 31t28.5 13q1 0 111 -25q42 -8 69 -8q40 0 68.5 13t41 33t17.5 36.5t5 30.5q0 37 -28 57.5t-83 37.5q-30 10 -30 42q0 19 13.5 33t32.5 14q12 0 48.5 -14t54.5 -26q83 -53 83 -144z" />
    <glyph glyph-name="percent" unicode="%" horiz-adv-x="753" 
d="M90 539q-14 0 -24.5 9.5t-10.5 22.5q0 54 39.5 88.5t94.5 34.5q53 0 87.5 -26t41.5 -70q2 -15 -8.5 -26t-26.5 -11q-13 0 -22.5 7t-11.5 18q-5 26 -18.5 36.5t-41.5 10.5q-26 0 -45 -18t-19 -44q0 -14 -10 -23t-25 -9zM133 2q-17 10 -17 31q0 11 6 20l438 626q9 15 28 15
q13 0 24 -7q16 -10 16 -30q0 -13 -7 -21l-436 -626q-11 -16 -30 -16q-11 0 -22 8zM189 392q-53 0 -87.5 26t-41.5 70q-2 15 8.5 26t26.5 11q13 0 22.5 -7t11.5 -18q5 -26 18.5 -36.5t41.5 -10.5q26 0 45 18t19 44q0 14 10 23t25 9q14 0 24.5 -9.5t10.5 -22.5
q0 -54 -39.5 -88.5t-94.5 -34.5zM465 141q-14 0 -24.5 9.5t-10.5 22.5q0 56 35 89.5t99 33.5q53 0 87.5 -26t41.5 -70q2 -15 -8.5 -26t-26.5 -11q-13 0 -22.5 7t-11.5 18q-5 26 -18.5 36.5t-41.5 10.5q-26 0 -45 -18t-19 -44q0 -14 -10 -23t-25 -9zM564 -6q-53 0 -87.5 26
t-41.5 70q-2 15 8.5 26t26.5 11q13 0 22.5 -7t11.5 -18q5 -26 18.5 -36.5t41.5 -10.5q26 0 45 18t19 44q0 14 10 23t25 9q14 0 24.5 -9.5t10.5 -22.5q0 -54 -39.5 -88.5t-94.5 -34.5z" />
    <glyph glyph-name="ampersand" unicode="&#x26;" horiz-adv-x="691" 
d="M131 385q-29 0 -40 26q-16 41 -16 82q0 38 15 71q20 48 67 82t126 34h140q16 0 27 -11.5t11 -28.5t-11 -29t-27 -12h-135q-121 0 -121 -109q0 -26 8 -46q3 -8 3 -15q0 -18 -13.5 -31t-33.5 -13zM596 68q14 -11 14 -32q0 -18 -11 -30q-13 -16 -35 -16q-16 0 -27 10l-95 83
q-27 22 -27 60v334q0 18 13 30.5t32 12.5t32 -12.5t13 -30.5v-329zM385 81q16 0 27 -11.5t11 -28.5t-11 -29t-27 -12h-110q-89 0 -149.5 54t-60.5 142q0 86 60.5 141t149.5 55h77q14 0 24 -10.5t10 -25.5q0 -14 -10 -24.5t-24 -10.5h-77q-53 0 -84.5 -34t-31.5 -91
q0 -51 31.5 -83t84.5 -32h110zM621 392q14 0 24 -10.5t10 -25.5q0 -14 -10 -24.5t-24 -10.5h-53q-14 0 -24 10.5t-10 24.5q0 15 10 25.5t24 10.5h53z" />
    <glyph glyph-name="quotesingle" unicode="'" horiz-adv-x="194" 
d="M97 505q-17 0 -29.5 11.5t-12.5 28.5v105q0 17 12.5 28.5t29.5 11.5t29.5 -11.5t12.5 -28.5v-105q0 -17 -12.5 -28.5t-29.5 -11.5z" />
    <glyph glyph-name="parenleft" unicode="(" horiz-adv-x="318" 
d="M225 -152q-23 0 -35 19q-135 192 -135 442t135 442q12 19 35 19q13 0 20 -5q20 -10 20 -35q0 -14 -5 -21q-115 -173 -115 -400q0 -228 115 -400q5 -8 5 -21q0 -22 -20 -35q-7 -5 -20 -5z" />
    <glyph glyph-name="parenright" unicode=")" horiz-adv-x="317" 
d="M93 -152q-13 0 -20 5q-20 13 -20 35q0 13 5 21q115 172 115 400q0 227 -115 400q-5 7 -5 21q0 24 20 35q10 5 20 5q23 0 35 -19q135 -192 135 -442t-135 -442q-12 -19 -35 -19z" />
    <glyph glyph-name="asterisk" unicode="*" horiz-adv-x="416" 
d="M207 577q-13 1 -22.5 9.5t-9.5 21.5v75q0 13 9.5 21.5t22.5 8.5t22.5 -8.5t9.5 -21.5v-75q0 -13 -9.5 -22.5t-22.5 -8.5zM122 518l-71 23q-12 4 -17.5 16t-1.5 24t15.5 18.5t23.5 2.5l71 -23q12 -4 17.5 -16t2.5 -24q-3 -13 -15 -19t-25 -2zM223 496q-13 -4 -25 2t-15 19
t2.5 24.5t17.5 15.5l133 43q13 4 24 -2.5t15 -18.5t-1.5 -24t-17.5 -16zM98 371q-11 8 -14 19.5t5 23.5l44 61q7 10 20.5 11.5t23.5 -5.5q11 -8 13.5 -20.5t-5.5 -23.5l-44 -61q-7 -10 -20 -11.5t-23 6.5zM317 371q-10 -8 -23 -6.5t-20 11.5l-44 61q-8 11 -5.5 23.5
t13.5 20.5q10 7 23.5 5.5t20.5 -11.5l44 -61q8 -12 5 -23.5t-14 -19.5z" />
    <glyph glyph-name="plus" unicode="+" horiz-adv-x="497" 
d="M414 304q16 0 27 -11.5t11 -28.5q0 -16 -11 -27.5t-27 -11.5h-126v-126q0 -16 -11.5 -27t-28.5 -11q-16 0 -27.5 11t-11.5 27v126h-126q-16 0 -27 11.5t-11 27.5q0 17 11 28.5t27 11.5h126v126q0 16 11.5 27t27.5 11q17 0 28.5 -11t11.5 -27v-126h126z" />
    <glyph glyph-name="comma" unicode="," horiz-adv-x="200" 
d="M46 -100q-18 0 -31 13t-13 31q0 15 9 25l50 57v51q0 17 12.5 28.5t29.5 11.5t29.5 -11.5t12.5 -28.5v-65q0 -17 -10 -30l-60 -69q-12 -13 -29 -13z" />
    <glyph glyph-name="hyphen" unicode="-" horiz-adv-x="469" 
d="M86 229q-15 0 -25.5 11t-10.5 26q0 16 10.5 27t25.5 11h297q15 0 25.5 -11t10.5 -27q0 -15 -10.5 -26t-25.5 -11h-297z" />
    <glyph glyph-name="period" unicode="." horiz-adv-x="200" 
d="M100 -10q-19 0 -32 12.5t-13 29.5v43q0 18 13 30.5t32 12.5t32 -12.5t13 -30.5v-43q0 -17 -13 -29.5t-32 -12.5z" />
    <glyph glyph-name="slash" unicode="/" horiz-adv-x="414" 
d="M16 -70q-26 12 -26 41q0 8 3 16l346 744q11 23 40 23q9 0 18 -3q27 -10 27 -40q0 -10 -4 -18l-346 -743q-11 -24 -39 -24q-11 0 -19 4z" />
    <glyph glyph-name="zero" unicode="0" horiz-adv-x="550" 
d="M103 263q-20 0 -34 13.5t-14 31.5v181q0 83 65.5 142t154.5 59q86 0 152.5 -59t67.5 -139q0 -19 -14 -32t-34 -13t-33.5 13t-13.5 32q-1 47 -39 82t-86 35q-50 0 -87.5 -36t-37.5 -84v-181q0 -18 -14 -31.5t-33 -13.5zM275 -10q-86 0 -152.5 59.5t-67.5 139.5
q0 18 14 31.5t34 13.5q19 0 33 -13.5t14 -31.5q1 -47 39 -82t86 -35q50 0 87.5 35.5t37.5 83.5v181q0 19 13.5 32t33.5 13t34 -13t14 -32v-181q0 -83 -65.5 -142t-154.5 -59z" />
    <glyph glyph-name="one" unicode="1" horiz-adv-x="355" 
d="M242 690q20 0 34 -13t14 -32v-610q0 -19 -14 -32t-34 -13t-33.5 13t-13.5 32v610q0 19 13.5 32t33.5 13zM107 619q14 8 30 3.5t25 -19.5q8 -15 4.5 -31.5t-17.5 -24.5l-63 -36q-14 -8 -30 -3t-25 20q-8 15 -4.5 31t17.5 24l61 35q1 0 1 0.5t1 0.5z" />
    <glyph glyph-name="two" unicode="2" horiz-adv-x="532" 
d="M102 -3q-20 0 -33.5 13t-13.5 32v52q0 39 27 66l237 237q45 45 45 99q0 47 -33 80t-84 33q-52 0 -132 -31q-7 -3 -15 -3q-17 0 -29.5 12.5t-12.5 31.5q0 29 27 39q82 31 163 31q78 0 126 -37.5t69 -88.5q15 -38 15 -74q0 -85 -67 -152l-241 -242v-53q0 -19 -14 -32
t-34 -13zM217 0q-17 0 -29 12.5t-12 30.5q0 17 12.5 30t28.5 13h228q17 0 29.5 -13t12.5 -30q0 -18 -12.5 -30.5t-29.5 -12.5h-228z" />
    <glyph glyph-name="three" unicode="3" horiz-adv-x="520" 
d="M399 385q-21 0 -34 13.5t-13 30.5q0 7 3 15q8 20 8 46q0 51 -38 89q-30 30 -83 30q-47 0 -117 -27q-5 -2 -14 -2q-17 0 -29.5 12.5t-12.5 30.5q0 29 27 39q80 27 151 27q78 0 125 -37.5t68 -87.5q15 -33 15 -71q0 -41 -16 -82q-11 -26 -40 -26zM255 -10q-98 0 -178 37
q-12 4 -19.5 15t-7.5 24q0 19 13 31.5t29 12.5q8 0 14 -3q93 -36 149 -36q52 0 84 34t32 86q0 53 -31.5 86.5t-84.5 33.5h-76q-16 0 -27 11.5t-11 28.5t11 29t27 12h76q88 0 149 -57t61 -144q0 -88 -60.5 -144.5t-149.5 -56.5z" />
    <glyph glyph-name="four" unicode="4" horiz-adv-x="587" 
d="M81 175q-15 0 -25.5 10.5t-10.5 26.5q0 12 7 23l315 434q15 21 38 21q19 0 32 -12.5t13 -30.5v-327q0 -18 -13 -30.5t-32 -12.5t-32 12.5t-13 30.5v212l-204 -282h142q15 0 25.5 -11t10.5 -27t-10.5 -26.5t-25.5 -10.5h-217zM405 -10q-19 0 -32 12.5t-13 29.5v175
q0 18 13 30.5t32 12.5h96q15 0 25.5 -11t10.5 -27t-10.5 -26.5t-25.5 -10.5h-51v-143q0 -17 -13 -29.5t-32 -12.5z" />
    <glyph glyph-name="five" unicode="5" horiz-adv-x="525" 
d="M118 303q-21 0 -34.5 16t-10.5 35l52 291q3 16 15.5 25.5t29.5 9.5h232q17 0 29 -12.5t12 -30.5t-12 -30.5t-29 -12.5h-194l-46 -256q-3 -16 -15 -25.5t-29 -9.5zM260 -10q-98 0 -178 37q-27 10 -27 39q0 19 13 32t29 13q8 0 14 -3q99 -37 148 -37q52 0 84.5 34t32.5 86
q0 54 -32 87t-85 33h-30q-16 0 -27.5 12t-11.5 29t11.5 28.5t27.5 11.5h31q88 0 149 -57t61 -144q0 -88 -60.5 -144.5t-149.5 -56.5z" />
    <glyph glyph-name="six" unicode="6" horiz-adv-x="525" 
d="M264 -10q-87 0 -148 58t-61 146q0 48 21 100l160 370q11 26 41 26q11 0 20 -4q28 -13 28 -42q0 -10 -4 -18l-159 -368q-14 -32 -14 -65q0 -53 36 -87.5t80 -34.5q54 0 84.5 34.5t30.5 90.5q0 42 -26 71.5t-66 39.5q-14 4 -23.5 16t-9.5 27q0 5 2 13q4 16 16.5 26t28.5 10
t59 -20q110 -55 110 -183q0 -87 -57.5 -146.5t-148.5 -59.5z" />
    <glyph glyph-name="seven" unicode="7" horiz-adv-x="484" 
d="M316 371q-11 0 -19 4q-29 13 -29 43q0 8 3 16l68 160h-258q-17 0 -29 12.5t-12 30.5t12 30.5t29 12.5h273q38 0 61.5 -20t23.5 -53q0 -22 -10 -43l-72 -166q-11 -27 -41 -27zM156 -10q-16 0 -27 7q-21 15 -21 37q0 12 6 27l112 266q11 27 42 27q20 0 33.5 -14t13.5 -33
q0 -9 -3 -16l-118 -281q-9 -20 -38 -20z" />
    <glyph glyph-name="eight" unicode="8" horiz-adv-x="548" 
d="M274 -10q-95 0 -157 47t-62 138q0 67 33.5 106.5t101.5 73.5l84 44q36 19 54.5 31t37.5 34.5t19 45.5q-1 51 -34.5 75t-76.5 24t-76.5 -24t-34.5 -75q0 -36 29 -63q12 -12 12 -28t-11 -29q-12 -14 -30 -14q-14 0 -27 11l-4 3l-8 8t-10 11t-11.5 14.5t-11 18.5t-9.5 22
t-6.5 26t-2.5 30q0 78 58 124t143 46q86 0 143.5 -45.5t57.5 -124.5q0 -61 -29.5 -98.5t-87.5 -69.5l-84 -46q-4 -2 -13 -7q-27 -14 -41 -23t-33.5 -25t-28.5 -34.5t-9 -41.5q0 -46 33.5 -75t91.5 -29q55 0 90 29t35 75t-40 79q-14 12 -14 31q0 16 9 28q14 16 33 16
q14 0 26 -9q80 -62 80 -145q0 -91 -62.5 -138t-156.5 -47z" />
    <glyph glyph-name="nine" unicode="9" horiz-adv-x="524" 
d="M248 -10q-11 0 -20 4q-28 13 -28 42q0 10 4 18l158 379q14 32 14 63q0 51 -36 82t-79 31q-51 0 -82.5 -35t-31.5 -90q0 -38 26.5 -69.5t64.5 -41.5q15 -4 24 -16.5t9 -27.5q0 -8 -1 -12q-10 -36 -46 -36q-31 0 -73 29q-44 29 -70 75t-26 99q0 86 60.5 146t145.5 60
t146.5 -55.5t61.5 -141.5q0 -45 -21 -96l-158 -379q-12 -28 -42 -28z" />
    <glyph glyph-name="colon" unicode=":" horiz-adv-x="200" 
d="M100 332q-19 0 -32 12.5t-13 29.5v43q0 18 13 30.5t32 12.5t32 -12.5t13 -30.5v-43q0 -17 -13 -29.5t-32 -12.5zM100 -10q-19 0 -32 12.5t-13 29.5v43q0 18 13 30.5t32 12.5t32 -12.5t13 -30.5v-43q0 -17 -13 -29.5t-32 -12.5z" />
    <glyph glyph-name="semicolon" unicode=";" horiz-adv-x="200" 
d="M100 331q-19 0 -32 13t-13 30v43q0 18 13 30.5t32 12.5t32 -12.5t13 -30.5v-43q0 -17 -13 -30t-32 -13zM15 -87q-12 12 -13 28.5t9 27.5l50 57v51q0 17 12.5 28.5t29.5 11.5t29.5 -11.5t12.5 -28.5v-65q0 -17 -10 -30l-60 -69q-13 -14 -30 -13.5t-30 13.5z" />
    <glyph glyph-name="less" unicode="&#x3c;" horiz-adv-x="511" 
d="M417 64q-4 0 -12 2l-296 117q-54 21 -54 74q0 52 54 74l296 117q8 2 12 2q16 0 27.5 -11t11.5 -28q0 -27 -24 -37l-293 -117l293 -117q24 -10 24 -37q0 -17 -11.5 -28t-27.5 -11z" />
    <glyph glyph-name="equal" unicode="=" horiz-adv-x="547" 
d="M93 320q-16 0 -27 11.5t-11 27.5q0 17 11 28.5t27 11.5h361q16 0 27 -11.5t11 -28.5q0 -16 -11 -27.5t-27 -11.5h-361zM93 130q-16 0 -27 11.5t-11 27.5q0 17 11 28.5t27 11.5h361q16 0 27 -11.5t11 -28.5q0 -16 -11 -27.5t-27 -11.5h-361z" />
    <glyph glyph-name="greater" unicode="&#x3e;" horiz-adv-x="511" 
d="M94 64q-16 0 -27.5 11t-11.5 28q0 27 24 37l293 117l-293 117q-24 10 -24 37q0 17 11.5 28t27.5 11q4 0 12 -2l296 -117q54 -22 54 -74q0 -53 -54 -74l-296 -117q-8 -2 -12 -2z" />
    <glyph glyph-name="question" unicode="?" horiz-adv-x="432" 
d="M161 192q-17 0 -28.5 11t-11.5 27q0 41 18 71.5t43.5 50l50.5 38.5t43 45.5t18 60.5q0 98 -122 98h-86q-17 0 -29 13t-12 30q0 18 12 30.5t29 12.5h106q56 0 96 -16t60.5 -43t29.5 -55.5t9 -60.5q0 -49 -19 -86t-46.5 -58.5t-54.5 -39.5t-46 -40.5t-19 -50.5
q0 -16 -12 -27t-29 -11zM161 -10q-19 0 -32 12.5t-13 30.5v42q0 18 13 30.5t32 12.5t32 -12.5t13 -30.5v-42q0 -18 -13 -30.5t-32 -12.5z" />
    <glyph glyph-name="at" unicode="@" horiz-adv-x="876" 
d="M443 657q156 0 267 -99t111 -237q0 -102 -69 -173t-161 -71q-34 0 -54.5 21t-20.5 59v162q0 40 -22 64.5t-61 24.5h-95q-13 0 -21.5 9t-8.5 22t8.5 22t21.5 9h95q69 0 110 -41t41 -110v-176q70 -3 120.5 50t50.5 128q0 110 -92 190t-220 80q-108 0 -195 -65
q-10 -8 -21 -8q-12 0 -23 11q-10 10 -10 21q0 16 14 26q105 81 235 81zM693 21q11 -11 11 -24q0 -15 -12 -25q-105 -91 -249 -91q-161 0 -274.5 113.5t-113.5 274.5q0 130 82 236q11 14 27 14q11 0 20 -9q10 -10 10 -23q0 -11 -8 -22q-69 -88 -64 -196q0 -134 94 -228
t227 -94q115 0 206 75q11 9 22 9q12 0 22 -10zM392 260q-50 0 -50 -59q0 -54 50 -54h78q13 0 21.5 -9t8.5 -22t-8.5 -22.5t-21.5 -9.5h-78q-54 0 -87 32t-33 85q0 56 30 87t90 31h71q12 0 20 -8.5t8 -20.5q0 -13 -8 -21.5t-20 -8.5h-71z" />
    <glyph glyph-name="A" unicode="A" horiz-adv-x="620" 
d="M183 278q-24 0 -39.5 18.5t-7.5 41.5l111 322q9 30 44 30q26 0 39.5 -20.5t6.5 -40.5l-112 -321q-9 -30 -42 -30zM437 278q-34 0 -43 30l-64 184q-8 22 7 41.5t40 19.5q34 0 43 -30l63 -185q7 -24 -7.5 -42t-38.5 -18zM84 -10q-25 0 -39.5 20t-7.5 41l58 168q10 33 46 33
h338q34 0 45 -33l59 -168q7 -22 -8 -41.5t-39 -19.5q-34 0 -43 30l-52 152h-262l-52 -152q-9 -30 -43 -30z" />
    <glyph glyph-name="B" unicode="B" horiz-adv-x="610" 
d="M112 0q-20 0 -33.5 13t-13.5 32v590q0 19 13.5 32t33.5 13t34 -13t14 -32v-549h210q47 0 80 30.5t33 77.5t-33 78.5t-80 31.5h-140q-17 0 -28.5 12.5t-11.5 30.5t11.5 30.5t28.5 12.5h140q81 0 138 -56t57 -140q0 -83 -56.5 -138.5t-138.5 -55.5h-258zM444 428q0 12 6 21
q13 24 13 51q0 43 -32.5 68.5t-79.5 25.5h-124q-17 0 -29 12.5t-12 30.5t12 30.5t29 12.5h124q81 0 137.5 -52.5t56.5 -132.5q0 -59 -23 -92q-12 -19 -33 -19q-20 0 -32.5 13.5t-12.5 30.5z" />
    <glyph glyph-name="C" unicode="C" horiz-adv-x="576" 
d="M103 369q-20 0 -34 13.5t-14 32.5q0 117 75.5 191t193.5 74h171q17 0 29 -12.5t12 -30.5t-12 -30.5t-29 -12.5h-171q-77 0 -125.5 -50.5t-48.5 -128.5q0 -19 -14 -32.5t-33 -13.5zM324 0q-118 0 -193.5 75t-75.5 194v29q0 19 14 32t34 13t33.5 -13t13.5 -32v-29
q0 -80 47.5 -131.5t126.5 -51.5h171q17 0 29 -12.5t12 -30.5t-12 -30.5t-29 -12.5h-171z" />
    <glyph glyph-name="D" unicode="D" horiz-adv-x="650" 
d="M106 0q-17 0 -29 12.5t-12 30.5t12 30.5t29 12.5h202q79 0 135.5 60.5t56.5 141.5v105q0 80 -56.5 140.5t-135.5 60.5h-81q-17 0 -28.5 12.5t-11.5 30.5t11.5 30.5t28.5 12.5h81q118 0 202.5 -84t84.5 -203v-105q0 -119 -84 -203.5t-203 -84.5h-202zM113 113
q-20 0 -34 13t-14 32v477q0 19 14 32t34 13t33.5 -13t13.5 -32v-477q0 -19 -13.5 -32t-33.5 -13z" />
    <glyph glyph-name="E" unicode="E" horiz-adv-x="555" 
d="M113 423q-20 0 -34 13t-14 32v167q0 19 14 32t34 13h351q17 0 29 -12.5t12 -30.5t-12 -30.5t-29 -12.5h-304v-126q0 -19 -13.5 -32t-33.5 -13zM113 0q-20 0 -34 13t-14 32v305q0 19 14 32t34 13h285q17 0 29 -12.5t12 -30.5t-12 -30.5t-29 -12.5h-238v-223h304
q17 0 29 -12.5t12 -30.5t-12 -30.5t-29 -12.5h-351z" />
    <glyph glyph-name="F" unicode="F" horiz-adv-x="535" 
d="M113 423q-20 0 -34 13t-14 32v167q0 19 14 32t34 13h341q17 0 29 -12.5t12 -30.5t-12 -30.5t-29 -12.5h-294v-126q0 -19 -13.5 -32t-33.5 -13zM113 -10q-20 0 -34 13t-14 32v315q0 19 14 32t34 13h265q17 0 29 -12.5t12 -30.5t-12 -30.5t-29 -12.5h-218v-274
q0 -19 -13.5 -32t-33.5 -13z" />
    <glyph glyph-name="G" unicode="G" horiz-adv-x="640" 
d="M102 369q-19 0 -33 13.5t-14 32.5q0 117 75.5 191t193.5 74h171q17 0 29 -12.5t12 -30.5t-12 -30.5t-29 -12.5h-171q-78 0 -126 -50.5t-48 -128.5q0 -19 -14 -32.5t-34 -13.5zM527 0q-20 0 -33.5 13t-13.5 32v264h-127q-17 0 -29 12.5t-12 30.5t12 30.5t29 12.5h174
q20 0 34 -13t14 -32v-305q0 -19 -14 -32t-34 -13zM324 0q-118 0 -193.5 75t-75.5 194v29q0 19 13.5 32t33.5 13t34 -13t14 -32v-29q0 -80 47.5 -131.5t126.5 -51.5h89q17 0 29 -12.5t12 -30.5t-12 -30.5t-29 -12.5h-89z" />
    <glyph glyph-name="H" unicode="H" horiz-adv-x="640" 
d="M113 690q20 0 33.5 -13t13.5 -32v-610q0 -19 -13.5 -32t-33.5 -13t-34 13t-14 32v610q0 19 14 32t34 13zM528 690q20 0 33.5 -13t13.5 -32v-610q0 -19 -13.5 -32t-33.5 -13t-34 13t-14 32v275h-249q-17 0 -29 12.5t-12 30.5t12 30.5t29 12.5h249v249q0 19 14 32t34 13z
" />
    <glyph glyph-name="I" unicode="I" horiz-adv-x="225" 
d="M113 690q20 0 33.5 -13t13.5 -32v-610q0 -19 -13.5 -32t-33.5 -13t-34 13t-14 32v610q0 19 14 32t34 13z" />
    <glyph glyph-name="J" unicode="J" horiz-adv-x="298" 
d="M186 690q20 0 33.5 -13t13.5 -32v-444q0 -41 -27 -73l-107 -124q-1 0 -3 -2q-13 -13 -32.5 -12t-32.5 15t-14 31.5t10 30.5l111 128v450q0 19 14 32t34 13z" />
    <glyph glyph-name="K" unicode="K" horiz-adv-x="602" 
d="M113 -10q-20 0 -34 13t-14 32v143q0 39 24 66l375 432q13 14 31 14q21 0 33.5 -14.5t12.5 -32.5q0 -16 -10 -27l-371 -427v-154q0 -19 -13.5 -32t-33.5 -13zM113 335q-20 0 -34 13t-14 32v265q0 19 14 32t34 13t33.5 -13t13.5 -32v-265q0 -19 -13.5 -32t-33.5 -13z
M503 -10q-25 0 -38 21l-158 253q-6 10 -6 22q0 27 23 41q13 8 26 8q25 0 38 -21l157 -253q7 -11 7 -24q0 -19 -15 -33t-34 -14z" />
    <glyph glyph-name="L" unicode="L" horiz-adv-x="540" 
d="M113 88q-20 0 -34 13t-14 32v512q0 19 14 32t34 13t33.5 -13t13.5 -32v-512q0 -19 -13.5 -32t-33.5 -13zM184 0q-17 0 -29 12.5t-12 30.5t12 30.5t29 12.5h275q17 0 29 -12.5t12 -30.5t-12 -30.5t-29 -12.5h-275z" />
    <glyph glyph-name="M" unicode="M" horiz-adv-x="795" 
d="M111 -10q-19 0 -32.5 13t-13.5 31v589q0 28 20.5 47.5t52.5 19.5q50 0 67 -42l196 -490h23q19 0 32 -13.5t13 -33.5q0 -19 -13 -31.5t-32 -12.5h-23q-32 0 -49 11.5t-30 41.5l-164 417v-503q0 -18 -14 -31t-33 -13zM684 -10q-19 0 -33 13t-14 31v503l-125 -333
q-11 -26 -41 -26q-20 0 -33 13.5t-13 30.5q0 9 3 16l160 409q17 43 68 43q35 0 54.5 -19t19.5 -47v-590q0 -18 -13.5 -31t-32.5 -13z" />
    <glyph glyph-name="N" unicode="N" horiz-adv-x="651" 
d="M110 -10q-19 0 -32.5 13t-13.5 32v600q0 23 18.5 39t43.5 16q36 0 52 -28l321 -571h33q19 0 32 -13.5t13 -33.5q0 -19 -13 -31.5t-32 -12.5h-44q-44 0 -66 39l-265 483v-487q0 -19 -13.5 -32t-33.5 -13zM541 126q-20 0 -33.5 12.5t-13.5 31.5v476q0 18 14 31t33 13
t32.5 -13t13.5 -31v-476q0 -19 -13 -31.5t-33 -12.5z" />
    <glyph glyph-name="O" unicode="O" horiz-adv-x="685" 
d="M103 306q-20 0 -34 13.5t-14 32.5v52q0 118 84.5 202t203.5 84q114 0 196.5 -69t86.5 -174q1 -18 -13 -32t-35 -14q-17 0 -30.5 12t-15.5 28q-10 72 -62 117.5t-127 45.5q-79 0 -136 -60t-57 -140v-52q0 -19 -14 -32.5t-33 -13.5zM343 -10q-114 0 -193 65.5t-91 177.5
q-2 18 13 32t35 14q17 0 30 -10t16 -26q13 -76 60 -121.5t130 -45.5q79 0 135.5 60t56.5 140v52q0 19 14 32.5t34 13.5q19 0 33 -13.5t14 -32.5v-52q0 -118 -84 -202t-203 -84z" />
    <glyph glyph-name="P" unicode="P" horiz-adv-x="600" 
d="M113 -10q-20 0 -34 13t-14 32v276q0 19 14 32t34 13h222q122 0 122 119q0 57 -32.5 88t-89.5 31h-108q-17 0 -29 12.5t-12 30.5t12 30.5t29 12.5h118q99 0 154.5 -56.5t55.5 -148.5q0 -95 -55 -150t-155 -55h-185v-235q0 -19 -13.5 -32t-33.5 -13zM113 383
q-20 0 -34 13.5t-14 31.5v207q0 19 14 32t34 13t33.5 -13t13.5 -32v-207q0 -18 -14 -31.5t-33 -13.5z" />
    <glyph glyph-name="Q" unicode="Q" horiz-adv-x="690" 
d="M110 401q-24 0 -37.5 17t-9.5 38q19 101 98.5 167.5t184.5 66.5q126 0 206.5 -82.5t80.5 -203.5v-122q0 -57 -19 -103q0 -2 -2 -4t-2 -4q-13 -22 -39 -22q-10 0 -24 7q-25 14 -25 41q0 9 3 16q13 37 13 69v122q0 83 -53 141.5t-139 58.5q-70 0 -124 -47.5t-66 -119.5
q-3 -16 -16 -26t-30 -10zM633 -10q7 -12 7 -23q0 -21 -15.5 -34.5t-33.5 -13.5q-24 0 -39 21l-57 92q-71 -42 -150 -42q-125 0 -206 83t-81 203v53q0 19 14 32t34 13t33.5 -13t13.5 -32v-53q0 -82 53 -141t139 -59q55 0 103 32q35 24 63 24q33 0 56 -35z" />
    <glyph glyph-name="R" unicode="R" horiz-adv-x="615" 
d="M112 383q-19 0 -33 13.5t-14 31.5v207q0 19 13.5 32t33.5 13t34 -13t14 -32v-207q0 -18 -14 -31.5t-34 -13.5zM449 297q-20 0 -34 15t-14 33q0 24 21 37q35 24 35 93q0 57 -32.5 88t-89.5 31h-108q-17 0 -29 12.5t-12 30.5t12 30.5t29 12.5h118q99 0 154.5 -56.5
t55.5 -148.5q0 -62 -32 -120t-74 -58zM112 -10q-20 0 -33.5 13t-13.5 32v276q0 19 13.5 32t33.5 13h201q41 0 66 -39l160 -256q7 -12 7 -23q0 -21 -15.5 -34.5t-33.5 -13.5q-24 0 -39 21l-162 259h-136v-235q0 -19 -14 -32t-34 -13z" />
    <glyph glyph-name="S" unicode="S" horiz-adv-x="578" 
d="M213 335q-32 0 -85 36q-71 50 -71 134q0 19 4.5 40t19 48t37.5 47.5t63 35t92 14.5q44 0 87 -8q65 -12 114 -25q16 -4 25.5 -16.5t9.5 -28.5q0 -19 -13 -33t-32 -14q-1 0 -124 26q-42 8 -67 8q-37 0 -62.5 -11t-36.5 -28t-15.5 -30t-4.5 -25q0 -29 19 -46.5t56 -29.5
q31 -10 31 -45q0 -22 -14.5 -35.5t-32.5 -13.5zM288 -10q-40 0 -90 9q-59 11 -110 27q-33 10 -33 43q0 20 13 33.5t31 13.5q6 0 21 -3.5l43 -10.5t52 -12q42 -9 73 -9q42 0 72 13.5t43 35t18.5 38.5t5.5 32q0 39 -29.5 60.5t-87.5 39.5q-31 10 -31 44q0 20 14.5 35t33.5 15
q13 0 51 -15t57 -27q88 -57 88 -152q0 -29 -10 -60.5t-33.5 -67.5t-73 -59t-118.5 -23z" />
    <glyph glyph-name="T" unicode="T" horiz-adv-x="570" 
d="M279 -10q-20 0 -34 13t-14 32v560h-150q-17 0 -29 12.5t-12 29.5q0 18 12 30.5t29 12.5h156q37 0 63 -25t26 -60v-560q0 -19 -13.5 -32t-33.5 -13zM384 595q-17 0 -29 12.5t-12 29.5q0 18 12 30.5t29 12.5h105q17 0 29 -12.5t12 -30.5q0 -17 -12 -29.5t-29 -12.5h-105z
" />
    <glyph glyph-name="U" unicode="U" horiz-adv-x="640" 
d="M321 -10q-107 0 -181 71t-74 174v410q0 19 14 32t34 13t33.5 -13t13.5 -32v-410q0 -65 46.5 -112t113.5 -47q90 0 136 76q13 19 36 19q18 0 33.5 -14.5t15.5 -32.5q0 -13 -8 -24q-36 -53 -92.5 -81.5t-120.5 -28.5zM529 194q-20 0 -34 13t-14 32v406q0 19 14 32t34 13
t33.5 -13t13.5 -32v-406q0 -19 -13.5 -32t-33.5 -13z" />
    <glyph glyph-name="V" unicode="V" horiz-adv-x="632" 
d="M354 91q19 0 32 -13.5t13 -33.5q0 -19 -13 -31.5t-32 -12.5h-47q-22 0 -42 12.5t-27 33.5l-200 582q-3 8 -3 16q0 19 13.5 32.5t34.5 13.5q15 0 27.5 -8t16.5 -22l191 -569h36zM594 628l-163 -485q-9 -30 -44 -30q-4 0 -14 2q-14 4 -23 16.5t-9 26.5q0 10 3 17l161 485
q11 30 44 30q11 0 16 -2q32 -13 32 -44q0 -8 -3 -16z" />
    <glyph glyph-name="W" unicode="W" horiz-adv-x="915" 
d="M251 0q-23 0 -43.5 13t-25.5 33l-139 584q-2 10 -2 14q0 33 32 44q5 2 16 2q34 0 43 -30l3 -11l128 -563h29q18 0 30.5 -13t12.5 -31t-12.5 -30t-30.5 -12h-41zM688 119q-15 4 -24.5 16t-9.5 27q0 7 1 10l127 484q4 15 16.5 24t28.5 9q8 0 12 -1q16 -5 26 -17.5t10 -28.5
q0 -7 -1 -10l-132 -483q-4 -14 -15.5 -23t-25.5 -9q-5 0 -13 2zM307 118q-32 8 -32 41q0 6 1 9l93 407q5 19 25 32.5t44 13.5h45q19 0 31.5 -12.5t12.5 -31.5q0 -20 -12.5 -33.5t-31.5 -13.5h-34l-90 -383q-3 -14 -15 -22t-27 -8q-7 0 -10 1zM634 0q-21 0 -40.5 13t-24.5 33
l-103 404q-2 8 -2 12q0 32 31 43q7 3 16 3q14 0 25.5 -8t14.5 -21l94 -393h27q17 0 29.5 -13t12.5 -31t-12 -30t-30 -12h-38z" />
    <glyph glyph-name="X" unicode="X" horiz-adv-x="583" 
d="M84 -10q-22 0 -35.5 14.5t-13.5 32.5q0 11 7 23l185 295l-166 265q-7 12 -7 23q0 19 14.5 33t33.5 14q27 0 39 -20l168 -269q15 -22 15 -47q0 -22 -12 -41l-190 -303q-12 -20 -38 -20zM363 405q-19 0 -34 14.5t-15 33.5q0 11 7 23l122 194q12 20 38 20q20 0 34 -14
t14 -34q0 -12 -6 -22l-122 -194q-13 -21 -38 -21zM499 -10q-25 0 -37 20l-141 224q-7 12 -7 23q0 20 15.5 34t33.5 14q25 0 38 -21l140 -224q7 -10 7 -23q0 -19 -14.5 -33t-34.5 -14z" />
    <glyph glyph-name="Y" unicode="Y" horiz-adv-x="570" 
d="M285 -10q-20 0 -34 13t-14 32v205l-197 384q-5 10 -5 20q0 18 14 32t34 14q27 0 40 -24l194 -375q15 -30 15 -68v-188q0 -19 -13.5 -32t-33.5 -13zM353 335q-21 0 -34.5 14.5t-13.5 32.5q0 10 5 20l137 264q13 24 40 24q21 0 34.5 -14.5t13.5 -31.5q0 -10 -5 -20
q0 1 -5 -8.5l-14 -27.5l-20.5 -40l-25 -48.5l-26 -51l-25 -49t-21.5 -40.5q-13 -24 -40 -24z" />
    <glyph glyph-name="Z" unicode="Z" horiz-adv-x="526" 
d="M265 367q-17 11 -21 29.5t6 34.5l104 163h-268q-17 0 -29 12.5t-12 30.5t12 30.5t29 12.5h292q56 0 73 -43.5t-15 -90.5l-107 -166q-11 -16 -29 -19.5t-35 6.5zM121 0q-47 0 -68 23t-18.5 51t18.5 53l133 206q10 16 28.5 19.5t35.5 -7.5t21 -29.5t-6 -34.5l-126 -195h311
q17 0 29 -12.5t12 -30.5t-12 -30.5t-29 -12.5h-329z" />
    <glyph glyph-name="bracketleft" unicode="[" horiz-adv-x="315" 
d="M136 -141q-34 0 -57.5 23.5t-23.5 57.5v738q0 34 23.5 57.5t57.5 23.5h104q17 0 28.5 -11t11.5 -28t-11.5 -28.5t-28.5 -11.5h-97v-742h97q17 0 28.5 -11.5t11.5 -28.5t-11.5 -28t-28.5 -11h-104z" />
    <glyph glyph-name="backslash" unicode="\" horiz-adv-x="414" 
d="M379 -74q-28 0 -39 24l-346 743q-4 8 -4 18q0 30 27 40q9 3 18 3q29 0 40 -23l346 -744q3 -8 3 -16q0 -29 -26 -41q-8 -4 -19 -4z" />
    <glyph glyph-name="bracketright" unicode="]" horiz-adv-x="315" 
d="M75 -141q-17 0 -28.5 11t-11.5 28t11.5 28.5t28.5 11.5h97v742h-97q-17 0 -28.5 11.5t-11.5 28.5t11.5 28t28.5 11h104q35 0 58 -23.5t23 -57.5v-738q0 -34 -23 -57.5t-58 -23.5h-104z" />
    <glyph glyph-name="asciicircum" unicode="^" horiz-adv-x="338" 
d="M275 598q8 -10 8 -22q0 -16 -11 -27q-12 -12 -30 -12q-16 0 -24 11l-49 57l-49 -57q-8 -11 -24 -11q-18 0 -30 12q-11 11 -11 27q0 12 8 22l63 72q17 20 44 20q26 0 43 -20z" />
    <glyph glyph-name="underscore" unicode="_" horiz-adv-x="579" 
d="M86 -130q-15 0 -25.5 11t-10.5 26q0 16 10.5 27t25.5 11h407q15 0 25.5 -11t10.5 -27q0 -15 -10.5 -26t-25.5 -11h-407z" />
    <glyph glyph-name="grave" unicode="`" horiz-adv-x="255" 
d="M68 677q12 13 31 13q18 0 30 -13l62 -71q9 -10 9 -25q0 -18 -12 -30q-13 -13 -33 -13q-18 0 -27 12l-62 72q-11 13 -11 26q0 16 13 29z" />
    <glyph glyph-name="a" unicode="a" horiz-adv-x="506" 
d="M405 3l-25 29q-23 26 -23 62v210q0 52 -28 83.5t-78 31.5h-124q-16 0 -27.5 11.5t-11.5 28.5t11.5 29t27.5 12h124q89 0 142.5 -53.5t53.5 -142.5v-225l20 -23q9 -10 9 -24q0 -19 -12.5 -30.5t-28.5 -11.5q-18 0 -30 13zM198 0q-71 0 -113.5 41.5t-42.5 110.5
q0 72 39 112t117 40h94q15 0 25.5 -11t10.5 -27t-10.5 -27t-25.5 -11h-94q-66 0 -66 -76q0 -71 66 -71h104q16 0 27 -11.5t11 -28.5t-11 -29t-27 -12h-104z" />
    <glyph glyph-name="b" unicode="b" horiz-adv-x="529" 
d="M100 85q-19 0 -32 12.5t-13 29.5v540q0 18 13 30.5t32 12.5q18 0 31.5 -12.5t13.5 -30.5v-540q0 -17 -13.5 -29.5t-31.5 -12.5zM170 0q-16 0 -27 12t-11 29t11 28.5t27 11.5h113q50 0 78 31.5t28 83.5v108q0 52 -28 83.5t-78 31.5h-71q-16 0 -27 11.5t-11 28.5t11 29
t27 12h71q89 0 142.5 -53.5t53.5 -142.5v-108q0 -89 -53.5 -142.5t-142.5 -53.5h-113z" />
    <glyph glyph-name="c" unicode="c" horiz-adv-x="441" 
d="M93 277q-21 0 -34.5 14t-11.5 33l1 7q14 73 71 121t132 48h126q16 0 27.5 -12t11.5 -29t-11.5 -28.5t-27.5 -11.5h-126q-42 0 -74.5 -31t-40.5 -74q-1 -16 -14 -26.5t-29 -10.5zM251 0q-85 0 -145.5 61t-60.5 147q0 17 13 29.5t32 12.5q18 0 31.5 -12.5t13.5 -29.5
q0 -50 34.5 -88.5t81.5 -38.5h126q16 0 27.5 -11.5t11.5 -28.5t-11.5 -29t-27.5 -12h-126z" />
    <glyph glyph-name="d" unicode="d" horiz-adv-x="533" 
d="M461 -10q-15 0 -26 11l-28 31q-23 26 -23 62v573q0 18 13 30.5t32 12.5t32 -12.5t13 -30.5v-587l20 -24q9 -10 9 -24q0 -17 -12 -29q-13 -13 -30 -13zM246 0q-89 0 -142.5 53.5t-53.5 142.5v108q0 89 53.5 142.5t142.5 53.5h70q16 0 27.5 -12t11.5 -29t-11.5 -28.5
t-27.5 -11.5h-70q-51 0 -78.5 -31.5t-27.5 -83.5v-108q0 -52 27.5 -83.5t78.5 -31.5h83q16 0 27 -11.5t11 -28.5t-11 -29t-27 -12h-83z" />
    <glyph glyph-name="e" unicode="e" 
d="M271 0q-93 0 -158.5 61t-65.5 146v98q0 85 65.5 145t158.5 60q103 0 164 -56t61 -149q0 -77 -71 -77h-223q-15 0 -25.5 11t-10.5 27t10.5 27t25.5 11h204q0 55 -35 90t-100 35q-50 0 -92 -36.5t-42 -87.5v-98q0 -51 42 -88.5t92 -37.5h64l33 29q11 9 25 9q18 0 30 -13.5
t12 -29.5q0 -17 -12 -27l-30 -26q-26 -23 -63 -23h-59z" />
    <glyph glyph-name="f" unicode="f" horiz-adv-x="345" 
d="M140 -10q-19 0 -32 12.5t-13 30.5v396h-51q-14 0 -24 10.5t-10 24.5q0 15 10 25.5t24 10.5h51v29q0 87 52 129t145 42q16 0 27 -12t11 -29t-11 -28.5t-27 -11.5q-54 0 -80.5 -20t-26.5 -70v-496q0 -18 -13 -30.5t-32 -12.5zM248 429q-14 0 -24 10.5t-10 24.5
q0 15 10 25.5t24 10.5h48q14 0 24 -10.5t10 -25.5q0 -14 -10 -24.5t-24 -10.5h-48z" />
    <glyph glyph-name="g" unicode="g" horiz-adv-x="555" 
d="M261 0q-89 0 -143 53.5t-54 142.5v108q0 89 54 142.5t143 53.5h101q16 0 27.5 -12t11.5 -29t-11.5 -28.5t-27.5 -11.5h-101q-51 0 -79 -31.5t-28 -83.5v-108q0 -52 28 -83.5t79 -31.5h15l33 29q11 9 24 9q17 0 29 -12q13 -12 13 -31q0 -17 -12 -27l-30 -26
q-26 -23 -62 -23h-10zM169 -200q-16 0 -27.5 12t-11.5 29t11.5 28.5t27.5 11.5h124q50 0 78 31.5t28 83.5v387q0 17 13 29.5t32 12.5t32 -12.5t13 -29.5v-387q0 -89 -53.5 -142.5t-142.5 -53.5h-124z" />
    <glyph glyph-name="h" unicode="h" 
d="M100 -10q-19 0 -32 12.5t-13 30.5v634q0 18 13 30.5t32 12.5t32 -12.5t13 -30.5v-634q0 -18 -13 -30.5t-32 -12.5zM430 -10q-19 0 -32 12.5t-13 30.5v281q0 53 -28 84t-83 31l-33 -29q-11 -9 -25 -9q-17 0 -29 12q-13 13 -13 30t12 27l31 27q27 23 62 23
q89 0 142.5 -53.5t53.5 -142.5v-281q0 -18 -13 -30.5t-32 -12.5z" />
    <glyph glyph-name="i" unicode="i" horiz-adv-x="200" 
d="M100 582q-18 0 -31.5 12.5t-13.5 29.5v43q0 18 13.5 30.5t31.5 12.5q19 0 32 -12.5t13 -30.5v-43q0 -17 -13 -29.5t-32 -12.5zM99 -10q-18 0 -31 12.5t-13 30.5v434q0 18 13.5 30.5t31.5 12.5q19 0 32 -12.5t13 -30.5v-434q-1 -18 -14 -30.5t-32 -12.5z" />
    <glyph glyph-name="j" unicode="j" horiz-adv-x="240" 
d="M140 710q19 0 32 -13t13 -30v-43q0 -18 -13 -30.5t-32 -12.5q-18 0 -31.5 12.5t-13.5 30.5v43q0 17 13.5 30t31.5 13zM140 510q19 0 32 -13t13 -30v-478q0 -40 -25 -68l-102 -118q-13 -13 -31 -13q-21 0 -33 14q-13 13 -13 33q0 15 9 26l105 121v483q0 17 13.5 30
t31.5 13z" />
    <glyph glyph-name="k" unicode="k" horiz-adv-x="522" 
d="M100 316q-19 0 -32 13t-13 30v308q0 18 13 30.5t32 12.5t32 -12.5t13 -30.5v-308q0 -17 -13 -30t-32 -13zM100 -10q-19 0 -32 12.5t-13 30.5v163q0 35 29 60l313 244q13 10 27 10q23 0 35 -19q8 -11 8 -25q0 -17 -13 -30l-309 -240v-163q0 -18 -13 -30.5t-32 -12.5z
M426 -10q-25 0 -37 20l-124 199q-7 12 -7 22q0 24 22 38q11 7 25 7q24 0 36 -19l125 -200q6 -11 6 -21q0 -25 -22 -39q-11 -7 -24 -7z" />
    <glyph glyph-name="l" unicode="l" horiz-adv-x="200" 
d="M100 -10q-19 0 -32 12.5t-13 30.5v634q0 18 13 30.5t32 12.5q18 0 31.5 -12.5t13.5 -30.5v-634q0 -18 -13.5 -30.5t-31.5 -12.5z" />
    <glyph glyph-name="m" unicode="m" horiz-adv-x="830" 
d="M100 -10q-19 0 -32 12.5t-13 30.5v434q0 18 13 30.5t32 12.5t32 -12.5t13 -30.5v-434q0 -18 -13 -30.5t-32 -12.5zM415 -10q-19 0 -32 12.5t-13 30.5v281q0 53 -24.5 84t-72.5 31l-33 -29q-10 -9 -24 -9q-17 0 -29 12q-13 13 -13 31q0 16 12 27l30 26q26 23 62 23
q88 0 135 -52.5t47 -143.5v-281q0 -18 -13 -30.5t-32 -12.5zM730 -10q-19 0 -32 12.5t-13 30.5v281q0 53 -28.5 84t-83.5 31l-33 -29q-10 -9 -24 -9q-17 0 -29 12q-13 13 -13 30t12 28l30 26q26 23 62 23q90 0 143.5 -53.5t53.5 -142.5v-281q0 -18 -13 -30.5t-32 -12.5z" />
    <glyph glyph-name="n" unicode="n" 
d="M100 -10q-19 0 -32 12.5t-13 30.5v434q0 18 13 30.5t32 12.5t32 -12.5t13 -30.5v-434q0 -18 -13 -30.5t-32 -12.5zM430 -10q-19 0 -32 12.5t-13 30.5v281q0 53 -28 84t-83 31l-33 -29q-11 -9 -25 -9q-17 0 -29 12q-13 13 -13 30t12 27l31 27q27 23 62 23
q89 0 142.5 -53.5t53.5 -142.5v-281q0 -18 -13 -30.5t-32 -12.5z" />
    <glyph glyph-name="o" unicode="o" horiz-adv-x="550" 
d="M95 228q-19 0 -32 13t-13 30v34q0 85 66 145t159 60q89 0 148 -43.5t71 -115.5q1 -5 1 -10q0 -18 -13 -30.5t-33 -12.5q-16 0 -28 9.5t-15 24.5q-20 97 -131 97q-51 0 -93 -36.5t-42 -87.5v-34q0 -17 -13 -30t-32 -13zM275 -10q-88 0 -146 42.5t-70 118.5
q-3 20 10.5 35.5t35.5 15.5q16 0 28 -9.5t14 -24.5q11 -53 41 -75t87 -22q51 0 93 36.5t42 87.5v34q0 18 13 30.5t32 12.5q18 0 31.5 -12.5t13.5 -30.5v-34q0 -85 -66 -145t-159 -60z" />
    <glyph glyph-name="p" unicode="p" 
d="M213 0q-16 0 -27.5 12t-11.5 29t11.5 28.5t27.5 11.5h70q51 0 79 31.5t28 83.5v108q0 52 -28 83.5t-79 31.5h-112q-16 0 -27.5 12t-11.5 28q0 17 11.5 29t27.5 12h112q89 0 143 -53.5t54 -142.5v-108q0 -89 -54 -142.5t-143 -53.5h-70zM100 -210q-19 0 -32 12.5t-13 30.5
v540q0 17 13 29.5t32 12.5t32 -12.5t13 -29.5v-540q0 -18 -13 -30.5t-32 -12.5z" />
    <glyph glyph-name="q" unicode="q" 
d="M317 0h-70q-89 0 -143 53.5t-54 142.5v108q0 89 54 142.5t143 53.5h112q16 0 27.5 -12t11.5 -29q0 -16 -11.5 -28t-27.5 -12h-112q-51 0 -79 -31.5t-28 -83.5v-108q0 -52 28 -83.5t79 -31.5h70q16 0 27.5 -11.5t11.5 -28.5t-11.5 -29t-27.5 -12zM430 -210q-19 0 -32 12.5
t-13 30.5v540q0 17 13 29.5t32 12.5t32 -12.5t13 -29.5v-540q0 -18 -13 -30.5t-32 -12.5z" />
    <glyph glyph-name="r" unicode="r" horiz-adv-x="370" 
d="M100 -10q-19 0 -32 12.5t-13 30.5v434q0 18 13 30.5t32 12.5t32 -12.5t13 -30.5v-434q0 -18 -13 -30.5t-32 -12.5zM241 400q-11 -9 -25 -9q-16 0 -29 12q-13 13 -13 30q0 16 13 28l29 26q28 23 63 23h34q16 0 27 -12t11 -29t-11 -28.5t-27 -11.5h-39z" />
    <glyph glyph-name="s" unicode="s" horiz-adv-x="428" 
d="M158 242q-9 0 -17 2q-103 38 -103 124q0 66 49 106q44 36 120 36q59 0 132 -22q27 -6 27 -36q0 -17 -10.5 -29.5t-27.5 -12.5q-6 0 -46.5 10t-75.5 10q-84 0 -84 -52q0 -37 48 -58q27 -12 27 -35q0 -19 -11 -31t-28 -12zM212 -10q-71 0 -144 22q-29 8 -29 37
q0 16 10.5 28t27.5 12q7 0 52 -9.5t76 -9.5q47 0 73 18t26 50q0 17 -6 30.5t-19 22.5t-18 12t-17 8q-28 11 -28 35q0 17 11 29.5t28 12.5q9 0 15 -2l14.5 -4t29 -14t36.5 -27t27.5 -43.5t12.5 -63.5q0 -77 -51 -110.5t-127 -33.5z" />
    <glyph glyph-name="t" unicode="t" horiz-adv-x="375" 
d="M248 -10q-16 0 -27 10l-95 83q-27 23 -27 60v286h-51q-14 0 -24 10.5t-10 24.5q0 15 10 25.5t24 10.5h51v107q0 18 13 30.5t32 12.5t32 -12.5t13 -30.5v-459l91 -80q14 -11 14 -32q0 -18 -11 -30q-13 -16 -35 -16zM252 429q-14 0 -24 10.5t-10 24.5q0 15 10 25.5t24 10.5
h53q14 0 24 -10.5t10 -25.5q0 -14 -10 -24.5t-24 -10.5h-53z" />
    <glyph glyph-name="u" unicode="u" 
d="M252 -10q-90 0 -143.5 53.5t-53.5 142.5v281q0 18 13 30.5t32 12.5t32 -12.5t13 -30.5v-281q0 -52 28 -83.5t79 -31.5q26 0 49 10q7 3 16 3q19 0 30 -12.5t11 -29.5q0 -29 -25 -38q-41 -14 -81 -14zM430 -10q-19 0 -32 12.5t-13 30.5v434q0 18 13 30.5t32 12.5t32 -12.5
t13 -30.5v-434q0 -18 -13 -30.5t-32 -12.5z" />
    <glyph glyph-name="v" unicode="v" horiz-adv-x="526" 
d="M257 0q-21 0 -39.5 12.5t-25.5 31.5l-150 408q-2 4 -2 13q0 17 13 31t33 14q14 0 25.5 -8t15.5 -21l141 -395h23q17 0 29.5 -13t12.5 -32q0 -18 -12 -29.5t-30 -11.5h-34zM312 111q-31 10 -31 40q0 4 2 12l116 319q10 28 41 28q20 0 33 -13.5t13 -32.5q0 -4 -2 -12
l-119 -317q-4 -12 -14.5 -19.5t-23.5 -7.5q-7 0 -15 3z" />
    <glyph glyph-name="w" unicode="w" horiz-adv-x="776" 
d="M211 0q-22 0 -41.5 13.5t-24.5 33.5l-103 405q-1 4 -1 12q0 32 30 43q7 3 16 3q14 0 25.5 -8t14.5 -21l96 -402h24q16 0 27.5 -12t11.5 -29q0 -16 -11 -27t-28 -11h-36zM608 106q-19 0 -31.5 12.5t-12.5 29.5q0 7 1 10l83 321q4 14 15.5 22.5t26.5 8.5q20 0 33 -12.5
t13 -30.5q0 -7 -1 -11l-86 -319q-3 -14 -14.5 -22.5t-26.5 -8.5zM276 106q-16 0 -27.5 11t-11.5 26q0 4 2 10l84 304q13 43 59 43h37q18 0 30 -11.5t12 -29.5q0 -19 -12 -32t-30 -13h-32l-77 -283q-7 -25 -34 -25zM548 0q-19 0 -38 13.5t-24 33.5l-80 295q-2 8 -2 12
q0 16 12 28.5t31 12.5q30 0 38 -26l73 -290h25q16 0 27.5 -12t11.5 -29q0 -16 -11 -27t-28 -11h-35z" />
    <glyph glyph-name="x" unicode="x" horiz-adv-x="483" 
d="M57 -3q-22 14 -22 38q0 10 7 22l139 207l-123 180q-7 12 -7 21q0 24 22 38q11 7 25 7q23 0 35 -19l126 -184q13 -22 13 -45q0 -21 -11 -38l-144 -215q-13 -19 -36 -19q-13 0 -24 7zM284 318q-21 15 -21 37q0 12 6 21l81 115q12 19 34 19q14 0 24 -7q21 -12 21 -36
q0 -12 -6 -22l-80 -115q-13 -19 -35 -19q-13 0 -24 7zM427 -3q-10 -7 -23 -7q-23 0 -36 19l-97 141q-6 10 -6 21q0 23 21 37q10 7 23 7q23 0 36 -19l97 -141q6 -11 6 -21q0 -24 -21 -37z" />
    <glyph glyph-name="y" unicode="y" horiz-adv-x="525" 
d="M200 101q-33 0 -42 28l-115 323q-2 8 -2 13q0 18 12.5 31.5t32.5 13.5q31 0 41 -28l116 -324q2 -4 2 -13q0 -32 -31 -42q-10 -2 -14 -2zM81 -201q-16 0 -27 12t-11 29t11 29t27 12h21q38 0 70.5 25t45.5 62l180 513q10 29 41 29q20 0 33.5 -13.5t13.5 -30.5q0 -8 -3 -14
l-186 -512q-21 -62 -74.5 -101.5t-120.5 -39.5h-21z" />
    <glyph glyph-name="z" unicode="z" horiz-adv-x="470" 
d="M287 259q-16 0 -28 12q-14 11 -14 30q0 15 10 25l88 93h-258q-16 0 -27.5 12t-11.5 28q0 17 11.5 29t27.5 12h282q31 0 51 -20t20 -48t-20 -49l-103 -112q-14 -12 -28 -12zM115 0q-37 0 -57 17t-20 44q0 30 26 59l121 131q14 12 28 12q16 0 28 -12q14 -11 14 -30
q0 -15 -10 -25l-108 -115h268q16 0 27.5 -12t11.5 -28q0 -17 -11.5 -29t-27.5 -12h-290z" />
    <glyph glyph-name="braceleft" unicode="{" horiz-adv-x="402" 
d="M223 -141q-35 0 -58 23.5t-23 57.5v221q0 52 -32 84q-30 28 -75 28q-16 0 -25.5 12t-9.5 27t9 25.5t26 10.5q49 0 78 31t29 81v218q0 34 23 57.5t58 23.5h104q17 0 28.5 -11t11.5 -28t-11.5 -28.5t-28.5 -11.5h-97v-220q1 -102 -91 -146q27 -9 47 -32q44 -50 44 -121
v-223h97q17 0 28.5 -11.5t11.5 -28.5t-11.5 -28t-28.5 -11h-104z" />
    <glyph glyph-name="bar" unicode="|" horiz-adv-x="199" 
d="M100 -70q-18 1 -31.5 13t-13.5 29v739q0 17 14 30t33 13q17 0 29.5 -12.5t12.5 -30.5v-739q0 -17 -13 -29.5t-31 -12.5z" />
    <glyph glyph-name="braceright" unicode="}" horiz-adv-x="402" 
d="M75 -141q-17 0 -28.5 11t-11.5 28t11.5 28.5t28.5 11.5h97v223q0 71 44 121q20 23 47 32q-92 44 -91 146v220h-97q-17 0 -28.5 11.5t-11.5 28.5t11.5 28t28.5 11h104q35 0 58 -23.5t23 -57.5v-218q0 -50 29 -81t78 -31q17 0 26 -10.5t9 -25.5t-9.5 -27t-25.5 -12
q-45 0 -75 -28q-32 -32 -32 -84v-221q0 -34 -23 -57.5t-58 -23.5h-104z" />
    <glyph glyph-name="asciitilde" unicode="~" horiz-adv-x="529" 
d="M443 399q21 0 33.5 -16.5t4.5 -36.5q-18 -47 -54 -75.5t-79 -28.5q-47 0 -109 48q-37 30 -56 30q-41 0 -61 -55q-10 -23 -36 -23q-22 0 -34.5 16.5t-3.5 36.5q22 49 57 76.5t76 27.5q50 0 109 -48q37 -30 58 -30q36 0 59 55q10 23 36 23z" />
    <glyph glyph-name="exclamdown" unicode="&#xa1;" horiz-adv-x="200" 
d="M100 382q-19 0 -32 12.5t-13 30.5v42q0 18 13 30.5t32 12.5t32 -12.5t13 -30.5v-42q0 -18 -13 -30.5t-32 -12.5zM100 -180q-19 0 -32 12.5t-13 29.5l5 374q0 16 12 27.5t28 11.5t28 -11.5t12 -27.5l5 -374q0 -17 -13 -29.5t-32 -12.5z" />
    <glyph glyph-name="cent" unicode="&#xa2;" horiz-adv-x="441" 
d="M93 277q-21 0 -34.5 14t-11.5 33l1 7q12 63 56.5 108t106.5 57l1 92q0 18 13.5 30.5t31.5 12.5q19 0 32 -12.5t13 -30.5v-88h75q16 0 27.5 -12t11.5 -29t-11.5 -28.5t-27.5 -11.5h-126q-42 0 -74.5 -31t-40.5 -74q-1 -16 -14 -26.5t-29 -10.5zM377 81q16 0 27.5 -11.5
t11.5 -28.5t-11.5 -29t-27.5 -12h-74v-87q-1 -18 -14 -30.5t-32 -12.5q-18 0 -31.5 12.5t-13.5 30.5l1 91q-73 14 -120.5 71t-47.5 133q0 17 13 29.5t32 12.5q18 0 31.5 -12.5t13.5 -29.5q0 -50 34.5 -88.5t81.5 -38.5h126z" />
    <glyph glyph-name="sterling" unicode="&#xa3;" horiz-adv-x="575" 
d="M158 399q-19 0 -32.5 13t-13.5 31v54q0 18 4.5 38t18 45.5t35 45.5t60 33.5t87.5 13.5q42 0 82 -8l79 -18q15 -4 24 -16t9 -27q0 -18 -12.5 -31t-30.5 -13q-5 0 -88 18q-38 8 -63 8q-35 0 -59.5 -10.5t-35 -26.5t-14.5 -28.5t-4 -23.5v-54q0 -18 -13.5 -31t-32.5 -13z
M434 331q0 -16 -11 -27.5t-27 -11.5h-333q-16 0 -27 11.5t-11 27.5q0 17 11 28.5t27 11.5h333q16 0 27 -11.5t11 -28.5zM158 264q19 0 32.5 -13t13.5 -31v-118q0 -37 -24 -64l-30 -35q-10 -13 -31 -13q-17 0 -29.5 11.5t-12.5 30.5q0 14 9 25l26 29v134q0 18 13.5 31
t32.5 13zM484 86q17 0 29 -12.5t12 -30.5t-12 -30.5t-29 -12.5h-224q-17 0 -29 12.5t-12 30.5q0 19 12 31t29 12h224z" />
    <glyph glyph-name="currency" unicode="&#xa4;" horiz-adv-x="609" 
d="M129 418l-63 63q-11 11 -11 25q0 15 12 27q13 13 27 13q13 0 25 -12l85 -84q10 -10 10 -23q0 -15 -12 -29q-41 -44 -41 -104q0 -16 3 -31q1 -4 1 -10q0 -23 -23 -33q-6 -3 -14 -3q-23 0 -31 26q-7 24 -7 53q0 68 39 122zM263 434q-22 0 -34 24q-3 8 -3 14q0 25 25 31
q24 7 53 7q68 0 122 -39l63 62q11 11 25 11q15 0 27 -12q13 -13 13 -27q0 -13 -12 -25l-84 -85q-10 -10 -23 -10q-15 0 -29 12q-40 40 -106 40q-6 0 -18 -1.5t-19 -1.5zM479 174l63 -63q12 -12 12 -25q0 -14 -13 -27q-12 -12 -27 -12q-14 0 -25 11l-85 84q-10 9 -10 23
q0 17 12 29q41 43 41 101q0 18 -4 33q-1 4 -1 11q0 21 19 30q8 4 18 4q25 0 31 -25q7 -25 7 -54q0 -64 -38 -120zM346 157q24 0 34 -23q3 -6 3 -14q0 -24 -26 -32q-25 -7 -54 -7q-67 0 -121 39l-63 -63q-12 -12 -25 -12q-12 0 -27 13q-12 12 -12 26q0 15 11 26l84 84
q10 10 25 10q14 0 27 -11q43 -40 102 -40q16 0 31 3q4 1 11 1z" />
    <glyph glyph-name="yen" unicode="&#xa5;" horiz-adv-x="564" 
d="M437 280q16 0 27 -11.5t11 -28.5q0 -16 -11 -27.5t-27 -11.5h-110v-168q0 -18 -13 -30.5t-32 -12.5t-32.5 12.5t-13.5 30.5v168h-130q-16 0 -27 11.5t-11 27.5q0 17 11 28.5t27 11.5h112l-178 348q-5 8 -5 19q0 18 13.5 31t32.5 13q27 0 38 -23l193 -375l6 -13h119z
M529 647q0 -9 -5 -19q0 1 -5 -9l-14.5 -28.5l-21.5 -42l-25.5 -50l-26.5 -51.5l-25.5 -49l-20.5 -40q-13 -23 -38 -23q-20 0 -33 14t-13 31q0 9 5 19l139 269q11 23 38 23q20 0 33 -14t13 -30z" />
    <glyph glyph-name="brokenbar" unicode="&#xa6;" horiz-adv-x="219" 
d="M174 464q8 -8 8 -24q0 -18 -12 -29.5t-28 -11.5q-18 0 -30 13l-24 28q-23 26 -23 62v209q0 17 14 30t33 13q17 0 29.5 -12.5t12.5 -30.5v-224zM107 272l24 -28q23 -26 23 -62v-210q0 -17 -13 -29.5t-31 -12.5q-18 1 -31.5 13t-13.5 29v225l-20 23q-8 8 -8 24
q0 18 12 29.5t28 11.5q18 0 30 -13z" />
    <glyph glyph-name="section" unicode="&#xa7;" horiz-adv-x="590" 
d="M246 420q-31 0 -67 28q-55 38 -55 100q0 20 6.5 41.5t23 46.5t52.5 41t86 16q28 0 63 -6q54 -9 86 -20q16 -6 22.5 -12.5t6.5 -20.5q0 -22 -12 -31.5t-22 -9.5q-4 0 -19.5 3t-38.5 8t-38 8q-30 6 -51 6q-35 0 -55.5 -14t-25 -27.5t-4.5 -27.5q0 -15 8.5 -26t18 -16
t27.5 -11q25 -9 25 -35q0 -17 -11 -29t-26 -12zM420 215q-22 0 -33.5 19.5t-0.5 40.5q17 32 17 46q0 6 -1 11.5t-2.5 10t-5 8.5l-6 7t-8.5 6.5t-8.5 5.5t-10.5 5t-11 4.5t-12.5 5t-12.5 4.5q-25 10 -25 36q0 17 13 29t27 12q28 0 74 -28q68 -42 68 -118q0 -54 -29 -88
q-13 -17 -33 -17zM204 406q23 0 34.5 -21t-5.5 -37q-29 -27 -29 -52q0 -22 12 -31.5t42 -21.5q25 -9 25 -35q0 -18 -11 -30t-25 -12q-27 0 -69 30q-54 38 -54 98q0 61 37 93q22 19 43 19zM305 -93q-30 0 -72 7q-30 5 -83 20q-27 8 -27 35q0 17 11 28t24 11q6 0 18.5 -3
t33.5 -8.5t38 -8.5q30 -6 53 -6q31 0 53 9.5t31.5 25t13.5 28.5t4 25q0 27 -17.5 40t-59.5 27q-25 8 -25 36q0 17 12 29t25 12q25 0 76 -29q68 -45 68 -115q0 -17 -4.5 -36.5t-16.5 -42.5t-31 -41.5t-51.5 -30.5t-73.5 -12z" />
    <glyph glyph-name="dieresis" unicode="&#xa8;" horiz-adv-x="394" 
d="M100 562q-19 0 -32 12.5t-13 30.5v42q0 18 13 30.5t32 12.5t32 -12.5t13 -30.5v-42q0 -18 -13 -30.5t-32 -12.5zM294 562q-19 0 -32 12.5t-13 30.5v42q0 18 13 30.5t32 12.5q18 0 31.5 -12.5t13.5 -30.5v-42q0 -18 -13.5 -30.5t-31.5 -12.5z" />
    <glyph glyph-name="copyright" unicode="&#xa9;" horiz-adv-x="810" 
d="M637 127q-10 10 -10 24q0 12 7 22q55 74 55 167q0 118 -83.5 201t-200.5 83q-94 0 -167 -54q-11 -8 -23 -8q-13 0 -23 10q-9 9 -9 21q0 17 16 29q92 68 206 68q144 0 247 -102.5t103 -247.5q0 -114 -67 -207q-12 -15 -29 -15q-13 0 -22 9zM405 -10q-145 0 -247.5 102.5
t-102.5 247.5q0 113 67 206q12 16 30 16q12 0 20 -8q11 -11 11 -26q0 -11 -7 -21q-55 -74 -55 -167q0 -118 83 -201t201 -83q93 0 167 55q10 7 22 7q14 0 24 -10q10 -12 10 -22q0 -17 -16 -28q-92 -68 -207 -68zM256 365q-16 0 -27 11t-11 26q0 58 48 102.5t119 44.5h100
q14 0 24 -10t10 -25t-9.5 -25t-24.5 -10h-100q-38 0 -65 -25t-27 -52q0 -15 -11 -26t-26 -11zM385 131q-74 0 -120.5 47t-46.5 121v7q0 15 11 25.5t27 10.5q15 0 26 -10.5t11 -25.5v-7q0 -44 25.5 -71t66.5 -27h100q15 0 24.5 -10t9.5 -25t-10 -25t-24 -10h-100z" />
    <glyph glyph-name="ordfeminine" unicode="&#xaa;" horiz-adv-x="328" 
d="M266 385q-15 0 -23 10l-13 16q-15 19 -15 38v115q0 27 -13.5 42t-36.5 15h-69q-12 0 -20.5 8t-8.5 20q0 13 8 21t21 8h69q52 0 83.5 -31t31.5 -83v-122l8 -9q8 -9 8 -18q0 -13 -8.5 -21.5t-21.5 -8.5zM135 391q-42 0 -67.5 24.5t-25.5 65.5q0 43 24.5 66t68.5 23h33
q11 0 19.5 -8t8.5 -19t-8.5 -19t-19.5 -8h-27q-34 0 -34 -35q0 -33 34 -33h32q12 0 20.5 -8.5t8.5 -19.5q0 -12 -8.5 -20.5t-20.5 -8.5h-38z" />
    <glyph glyph-name="guillemotleft" unicode="&#xab;" horiz-adv-x="668" 
d="M314 64q-4 0 -12 2l-196 117q-51 31 -51 74t51 74l196 117q8 2 12 2q16 0 27.5 -11t11.5 -28q0 -23 -24 -37l-193 -117l193 -117q24 -14 24 -37q0 -17 -11.5 -28t-27.5 -11zM574 64q-4 0 -12 2l-196 117q-51 31 -51 74t51 74l196 117q8 2 12 2q16 0 27.5 -11t11.5 -28
q0 -23 -24 -37l-193 -117l193 -117q24 -14 24 -37q0 -17 -11.5 -28t-27.5 -11z" />
    <glyph glyph-name="logicalnot" unicode="&#xac;" horiz-adv-x="549" 
d="M454 77q-16 0 -27.5 11t-11.5 27v114h-334q-15 0 -25.5 11t-10.5 26q0 16 10.5 27t25.5 11h362q22 0 36.5 -14.5t14.5 -36.5v-138q0 -16 -11.5 -27t-28.5 -11z" />
    <glyph glyph-name="registered" unicode="&#xae;" horiz-adv-x="548" 
d="M422 334q-7 7 -7 16q0 7 5 15q31 47 31 101q0 74 -51.5 125.5t-125.5 51.5q-54 0 -101 -31q-8 -5 -15 -5q-9 0 -16 7t-7 16q0 11 11 20q58 40 128 40q92 0 158 -65.5t66 -158.5q0 -70 -40 -128q-9 -11 -20 -11q-9 0 -16 7zM274 242q-93 0 -158.5 65.5t-65.5 158.5
q0 69 40 127q8 12 20 12q8 0 14 -6q9 -9 9 -19q0 -6 -5 -14q-31 -43 -31 -100q0 -74 51.5 -125.5t125.5 -51.5q57 0 100 31q8 5 14 5q8 0 19 -9q6 -6 6 -15q0 -13 -12 -20q-56 -39 -127 -39zM207 492q-10 0 -17 6.5t-7 15.5v58q0 10 7 16.5t17 6.5q11 0 18 -6.5t7 -16.5v-58
q0 -9 -7.5 -15.5t-17.5 -6.5zM342 456q-10 0 -17 7.5t-7 17.5q0 8 5.5 18t5.5 18q0 35 -39 35h-17q-9 0 -16 6t-7 14q0 10 6.5 16.5t16.5 6.5h21q40 0 63 -22.5t23 -60.5q0 -25 -10 -40.5t-28 -15.5zM207 335q-11 0 -17.5 6t-6.5 16v94q0 10 7 16.5t17 6.5h72q20 0 31 -18
l57 -86q3 -4 3 -10q0 -9 -7.5 -17t-17.5 -8q-15 0 -21 10l-55 86h-37v-74q0 -9 -7.5 -15.5t-17.5 -6.5z" />
    <glyph glyph-name="macron" unicode="&#xaf;" horiz-adv-x="413" 
d="M84 583q-15 0 -24.5 10.5t-9.5 25.5t9.5 25.5t24.5 10.5h245q15 0 24.5 -10.5t9.5 -25.5t-9.5 -25.5t-24.5 -10.5h-245z" />
    <glyph glyph-name="degree" unicode="&#xb0;" horiz-adv-x="390" 
d="M279 470q-8 8 -8 20q0 9 3 16q7 16 7 31q0 34 -25.5 59t-61.5 25q-16 0 -34 -5q-8 -3 -14 -3q-13 0 -22 10.5t-9 23.5q0 19 19 27q25 11 61 11q61 0 105.5 -44.5t44.5 -105.5q0 -36 -12 -60q-9 -17 -26 -17q-16 0 -28 12zM246 394q-24 -9 -51 -9q-62 0 -106 44t-44 105
q0 27 8 51q10 30 31 30q13 0 22.5 -9t9.5 -23q0 -7 -3 -16q-4 -13 -4 -30q0 -38 24.5 -63t60.5 -25q14 0 27 5q8 4 17 4q15 0 25 -9.5t10 -22.5q0 -21 -27 -32z" />
    <glyph glyph-name="plusminus" unicode="&#xb1;" horiz-adv-x="497" 
d="M93 277q-16 0 -27 11.5t-11 27.5q0 17 11 28.5t27 11.5h116v116q0 16 11.5 27t27.5 11q17 0 28.5 -11t11.5 -27v-116h116q16 0 27 -11.5t11 -28.5q0 -16 -11 -27.5t-27 -11.5h-116v-106q0 -16 -11.5 -27t-28.5 -11q-16 0 -27.5 11t-11.5 27v106h-116zM404 102
q16 0 27 -11.5t11 -28.5q0 -16 -11 -27.5t-27 -11.5h-311q-16 0 -27 11.5t-11 27.5q0 17 11 28.5t27 11.5h311z" />
    <glyph glyph-name="uni00B2" unicode="&#xb2;" horiz-adv-x="328" 
d="M75 326q-14 0 -23.5 9.5t-9.5 22.5v26q0 22 17 39l128 118q20 22 20 44q0 20 -14.5 33.5t-35.5 13.5q-28 0 -60 -14q-6 -3 -14 -3q-11 0 -20 8.5t-9 23.5q0 18 20 27q35 16 84 16q74 0 105 -68q9 -20 9 -41q0 -48 -37 -82l-127 -115v-26q0 -13 -9.5 -22.5t-23.5 -9.5z
M163 328q-12 0 -20.5 8.5t-8.5 21.5t8.5 22t20.5 9h93q13 0 21.5 -9t8.5 -22t-8.5 -21.5t-21.5 -8.5h-93z" />
    <glyph glyph-name="uni00B3" unicode="&#xb3;" horiz-adv-x="309" 
d="M229 541q-13 0 -22.5 9t-9.5 22q0 31 -15 48q-12 12 -35 12q-21 0 -52 -11q-9 -3 -14 -3q-13 0 -21.5 8.5t-8.5 21.5q0 21 20 29q43 13 75 13q40 0 67.5 -19.5t38.5 -47.5q14 -37 5 -63q-7 -19 -28 -19zM153 323q-52 0 -93 19q-18 7 -18 28q0 13 8.5 22t21.5 9q6 0 12 -3
q35 -17 69 -17q22 0 35.5 14t13.5 37q0 46 -49 46h-38q-11 0 -19.5 8.5t-8.5 20.5q0 13 8 21.5t20 8.5h38q53 0 83.5 -29t30.5 -76t-32.5 -78t-81.5 -31z" />
    <glyph glyph-name="acute" unicode="&#xb4;" horiz-adv-x="255" 
d="M100 538q-20 0 -33 13q-12 12 -12 30q0 15 9 25l62 71q12 13 30 13q19 0 31 -13q13 -13 13 -29q0 -13 -11 -26l-62 -72q-9 -12 -27 -12z" />
    <glyph glyph-name="paragraph" unicode="&#xb6;" horiz-adv-x="605" 
d="M302 680q20 0 34 -13t14 -32v-600q0 -18 -14 -31.5t-34 -13.5q-19 0 -33 13.5t-14 31.5v235q-100 0 -155 55t-55 150q0 92 55.5 148.5t154.5 56.5h47zM492 680q20 0 34 -13t14 -32v-600q0 -18 -14 -31.5t-34 -13.5q-19 0 -33 13.5t-14 31.5v559h-24q-17 0 -29 12.5
t-12 30.5t12 30.5t29 12.5h71z" />
    <glyph glyph-name="periodcentered" unicode="&#xb7;" horiz-adv-x="200" 
d="M100 197q-19 0 -32 12.5t-13 29.5v43q0 18 13 30.5t32 12.5t32 -12.5t13 -30.5v-43q0 -17 -13 -29.5t-32 -12.5z" />
    <glyph glyph-name="cedilla" unicode="&#xb8;" horiz-adv-x="253" 
d="M127 -216q-13 -13 -29 -13q-19 0 -31 14q-12 13 -12 30q0 15 9 25l49 57v27q0 16 12.5 28t29.5 12q18 0 30.5 -11.5t12.5 -28.5v-41q0 -18 -9 -28z" />
    <glyph glyph-name="ordmasculine" unicode="&#xba;" horiz-adv-x="348" 
d="M75 539q-14 0 -23.5 8.5t-9.5 21.5q0 51 38 85t94 34q52 0 86 -25.5t41 -68.5q2 -14 -8 -24.5t-25 -10.5q-11 0 -20.5 6.5t-11.5 16.5q-5 27 -19 38t-43 11q-27 0 -46.5 -17.5t-19.5 -44.5q0 -13 -9.5 -21.5t-23.5 -8.5zM174 390q-52 0 -86 25.5t-41 68.5q-2 14 8 24.5
t25 10.5q11 0 20.5 -6.5t11.5 -16.5q5 -27 19 -38t43 -11q27 0 46.5 17.5t19.5 44.5q0 13 9.5 21.5t23.5 8.5t23.5 -8.5t9.5 -21.5q0 -51 -38 -85t-94 -34z" />
    <glyph glyph-name="guillemotright" unicode="&#xbb;" horiz-adv-x="668" 
d="M94 64q-16 0 -27.5 11t-11.5 28q0 23 24 37l198 117l-198 117q-24 14 -24 37q0 17 11.5 28t27.5 11q4 0 12 -2l196 -117q56 -34 56 -74t-56 -74l-196 -117q-8 -2 -12 -2zM354 64q-16 0 -27.5 11t-11.5 28q0 23 24 37l198 117l-198 117q-24 14 -24 37q0 17 11.5 28
t27.5 11q4 0 12 -2l196 -117q51 -31 51 -74t-51 -74l-196 -117q-8 -2 -12 -2z" />
    <glyph glyph-name="questiondown" unicode="&#xbf;" horiz-adv-x="432" 
d="M271 382q-19 0 -32 12.5t-13 30.5v42q0 18 13 30.5t32 12.5t32 -12.5t13 -30.5v-42q0 -18 -13 -30.5t-32 -12.5zM240 -180q-56 0 -96 16t-60.5 43t-29.5 55.5t-9 60.5q0 49 19 86t46.5 58.5t54.5 39.5t46 40.5t19 50.5q0 16 12 27t29 11t28.5 -11t11.5 -27
q0 -41 -18 -71.5t-43.5 -50l-50.5 -38.5t-43 -45.5t-18 -60.5q0 -98 122 -98h86q17 0 29 -13t12 -30q0 -18 -12 -30.5t-29 -12.5h-106z" />
    <glyph glyph-name="Agrave" unicode="&#xc0;" horiz-adv-x="620" 
d="M236 848q13 13 31 13t30 -13l62 -71q9 -11 9 -25q0 -18 -12 -30q-13 -13 -33 -13q-18 0 -27 12l-62 72q-11 13 -11 26q0 16 13 29zM183 278q-24 0 -39.5 18.5t-7.5 41.5l111 322q9 30 44 30q26 0 39.5 -20.5t6.5 -40.5l-112 -321q-9 -30 -42 -30zM437 278q-34 0 -43 30
l-64 184q-8 22 7 41.5t40 19.5q34 0 43 -30l63 -185q7 -24 -7.5 -42t-38.5 -18zM84 -10q-25 0 -39.5 20t-7.5 41l58 168q10 33 46 33h338q34 0 45 -33l59 -168q7 -22 -8 -41.5t-39 -19.5q-34 0 -43 30l-52 152h-262l-52 -152q-9 -30 -43 -30z" />
    <glyph glyph-name="Aacute" unicode="&#xc1;" horiz-adv-x="620" 
d="M439 848q13 -13 13 -29q0 -13 -11 -26l-62 -72q-9 -12 -27 -12q-20 0 -33 13q-12 12 -12 30q0 14 9 25l62 71q12 13 30 13t31 -13zM183 278q-24 0 -39.5 18.5t-7.5 41.5l111 322q9 30 44 30q26 0 39.5 -20.5t6.5 -40.5l-112 -321q-9 -30 -42 -30zM437 278q-34 0 -43 30
l-64 184q-8 22 7 41.5t40 19.5q34 0 43 -30l63 -185q7 -24 -7.5 -42t-38.5 -18zM84 -10q-25 0 -39.5 20t-7.5 41l58 168q10 33 46 33h338q34 0 45 -33l59 -168q7 -22 -8 -41.5t-39 -19.5q-34 0 -43 30l-52 152h-262l-52 -152q-9 -30 -43 -30z" />
    <glyph glyph-name="Acircumflex" unicode="&#xc2;" horiz-adv-x="620" 
d="M410 769q8 -10 8 -22q0 -16 -11 -27q-12 -12 -30 -12q-16 0 -24 11l-49 57l-49 -57q-8 -11 -24 -11q-18 0 -30 12q-11 11 -11 27q0 12 8 22l63 72q17 20 44 20q26 0 43 -20zM183 278q-24 0 -39.5 18.5t-7.5 41.5l111 322q9 30 44 30q26 0 39.5 -20.5t6.5 -40.5l-112 -321
q-9 -30 -42 -30zM437 278q-34 0 -43 30l-64 184q-8 22 7 41.5t40 19.5q34 0 43 -30l63 -185q7 -24 -7.5 -42t-38.5 -18zM84 -10q-25 0 -39.5 20t-7.5 41l58 168q10 33 46 33h338q34 0 45 -33l59 -168q7 -22 -8 -41.5t-39 -19.5q-34 0 -43 30l-52 152h-262l-52 -152
q-9 -30 -43 -30z" />
    <glyph glyph-name="Atilde" unicode="&#xc3;" horiz-adv-x="620" 
d="M433 860q16 0 26.5 -11.5t10.5 -24.5q0 -5 -2 -11q-13 -31 -39 -55.5t-64 -24.5q-36 0 -82 36q-25 20 -36 20q-22 0 -37 -34q-8 -22 -32 -22q-16 0 -26.5 11t-10.5 25q0 5 2 11q37 80 103 80q37 0 82 -36q25 -20 37 -20q21 0 36 35q8 21 32 21zM183 278q-24 0 -39.5 18.5
t-7.5 41.5l111 322q9 30 44 30q26 0 39.5 -20.5t6.5 -40.5l-112 -321q-9 -30 -42 -30zM437 278q-34 0 -43 30l-64 184q-8 22 7 41.5t40 19.5q34 0 43 -30l63 -185q7 -24 -7.5 -42t-38.5 -18zM84 -10q-25 0 -39.5 20t-7.5 41l58 168q10 33 46 33h338q34 0 45 -33l59 -168
q7 -22 -8 -41.5t-39 -19.5q-34 0 -43 30l-52 152h-262l-52 -152q-9 -30 -43 -30z" />
    <glyph glyph-name="Adieresis" unicode="&#xc4;" horiz-adv-x="620" 
d="M214 732q-19 0 -32 12.5t-13 30.5v43q0 17 13 29.5t32 12.5t32 -12.5t13 -29.5v-43q0 -18 -13 -30.5t-32 -12.5zM407 732q-19 0 -32 12.5t-13 30.5v43q0 17 13 29.5t32 12.5t32 -12.5t13 -29.5v-43q0 -18 -13 -30.5t-32 -12.5zM183 278q-24 0 -39.5 18.5t-7.5 41.5
l111 322q9 30 44 30q26 0 39.5 -20.5t6.5 -40.5l-112 -321q-9 -30 -42 -30zM437 278q-34 0 -43 30l-64 184q-8 22 7 41.5t40 19.5q34 0 43 -30l63 -185q7 -24 -7.5 -42t-38.5 -18zM84 -10q-25 0 -39.5 20t-7.5 41l58 168q10 33 46 33h338q34 0 45 -33l59 -168
q7 -22 -8 -41.5t-39 -19.5q-34 0 -43 30l-52 152h-262l-52 -152q-9 -30 -43 -30z" />
    <glyph glyph-name="Aring" unicode="&#xc5;" horiz-adv-x="620" 
d="M269 798q-9 0 -16 7t-7 17q0 7 4 13q22 40 73 40t73 -40q4 -6 4 -13q0 -10 -7 -17t-16 -7q-15 0 -22 13q-9 20 -32 20t-32 -20q-7 -13 -22 -13zM323 710q-51 0 -73 40q-4 6 -4 13q0 10 7 17t16 7q15 0 22 -13q9 -20 32 -20t32 20q7 13 22 13q9 0 16 -7t7 -17q0 -7 -4 -13
q-22 -40 -73 -40zM183 278q-24 0 -39.5 18.5t-7.5 41.5l111 322q9 30 44 30q26 0 39.5 -20.5t6.5 -40.5l-112 -321q-9 -30 -42 -30zM437 278q-34 0 -43 30l-64 184q-8 22 7 41.5t40 19.5q34 0 43 -30l63 -185q7 -24 -7.5 -42t-38.5 -18zM84 -10q-25 0 -39.5 20t-7.5 41
l58 168q10 33 46 33h338q34 0 45 -33l59 -168q7 -22 -8 -41.5t-39 -19.5q-34 0 -43 30l-52 152h-262l-52 -152q-9 -30 -43 -30z" />
    <glyph glyph-name="AE" unicode="&#xc6;" horiz-adv-x="910" 
d="M404 680q16 0 27 -11.5t11 -28.5t-11 -28.5t-27 -11.5h-51l-113 -292q-9 -30 -42 -30q-24 0 -39.5 18.5t-7.5 41.5l119 312q11 30 44 30h90zM518 423q-20 0 -34 13t-14 32v167q0 19 14 32t34 13h301q17 0 29 -12.5t12 -30.5t-12 -30.5t-29 -12.5h-254v-126
q0 -19 -13.5 -32t-33.5 -13zM819 86q17 0 29 -12.5t12 -30.5t-12 -30.5t-29 -12.5h-301q-20 0 -34 13t-14 32v305q0 19 14 32t34 13h235q17 0 29 -12.5t12 -30.5t-12 -30.5t-29 -12.5h-188v-223h254zM404 252q16 0 27 -11.5t11 -28.5t-11 -28.5t-27 -11.5h-217l-59 -152
q-12 -30 -43 -30q-26 0 -40.5 20t-6.5 41l65 168q10 33 46 33h255z" />
    <glyph glyph-name="Ccedilla" unicode="&#xc7;" horiz-adv-x="576" 
d="M103 369q-20 0 -34 13.5t-14 32.5q0 117 75.5 191t193.5 74h171q17 0 29 -12.5t12 -30.5t-12 -30.5t-29 -12.5h-171q-77 0 -125.5 -50.5t-48.5 -128.5q0 -19 -14 -32.5t-33 -13.5zM324 0q-118 0 -193.5 75t-75.5 194v29q0 19 14 32t34 13t33.5 -13t13.5 -32v-29
q0 -80 47.5 -131.5t126.5 -51.5h171q17 0 29 -12.5t12 -30.5t-12 -30.5t-29 -12.5h-171zM300 -216q-13 -13 -29 -13q-19 0 -31 14q-12 13 -12 30q0 15 9 25l49 57v27q0 16 12.5 28t29.5 12q18 0 30.5 -11.5t12.5 -28.5v-41q0 -18 -9 -28z" />
    <glyph glyph-name="Egrave" unicode="&#xc8;" horiz-adv-x="555" 
d="M184 848q13 13 31 13t30 -13l62 -71q9 -11 9 -25q0 -18 -12 -30q-13 -13 -33 -13q-18 0 -27 12l-62 72q-11 13 -11 26q0 16 13 29zM113 423q-20 0 -34 13t-14 32v167q0 19 14 32t34 13h351q17 0 29 -12.5t12 -30.5t-12 -30.5t-29 -12.5h-304v-126q0 -19 -13.5 -32
t-33.5 -13zM113 0q-20 0 -34 13t-14 32v305q0 19 14 32t34 13h285q17 0 29 -12.5t12 -30.5t-12 -30.5t-29 -12.5h-238v-223h304q17 0 29 -12.5t12 -30.5t-12 -30.5t-29 -12.5h-351z" />
    <glyph glyph-name="Eacute" unicode="&#xc9;" horiz-adv-x="555" 
d="M368 848q13 -13 13 -29q0 -13 -11 -26l-62 -72q-9 -12 -27 -12q-20 0 -33 13q-12 12 -12 30q0 14 9 25l62 71q12 13 30 13t31 -13zM113 423q-20 0 -34 13t-14 32v167q0 19 14 32t34 13h351q17 0 29 -12.5t12 -30.5t-12 -30.5t-29 -12.5h-304v-126q0 -19 -13.5 -32
t-33.5 -13zM113 0q-20 0 -34 13t-14 32v305q0 19 14 32t34 13h285q17 0 29 -12.5t12 -30.5t-12 -30.5t-29 -12.5h-238v-223h304q17 0 29 -12.5t12 -30.5t-12 -30.5t-29 -12.5h-351z" />
    <glyph glyph-name="Ecircumflex" unicode="&#xca;" horiz-adv-x="555" 
d="M398 769q8 -10 8 -22q0 -16 -11 -27q-12 -12 -30 -12q-16 0 -24 11l-49 57l-49 -57q-8 -11 -24 -11q-18 0 -30 12q-11 11 -11 27q0 12 8 22l63 72q17 20 44 20q26 0 43 -20zM113 423q-20 0 -34 13t-14 32v167q0 19 14 32t34 13h351q17 0 29 -12.5t12 -30.5t-12 -30.5
t-29 -12.5h-304v-126q0 -19 -13.5 -32t-33.5 -13zM113 0q-20 0 -34 13t-14 32v305q0 19 14 32t34 13h285q17 0 29 -12.5t12 -30.5t-12 -30.5t-29 -12.5h-238v-223h304q17 0 29 -12.5t12 -30.5t-12 -30.5t-29 -12.5h-351z" />
    <glyph glyph-name="Edieresis" unicode="&#xcb;" horiz-adv-x="555" 
d="M195 732q-19 0 -32 12.5t-13 30.5v43q0 17 13 29.5t32 12.5t32 -12.5t13 -29.5v-43q0 -18 -13 -30.5t-32 -12.5zM388 732q-19 0 -32 12.5t-13 30.5v43q0 17 13 29.5t32 12.5t32 -12.5t13 -29.5v-43q0 -18 -13 -30.5t-32 -12.5zM113 423q-20 0 -34 13t-14 32v167
q0 19 14 32t34 13h351q17 0 29 -12.5t12 -30.5t-12 -30.5t-29 -12.5h-304v-126q0 -19 -13.5 -32t-33.5 -13zM113 0q-20 0 -34 13t-14 32v305q0 19 14 32t34 13h285q17 0 29 -12.5t12 -30.5t-12 -30.5t-29 -12.5h-238v-223h304q17 0 29 -12.5t12 -30.5t-12 -30.5t-29 -12.5
h-351z" />
    <glyph glyph-name="Igrave" unicode="&#xcc;" horiz-adv-x="225" 
d="M17 848q13 13 31 13t30 -13l62 -71q9 -11 9 -25q0 -18 -12 -30q-13 -13 -33 -13q-18 0 -27 12l-62 72q-11 13 -11 26q0 16 13 29zM113 690q20 0 33.5 -13t13.5 -32v-610q0 -19 -13.5 -32t-33.5 -13t-34 13t-14 32v610q0 19 14 32t34 13z" />
    <glyph glyph-name="Iacute" unicode="&#xcd;" horiz-adv-x="225" 
d="M207 848q13 -13 13 -29q0 -13 -11 -26l-62 -72q-9 -12 -27 -12q-20 0 -33 13q-12 12 -12 30q0 14 9 25l62 71q12 13 30 13t31 -13zM113 690q20 0 33.5 -13t13.5 -32v-610q0 -19 -13.5 -32t-33.5 -13t-34 13t-14 32v610q0 19 14 32t34 13z" />
    <glyph glyph-name="Icircumflex" unicode="&#xce;" horiz-adv-x="224" 
d="M218 769q8 -10 8 -22q0 -16 -11 -27q-12 -12 -30 -12q-16 0 -24 11l-49 57l-49 -57q-8 -11 -24 -11q-18 0 -30 12q-11 11 -11 27q0 12 8 22l63 72q17 20 44 20q26 0 43 -20zM113 690q20 0 33.5 -13t13.5 -32v-610q0 -19 -13.5 -32t-33.5 -13t-34 13t-14 32v610
q0 19 14 32t34 13z" />
    <glyph glyph-name="Idieresis" unicode="&#xcf;" horiz-adv-x="233" 
d="M20 732q-19 0 -32 12.5t-13 30.5v43q0 17 13 29.5t32 12.5t32 -12.5t13 -29.5v-43q0 -18 -13 -30.5t-32 -12.5zM213 732q-19 0 -32 12.5t-13 30.5v43q0 17 13 29.5t32 12.5t32 -12.5t13 -29.5v-43q0 -18 -13 -30.5t-32 -12.5zM113 690q20 0 33.5 -13t13.5 -32v-610
q0 -19 -13.5 -32t-33.5 -13t-34 13t-14 32v610q0 19 14 32t34 13z" />
    <glyph glyph-name="Ntilde" unicode="&#xd1;" horiz-adv-x="651" 
d="M465 860q16 0 26.5 -11.5t10.5 -24.5q0 -5 -2 -11q-13 -31 -39 -55.5t-64 -24.5q-36 0 -82 36q-25 20 -36 20q-22 0 -37 -34q-8 -22 -32 -22q-16 0 -26.5 11t-10.5 25q0 5 2 11q37 80 103 80q37 0 82 -36q25 -20 37 -20q21 0 36 35q8 21 32 21zM110 -10q-19 0 -32.5 13
t-13.5 32v600q0 23 18.5 39t43.5 16q36 0 52 -28l321 -571h33q19 0 32 -13.5t13 -33.5q0 -19 -13 -31.5t-32 -12.5h-44q-44 0 -66 39l-265 483v-487q0 -19 -13.5 -32t-33.5 -13zM541 126q-20 0 -33.5 12.5t-13.5 31.5v476q0 18 14 31t33 13t32.5 -13t13.5 -31v-476
q0 -19 -13 -31.5t-33 -12.5z" />
    <glyph glyph-name="Ograve" unicode="&#xd2;" horiz-adv-x="685" 
d="M246 848q13 13 31 13t30 -13l62 -71q9 -11 9 -25q0 -18 -12 -30q-13 -13 -33 -13q-18 0 -27 12l-62 72q-11 13 -11 26q0 16 13 29zM103 306q-20 0 -34 13.5t-14 32.5v52q0 118 84.5 202t203.5 84q114 0 196.5 -69t86.5 -174q1 -18 -13 -32t-35 -14q-17 0 -30.5 12
t-15.5 28q-10 72 -62 117.5t-127 45.5q-79 0 -136 -60t-57 -140v-52q0 -19 -14 -32.5t-33 -13.5zM343 -10q-114 0 -193 65.5t-91 177.5q-2 18 13 32t35 14q17 0 30 -10t16 -26q13 -76 60 -121.5t130 -45.5q79 0 135.5 60t56.5 140v52q0 19 14 32.5t34 13.5q19 0 33 -13.5
t14 -32.5v-52q0 -118 -84 -202t-203 -84z" />
    <glyph glyph-name="Oacute" unicode="&#xd3;" horiz-adv-x="685" 
d="M444 848q13 -13 13 -29q0 -13 -11 -26l-62 -72q-9 -12 -27 -12q-20 0 -33 13q-12 12 -12 30q0 14 9 25l62 71q12 13 30 13t31 -13zM103 306q-20 0 -34 13.5t-14 32.5v52q0 118 84.5 202t203.5 84q114 0 196.5 -69t86.5 -174q1 -18 -13 -32t-35 -14q-17 0 -30.5 12
t-15.5 28q-10 72 -62 117.5t-127 45.5q-79 0 -136 -60t-57 -140v-52q0 -19 -14 -32.5t-33 -13.5zM343 -10q-114 0 -193 65.5t-91 177.5q-2 18 13 32t35 14q17 0 30 -10t16 -26q13 -76 60 -121.5t130 -45.5q79 0 135.5 60t56.5 140v52q0 19 14 32.5t34 13.5q19 0 33 -13.5
t14 -32.5v-52q0 -118 -84 -202t-203 -84z" />
    <glyph glyph-name="Ocircumflex" unicode="&#xd4;" horiz-adv-x="685" 
d="M450 769q8 -10 8 -22q0 -16 -11 -27q-12 -12 -30 -12q-16 0 -24 11l-49 57l-49 -57q-8 -11 -24 -11q-18 0 -30 12q-11 11 -11 27q0 12 8 22l63 72q17 20 44 20q26 0 43 -20zM103 306q-20 0 -34 13.5t-14 32.5v52q0 118 84.5 202t203.5 84q114 0 196.5 -69t86.5 -174
q1 -18 -13 -32t-35 -14q-17 0 -30.5 12t-15.5 28q-10 72 -62 117.5t-127 45.5q-79 0 -136 -60t-57 -140v-52q0 -19 -14 -32.5t-33 -13.5zM343 -10q-114 0 -193 65.5t-91 177.5q-2 18 13 32t35 14q17 0 30 -10t16 -26q13 -76 60 -121.5t130 -45.5q79 0 135.5 60t56.5 140v52
q0 19 14 32.5t34 13.5q19 0 33 -13.5t14 -32.5v-52q0 -118 -84 -202t-203 -84z" />
    <glyph glyph-name="Otilde" unicode="&#xd5;" horiz-adv-x="685" 
d="M470 860q16 0 26.5 -11.5t10.5 -24.5q0 -5 -2 -11q-13 -31 -39 -55.5t-64 -24.5q-36 0 -82 36q-25 20 -36 20q-22 0 -37 -34q-8 -22 -32 -22q-17 0 -27 11t-10 25q0 5 2 11q37 80 103 80q37 0 82 -36q25 -20 37 -20q21 0 36 35q8 21 32 21zM103 306q-20 0 -34 13.5
t-14 32.5v52q0 118 84.5 202t203.5 84q114 0 196.5 -69t86.5 -174q1 -18 -13 -32t-35 -14q-17 0 -30.5 12t-15.5 28q-10 72 -62 117.5t-127 45.5q-79 0 -136 -60t-57 -140v-52q0 -19 -14 -32.5t-33 -13.5zM343 -10q-114 0 -193 65.5t-91 177.5q-2 18 13 32t35 14
q17 0 30 -10t16 -26q13 -76 60 -121.5t130 -45.5q79 0 135.5 60t56.5 140v52q0 19 14 32.5t34 13.5q19 0 33 -13.5t14 -32.5v-52q0 -118 -84 -202t-203 -84z" />
    <glyph glyph-name="Odieresis" unicode="&#xd6;" horiz-adv-x="685" 
d="M246 732q-19 0 -32 12.5t-13 30.5v43q0 17 13 29.5t32 12.5t32 -12.5t13 -29.5v-43q0 -18 -13 -30.5t-32 -12.5zM439 732q-19 0 -32 12.5t-13 30.5v43q0 17 13 29.5t32 12.5t32 -12.5t13 -29.5v-43q0 -18 -13 -30.5t-32 -12.5zM103 306q-20 0 -34 13.5t-14 32.5v52
q0 118 84.5 202t203.5 84q114 0 196.5 -69t86.5 -174q1 -18 -13 -32t-35 -14q-17 0 -30.5 12t-15.5 28q-10 72 -62 117.5t-127 45.5q-79 0 -136 -60t-57 -140v-52q0 -19 -14 -32.5t-33 -13.5zM343 -10q-114 0 -193 65.5t-91 177.5q-2 18 13 32t35 14q17 0 30 -10t16 -26
q13 -76 60 -121.5t130 -45.5q79 0 135.5 60t56.5 140v52q0 19 14 32.5t34 13.5q19 0 33 -13.5t14 -32.5v-52q0 -118 -84 -202t-203 -84z" />
    <glyph glyph-name="multiply" unicode="&#xd7;" horiz-adv-x="449" 
d="M281 265l103 -104q11 -11 10.5 -27t-12.5 -28q-11 -11 -27 -11.5t-27 10.5l-103 104l-104 -104q-11 -11 -27 -10.5t-28 12.5q-11 11 -11.5 27t10.5 27l104 104l-104 103q-11 11 -10.5 27t11.5 27q12 12 28 12.5t27 -10.5l104 -103l103 103q11 11 27 10.5t27 -11.5
q12 -12 12.5 -28t-10.5 -27z" />
    <glyph glyph-name="Oslash" unicode="&#xd8;" horiz-adv-x="685" 
d="M645 717q14 -11 14 -30q0 -15 -9 -25l-70 -84q43 -59 46 -131q1 -18 -13 -32t-35 -14q-17 0 -30.5 12t-15.5 28q-10 72 -62 117.5t-127 45.5q-79 0 -136 -60t-57 -140v-52q0 -19 -14 -32.5t-33 -13.5q-20 0 -34 13.5t-14 32.5v52q0 118 84.5 202t203.5 84q103 0 179 -56
l67 80q10 13 29 13q16 0 27 -10zM229 182q-16 0 -26 10q-14 12 -14 31q0 14 8 24l219 262q10 13 29 13q16 0 27 -10q14 -11 14 -30q0 -14 -9 -25l-218 -261q-11 -14 -30 -14zM583 374q19 0 33 -13.5t14 -32.5v-52q0 -118 -84 -202t-203 -84q-120 0 -199 70l-65 -78
q-11 -14 -30 -14q-16 0 -26 10q-14 12 -14 31q0 14 8 24l76 91q-28 50 -34 109q-2 18 13 32t35 14q17 0 30 -10t16 -26q13 -76 60 -121.5t130 -45.5q79 0 135.5 60t56.5 140v52q0 19 14 32.5t34 13.5z" />
    <glyph glyph-name="Ugrave" unicode="&#xd9;" horiz-adv-x="640" 
d="M222 848q13 13 31 13t30 -13l62 -71q9 -11 9 -25q0 -18 -12 -30q-13 -13 -33 -13q-18 0 -27 12l-62 72q-11 13 -11 26q0 16 13 29zM321 -10q-107 0 -181 71t-74 174v410q0 19 14 32t34 13t33.5 -13t13.5 -32v-410q0 -65 46.5 -112t113.5 -47q90 0 136 76q13 19 36 19
q18 0 33.5 -14.5t15.5 -32.5q0 -13 -8 -24q-36 -53 -92.5 -81.5t-120.5 -28.5zM529 194q-20 0 -34 13t-14 32v406q0 19 14 32t34 13t33.5 -13t13.5 -32v-406q0 -19 -13.5 -32t-33.5 -13z" />
    <glyph glyph-name="Uacute" unicode="&#xda;" horiz-adv-x="640" 
d="M419 848q13 -13 13 -29q0 -13 -11 -26l-62 -72q-9 -12 -27 -12q-20 0 -33 13q-12 12 -12 30q0 14 9 25l62 71q12 13 30 13t31 -13zM321 -10q-107 0 -181 71t-74 174v410q0 19 14 32t34 13t33.5 -13t13.5 -32v-410q0 -65 46.5 -112t113.5 -47q90 0 136 76q13 19 36 19
q18 0 33.5 -14.5t15.5 -32.5q0 -13 -8 -24q-36 -53 -92.5 -81.5t-120.5 -28.5zM529 194q-20 0 -34 13t-14 32v406q0 19 14 32t34 13t33.5 -13t13.5 -32v-406q0 -19 -13.5 -32t-33.5 -13z" />
    <glyph glyph-name="Ucircumflex" unicode="&#xdb;" horiz-adv-x="640" 
d="M430 767q8 -10 8 -22q0 -16 -11 -27q-12 -12 -30 -12q-16 0 -24 11l-49 57l-49 -57q-8 -11 -24 -11q-18 0 -30 12q-11 11 -11 27q0 12 8 22l63 72q17 20 44 20q26 0 43 -20zM321 -10q-107 0 -181 71t-74 174v410q0 19 14 32t34 13t33.5 -13t13.5 -32v-410
q0 -65 46.5 -112t113.5 -47q90 0 136 76q13 19 36 19q18 0 33.5 -14.5t15.5 -32.5q0 -13 -8 -24q-36 -53 -92.5 -81.5t-120.5 -28.5zM529 194q-20 0 -34 13t-14 32v406q0 19 14 32t34 13t33.5 -13t13.5 -32v-406q0 -19 -13.5 -32t-33.5 -13z" />
    <glyph glyph-name="Udieresis" unicode="&#xdc;" horiz-adv-x="640" 
d="M224 732q-19 0 -32 12.5t-13 30.5v43q0 17 13 29.5t32 12.5t32 -12.5t13 -29.5v-43q0 -18 -13 -30.5t-32 -12.5zM417 732q-19 0 -32 12.5t-13 30.5v43q0 17 13 29.5t32 12.5t32 -12.5t13 -29.5v-43q0 -18 -13 -30.5t-32 -12.5zM321 -10q-107 0 -181 71t-74 174v410
q0 19 14 32t34 13t33.5 -13t13.5 -32v-410q0 -65 46.5 -112t113.5 -47q90 0 136 76q13 19 36 19q18 0 33.5 -14.5t15.5 -32.5q0 -13 -8 -24q-36 -53 -92.5 -81.5t-120.5 -28.5zM529 194q-20 0 -34 13t-14 32v406q0 19 14 32t34 13t33.5 -13t13.5 -32v-406q0 -19 -13.5 -32
t-33.5 -13z" />
    <glyph glyph-name="Yacute" unicode="&#xdd;" horiz-adv-x="570" 
d="M386 848q13 -13 13 -29q0 -13 -11 -26l-62 -72q-9 -12 -27 -12q-20 0 -33 13q-12 12 -12 30q0 14 9 25l62 71q12 13 30 13t31 -13zM285 -10q-20 0 -34 13t-14 32v205l-197 384q-5 10 -5 20q0 18 14 32t34 14q27 0 40 -24l194 -375q15 -30 15 -68v-188q0 -19 -13.5 -32
t-33.5 -13zM353 335q-21 0 -34.5 14.5t-13.5 32.5q0 10 5 20l137 264q13 24 40 24q21 0 34.5 -14.5t13.5 -31.5q0 -10 -5 -20q0 1 -5 -8.5l-14 -27.5l-20.5 -40l-25 -48.5l-26 -51l-25 -49t-21.5 -40.5q-13 -24 -40 -24z" />
    <glyph glyph-name="Thorn" unicode="&#xde;" horiz-adv-x="600" 
d="M113 250q-20 0 -34 13.5t-14 31.5v350q0 19 14 32t34 13t33.5 -13t13.5 -32v-350q0 -18 -14 -31.5t-33 -13.5zM113 -10q-20 0 -34 13t-14 32v143q0 19 14 32t34 13h222q122 0 122 119q0 57 -32.5 88t-89.5 31h-108q-17 0 -29 12.5t-12 30.5t12 30.5t29 12.5h118
q99 0 154.5 -56.5t55.5 -148.5q0 -95 -55 -150t-155 -55h-185v-102q0 -19 -13.5 -32t-33.5 -13z" />
    <glyph glyph-name="agrave" unicode="&#xe0;" horiz-adv-x="506" 
d="M182 677q12 13 31 13q18 0 30 -13l62 -71q9 -10 9 -25q0 -18 -12 -30q-13 -13 -33 -13q-18 0 -27 12l-62 72q-11 13 -11 26q0 16 13 29zM405 3l-25 29q-23 26 -23 62v210q0 52 -28 83.5t-78 31.5h-124q-16 0 -27.5 11.5t-11.5 28.5t11.5 29t27.5 12h124q89 0 142.5 -53.5
t53.5 -142.5v-225l20 -23q9 -10 9 -24q0 -19 -12.5 -30.5t-28.5 -11.5q-18 0 -30 13zM198 0q-71 0 -113.5 41.5t-42.5 110.5q0 72 39 112t117 40h94q15 0 25.5 -11t10.5 -27t-10.5 -27t-25.5 -11h-94q-66 0 -66 -76q0 -71 66 -71h104q16 0 27 -11.5t11 -28.5t-11 -29
t-27 -12h-104z" />
    <glyph glyph-name="aacute" unicode="&#xe1;" horiz-adv-x="506" 
d="M277 538q-20 0 -33 13q-12 12 -12 30q0 15 9 25l62 71q12 13 30 13q19 0 31 -13q13 -13 13 -29q0 -13 -11 -26l-62 -72q-9 -12 -27 -12zM405 3l-25 29q-23 26 -23 62v210q0 52 -28 83.5t-78 31.5h-124q-16 0 -27.5 11.5t-11.5 28.5t11.5 29t27.5 12h124q89 0 142.5 -53.5
t53.5 -142.5v-225l20 -23q9 -10 9 -24q0 -19 -12.5 -30.5t-28.5 -11.5q-18 0 -30 13zM198 0q-71 0 -113.5 41.5t-42.5 110.5q0 72 39 112t117 40h94q15 0 25.5 -11t10.5 -27t-10.5 -27t-25.5 -11h-94q-66 0 -66 -76q0 -71 66 -71h104q16 0 27 -11.5t11 -28.5t-11 -29
t-27 -12h-104z" />
    <glyph glyph-name="acircumflex" unicode="&#xe2;" horiz-adv-x="506" 
d="M385 598q8 -10 8 -22q0 -16 -11 -27q-12 -12 -30 -12q-16 0 -24 11l-49 57l-49 -57q-8 -11 -24 -11q-18 0 -30 12q-11 11 -11 27q0 12 8 22l63 72q17 20 44 20q26 0 43 -20zM405 3l-25 29q-23 26 -23 62v210q0 52 -28 83.5t-78 31.5h-124q-16 0 -27.5 11.5t-11.5 28.5
t11.5 29t27.5 12h124q89 0 142.5 -53.5t53.5 -142.5v-225l20 -23q9 -10 9 -24q0 -19 -12.5 -30.5t-28.5 -11.5q-18 0 -30 13zM198 0q-71 0 -113.5 41.5t-42.5 110.5q0 72 39 112t117 40h94q15 0 25.5 -11t10.5 -27t-10.5 -27t-25.5 -11h-94q-66 0 -66 -76q0 -71 66 -71h104
q16 0 27 -11.5t11 -28.5t-11 -29t-27 -12h-104z" />
    <glyph glyph-name="atilde" unicode="&#xe3;" horiz-adv-x="506" 
d="M395 690q16 0 26.5 -11.5t10.5 -24.5q0 -5 -2 -11q-13 -31 -39 -55.5t-64 -24.5q-36 0 -82 36q-25 20 -36 20q-22 0 -37 -34q-8 -22 -32 -22q-16 0 -26.5 11t-10.5 25q0 5 2 11q37 80 103 80q37 0 82 -36q25 -20 37 -20q21 0 36 35q8 21 32 21zM405 3l-25 29
q-23 26 -23 62v210q0 52 -28 83.5t-78 31.5h-124q-16 0 -27.5 11.5t-11.5 28.5t11.5 29t27.5 12h124q89 0 142.5 -53.5t53.5 -142.5v-225l20 -23q9 -10 9 -24q0 -19 -12.5 -30.5t-28.5 -11.5q-18 0 -30 13zM198 0q-71 0 -113.5 41.5t-42.5 110.5q0 72 39 112t117 40h94
q15 0 25.5 -11t10.5 -27t-10.5 -27t-25.5 -11h-94q-66 0 -66 -76q0 -71 66 -71h104q16 0 27 -11.5t11 -28.5t-11 -29t-27 -12h-104z" />
    <glyph glyph-name="adieresis" unicode="&#xe4;" horiz-adv-x="506" 
d="M179 562q-19 0 -32 12.5t-13 30.5v42q0 18 13 30.5t32 12.5t32 -12.5t13 -30.5v-42q0 -18 -13 -30.5t-32 -12.5zM373 562q-19 0 -32 12.5t-13 30.5v42q0 18 13 30.5t32 12.5q18 0 31.5 -12.5t13.5 -30.5v-42q0 -18 -13.5 -30.5t-31.5 -12.5zM405 3l-25 29q-23 26 -23 62
v210q0 52 -28 83.5t-78 31.5h-124q-16 0 -27.5 11.5t-11.5 28.5t11.5 29t27.5 12h124q89 0 142.5 -53.5t53.5 -142.5v-225l20 -23q9 -10 9 -24q0 -19 -12.5 -30.5t-28.5 -11.5q-18 0 -30 13zM198 0q-71 0 -113.5 41.5t-42.5 110.5q0 72 39 112t117 40h94q15 0 25.5 -11
t10.5 -27t-10.5 -27t-25.5 -11h-94q-66 0 -66 -76q0 -71 66 -71h104q16 0 27 -11.5t11 -28.5t-11 -29t-27 -12h-104z" />
    <glyph glyph-name="aring" unicode="&#xe5;" horiz-adv-x="506" 
d="M218 618q-9 0 -16 7t-7 17q0 7 4 13q22 40 73 40t73 -40q4 -6 4 -13q0 -10 -7 -17t-16 -7q-16 0 -22 13q-9 20 -32 20t-32 -20q-6 -13 -22 -13zM272 530q-51 0 -73 40q-4 6 -4 13q0 10 7 17t16 7q16 0 22 -13q9 -20 32 -20t32 20q6 13 22 13q9 0 16 -7t7 -17q0 -7 -4 -13
q-22 -40 -73 -40zM405 3l-25 29q-23 26 -23 62v210q0 52 -28 83.5t-78 31.5h-124q-16 0 -27.5 11.5t-11.5 28.5t11.5 29t27.5 12h124q89 0 142.5 -53.5t53.5 -142.5v-225l20 -23q9 -10 9 -24q0 -19 -12.5 -30.5t-28.5 -11.5q-18 0 -30 13zM198 0q-71 0 -113.5 41.5
t-42.5 110.5q0 72 39 112t117 40h94q15 0 25.5 -11t10.5 -27t-10.5 -27t-25.5 -11h-94q-66 0 -66 -76q0 -71 66 -71h104q16 0 27 -11.5t11 -28.5t-11 -29t-27 -12h-104z" />
    <glyph glyph-name="ae" unicode="&#xe6;" horiz-adv-x="830" 
d="M581 0q-93 0 -158.5 61t-65.5 146v97q0 52 -28 83.5t-78 31.5h-124q-16 0 -27.5 11.5t-11.5 28.5t11.5 29t27.5 12h124q49 0 94.5 -23t59.5 -53q19 34 69.5 60t101.5 26q96 0 158 -56.5t62 -148.5q0 -77 -71 -77h-213q-15 0 -25.5 11t-10.5 27t10.5 27t25.5 11h194
q0 54 -36 89.5t-94 35.5q-50 0 -89.5 -36t-39.5 -88v-98q0 -51 42 -88.5t92 -37.5h54l33 29q10 9 25 9q18 0 30 -13.5t12 -29.5q0 -17 -12 -27l-30 -26q-26 -23 -63 -23h-49zM198 0q-71 0 -113.5 41.5t-42.5 110.5q0 72 39 112t117 40h94q15 0 25.5 -11t10.5 -27t-10.5 -27
t-25.5 -11h-94q-66 0 -66 -76q0 -71 66 -71h93l16 13q11 9 25 9q18 0 30 -13.5t12 -29.5t-12 -27l-13 -10q-29 -23 -63 -23h-88z" />
    <glyph glyph-name="ccedilla" unicode="&#xe7;" horiz-adv-x="441" 
d="M93 277q-21 0 -34.5 14t-11.5 33l1 7q14 73 71 121t132 48h126q16 0 27.5 -12t11.5 -29t-11.5 -28.5t-27.5 -11.5h-126q-42 0 -74.5 -31t-40.5 -74q-1 -16 -14 -26.5t-29 -10.5zM251 0q-85 0 -145.5 61t-60.5 147q0 17 13 29.5t32 12.5q18 0 31.5 -12.5t13.5 -29.5
q0 -50 34.5 -88.5t81.5 -38.5h126q16 0 27.5 -11.5t11.5 -28.5t-11.5 -29t-27.5 -12h-126zM225 -216q-13 -13 -29 -13q-19 0 -31 14q-12 13 -12 30q0 15 9 25l49 57v27q0 16 12.5 28t29.5 12q18 0 30.5 -11.5t12.5 -28.5v-41q0 -18 -9 -28z" />
    <glyph glyph-name="egrave" unicode="&#xe8;" 
d="M197 677q12 13 31 13q18 0 30 -13l62 -71q9 -10 9 -25q0 -18 -12 -30q-13 -13 -33 -13q-18 0 -27 12l-62 72q-11 13 -11 26q0 16 13 29zM271 0q-93 0 -158.5 61t-65.5 146v98q0 85 65.5 145t158.5 60q103 0 164 -56t61 -149q0 -77 -71 -77h-223q-15 0 -25.5 11t-10.5 27
t10.5 27t25.5 11h204q0 55 -35 90t-100 35q-50 0 -92 -36.5t-42 -87.5v-98q0 -51 42 -88.5t92 -37.5h64l33 29q11 9 25 9q18 0 30 -13.5t12 -29.5q0 -17 -12 -27l-30 -26q-26 -23 -63 -23h-59z" />
    <glyph glyph-name="eacute" unicode="&#xe9;" 
d="M280 538q-20 0 -33 13q-12 12 -12 30q0 15 9 25l62 71q12 13 30 13q19 0 31 -13q13 -13 13 -29q0 -13 -11 -26l-62 -72q-9 -12 -27 -12zM271 0q-93 0 -158.5 61t-65.5 146v98q0 85 65.5 145t158.5 60q103 0 164 -56t61 -149q0 -77 -71 -77h-223q-15 0 -25.5 11t-10.5 27
t10.5 27t25.5 11h204q0 55 -35 90t-100 35q-50 0 -92 -36.5t-42 -87.5v-98q0 -51 42 -88.5t92 -37.5h64l33 29q11 9 25 9q18 0 30 -13.5t12 -29.5q0 -17 -12 -27l-30 -26q-26 -23 -63 -23h-59z" />
    <glyph glyph-name="ecircumflex" unicode="&#xea;" 
d="M384 598q8 -10 8 -22q0 -16 -11 -27q-12 -12 -30 -12q-16 0 -24 11l-49 57l-49 -57q-8 -11 -24 -11q-18 0 -30 12q-11 11 -11 27q0 12 8 22l63 72q17 20 44 20q26 0 43 -20zM271 0q-93 0 -158.5 61t-65.5 146v98q0 85 65.5 145t158.5 60q103 0 164 -56t61 -149
q0 -77 -71 -77h-223q-15 0 -25.5 11t-10.5 27t10.5 27t25.5 11h204q0 55 -35 90t-100 35q-50 0 -92 -36.5t-42 -87.5v-98q0 -51 42 -88.5t92 -37.5h64l33 29q11 9 25 9q18 0 30 -13.5t12 -29.5q0 -17 -12 -27l-30 -26q-26 -23 -63 -23h-59z" />
    <glyph glyph-name="edieresis" unicode="&#xeb;" 
d="M179 562q-19 0 -32 12.5t-13 30.5v42q0 18 13 30.5t32 12.5t32 -12.5t13 -30.5v-42q0 -18 -13 -30.5t-32 -12.5zM373 562q-19 0 -32 12.5t-13 30.5v42q0 18 13 30.5t32 12.5q18 0 31.5 -12.5t13.5 -30.5v-42q0 -18 -13.5 -30.5t-31.5 -12.5zM271 0q-93 0 -158.5 61
t-65.5 146v98q0 85 65.5 145t158.5 60q103 0 164 -56t61 -149q0 -77 -71 -77h-223q-15 0 -25.5 11t-10.5 27t10.5 27t25.5 11h204q0 55 -35 90t-100 35q-50 0 -92 -36.5t-42 -87.5v-98q0 -51 42 -88.5t92 -37.5h64l33 29q11 9 25 9q18 0 30 -13.5t12 -29.5q0 -17 -12 -27
l-30 -26q-26 -23 -63 -23h-59z" />
    <glyph glyph-name="igrave" unicode="&#xec;" horiz-adv-x="201" 
d="M5 677q12 13 31 13q18 0 30 -13l62 -71q9 -10 9 -25q0 -18 -12 -30q-13 -13 -33 -13q-18 0 -27 12l-62 72q-11 13 -11 26q0 16 13 29zM100 -10q-18 0 -31.5 12.5t-13.5 30.5l1 434q0 18 13.5 30.5t31.5 12.5q19 0 32 -12.5t13 -30.5v-434q-1 -18 -14 -30.5t-32 -12.5z
" />
    <glyph glyph-name="iacute" unicode="&#xed;" horiz-adv-x="201" 
d="M109 538q-20 0 -33 13q-12 12 -12 30q0 15 9 25l62 71q12 13 30 13q19 0 31 -13q13 -13 13 -29q0 -13 -11 -26l-62 -72q-9 -12 -27 -12zM100 -10q-18 0 -31.5 12.5t-13.5 30.5l1 434q0 18 13.5 30.5t31.5 12.5q19 0 32 -12.5t13 -30.5v-434q-1 -18 -14 -30.5t-32 -12.5z
" />
    <glyph glyph-name="icircumflex" unicode="&#xee;" horiz-adv-x="202" 
d="M207 598q8 -10 8 -22q0 -16 -11 -27q-12 -12 -30 -12q-16 0 -24 11l-49 57l-49 -57q-8 -11 -24 -11q-18 0 -30 12q-11 11 -11 27q0 12 8 22l63 72q17 20 44 20q26 0 43 -20zM100 -10q-18 0 -31.5 12.5t-13.5 30.5l1 434q0 18 13.5 30.5t31.5 12.5q19 0 32 -12.5t13 -30.5
v-434q-1 -18 -14 -30.5t-32 -12.5z" />
    <glyph glyph-name="idieresis" unicode="&#xef;" horiz-adv-x="204" 
d="M5 562q-19 0 -32 12.5t-13 30.5v42q0 18 13 30.5t32 12.5t32 -12.5t13 -30.5v-42q0 -18 -13 -30.5t-32 -12.5zM199 562q-19 0 -32 12.5t-13 30.5v42q0 18 13 30.5t32 12.5q18 0 31.5 -12.5t13.5 -30.5v-42q0 -18 -13.5 -30.5t-31.5 -12.5zM100 -10q-18 0 -31.5 12.5
t-13.5 30.5l1 434q0 18 13.5 30.5t31.5 12.5q19 0 32 -12.5t13 -30.5v-434q-1 -18 -14 -30.5t-32 -12.5z" />
    <glyph glyph-name="ntilde" unicode="&#xf1;" 
d="M405 690q16 0 26.5 -11.5t10.5 -24.5q0 -5 -2 -11q-13 -31 -39 -55.5t-64 -24.5q-36 0 -82 36q-25 20 -36 20q-22 0 -37 -34q-8 -22 -32 -22q-16 0 -26.5 11t-10.5 25q0 5 2 11q37 80 103 80q37 0 82 -36q25 -20 37 -20q21 0 36 35q8 21 32 21zM100 -10q-19 0 -32 12.5
t-13 30.5v434q0 18 13 30.5t32 12.5t32 -12.5t13 -30.5v-434q0 -18 -13 -30.5t-32 -12.5zM430 -10q-19 0 -32 12.5t-13 30.5v281q0 53 -28 84t-83 31l-33 -29q-11 -9 -25 -9q-17 0 -29 12q-13 13 -13 30t12 27l31 27q27 23 62 23q89 0 142.5 -53.5t53.5 -142.5v-281
q0 -18 -13 -30.5t-32 -12.5z" />
    <glyph glyph-name="ograve" unicode="&#xf2;" horiz-adv-x="550" 
d="M192 677q12 13 31 13q18 0 30 -13l62 -71q9 -10 9 -25q0 -18 -12 -30q-13 -13 -33 -13q-18 0 -27 12l-62 72q-11 13 -11 26q0 16 13 29zM95 228q-19 0 -32 13t-13 30v34q0 85 66 145t159 60q89 0 148 -43.5t71 -115.5q1 -5 1 -10q0 -18 -13 -30.5t-33 -12.5
q-16 0 -28 9.5t-15 24.5q-20 97 -131 97q-51 0 -93 -36.5t-42 -87.5v-34q0 -17 -13 -30t-32 -13zM275 -10q-88 0 -146 42.5t-70 118.5q-3 20 10.5 35.5t35.5 15.5q16 0 28 -9.5t14 -24.5q11 -53 41 -75t87 -22q51 0 93 36.5t42 87.5v34q0 18 13 30.5t32 12.5
q18 0 31.5 -12.5t13.5 -30.5v-34q0 -85 -66 -145t-159 -60z" />
    <glyph glyph-name="oacute" unicode="&#xf3;" horiz-adv-x="550" 
d="M269 538q-20 0 -33 13q-12 12 -12 30q0 15 9 25l62 71q12 13 30 13q19 0 31 -13q13 -13 13 -29q0 -13 -11 -26l-62 -72q-9 -12 -27 -12zM95 228q-19 0 -32 13t-13 30v34q0 85 66 145t159 60q89 0 148 -43.5t71 -115.5q1 -5 1 -10q0 -18 -13 -30.5t-33 -12.5
q-16 0 -28 9.5t-15 24.5q-20 97 -131 97q-51 0 -93 -36.5t-42 -87.5v-34q0 -17 -13 -30t-32 -13zM275 -10q-88 0 -146 42.5t-70 118.5q-3 20 10.5 35.5t35.5 15.5q16 0 28 -9.5t14 -24.5q11 -53 41 -75t87 -22q51 0 93 36.5t42 87.5v34q0 18 13 30.5t32 12.5
q18 0 31.5 -12.5t13.5 -30.5v-34q0 -85 -66 -145t-159 -60z" />
    <glyph glyph-name="ocircumflex" unicode="&#xf4;" horiz-adv-x="550" 
d="M379 598q8 -10 8 -22q0 -16 -11 -27q-12 -12 -30 -12q-16 0 -24 11l-49 57l-49 -57q-8 -11 -24 -11q-18 0 -30 12q-11 11 -11 27q0 12 8 22l63 72q17 20 44 20q26 0 43 -20zM95 228q-19 0 -32 13t-13 30v34q0 85 66 145t159 60q89 0 148 -43.5t71 -115.5q1 -5 1 -10
q0 -18 -13 -30.5t-33 -12.5q-16 0 -28 9.5t-15 24.5q-20 97 -131 97q-51 0 -93 -36.5t-42 -87.5v-34q0 -17 -13 -30t-32 -13zM275 -10q-88 0 -146 42.5t-70 118.5q-3 20 10.5 35.5t35.5 15.5q16 0 28 -9.5t14 -24.5q11 -53 41 -75t87 -22q51 0 93 36.5t42 87.5v34
q0 18 13 30.5t32 12.5q18 0 31.5 -12.5t13.5 -30.5v-34q0 -85 -66 -145t-159 -60z" />
    <glyph glyph-name="otilde" unicode="&#xf5;" horiz-adv-x="550" 
d="M403 690q16 0 26.5 -11.5t10.5 -24.5q0 -5 -2 -11q-13 -31 -39 -55.5t-64 -24.5q-36 0 -82 36q-25 20 -36 20q-22 0 -37 -34q-8 -22 -32 -22q-17 0 -27 11t-10 25q0 5 2 11q37 80 103 80q37 0 82 -36q25 -20 37 -20q21 0 36 35q8 21 32 21zM95 228q-19 0 -32 13t-13 30
v34q0 85 66 145t159 60q89 0 148 -43.5t71 -115.5q1 -5 1 -10q0 -18 -13 -30.5t-33 -12.5q-16 0 -28 9.5t-15 24.5q-20 97 -131 97q-51 0 -93 -36.5t-42 -87.5v-34q0 -17 -13 -30t-32 -13zM275 -10q-88 0 -146 42.5t-70 118.5q-3 20 10.5 35.5t35.5 15.5q16 0 28 -9.5
t14 -24.5q11 -53 41 -75t87 -22q51 0 93 36.5t42 87.5v34q0 18 13 30.5t32 12.5q18 0 31.5 -12.5t13.5 -30.5v-34q0 -85 -66 -145t-159 -60z" />
    <glyph glyph-name="odieresis" unicode="&#xf6;" horiz-adv-x="550" 
d="M179 562q-19 0 -32 12.5t-13 30.5v42q0 18 13 30.5t32 12.5t32 -12.5t13 -30.5v-42q0 -18 -13 -30.5t-32 -12.5zM373 562q-19 0 -32 12.5t-13 30.5v42q0 18 13 30.5t32 12.5q18 0 31.5 -12.5t13.5 -30.5v-42q0 -18 -13.5 -30.5t-31.5 -12.5zM95 228q-19 0 -32 13t-13 30
v34q0 85 66 145t159 60q89 0 148 -43.5t71 -115.5q1 -5 1 -10q0 -18 -13 -30.5t-33 -12.5q-16 0 -28 9.5t-15 24.5q-20 97 -131 97q-51 0 -93 -36.5t-42 -87.5v-34q0 -17 -13 -30t-32 -13zM275 -10q-88 0 -146 42.5t-70 118.5q-3 20 10.5 35.5t35.5 15.5q16 0 28 -9.5
t14 -24.5q11 -53 41 -75t87 -22q51 0 93 36.5t42 87.5v34q0 18 13 30.5t32 12.5q18 0 31.5 -12.5t13.5 -30.5v-34q0 -85 -66 -145t-159 -60z" />
    <glyph glyph-name="divide" unicode="&#xf7;" horiz-adv-x="507" 
d="M255 364q-19 0 -32 12.5t-13 29.5v43q0 18 13 30.5t32 12.5t32 -12.5t13 -30.5v-43q0 -17 -13 -29.5t-32 -12.5zM83 225q-16 0 -27 11.5t-11 27.5q0 17 11 28.5t27 11.5h341q16 0 27 -11.5t11 -28.5q0 -16 -11 -27.5t-27 -11.5h-341zM255 37q-19 0 -32 12.5t-13 29.5v43
q0 18 13 30.5t32 12.5t32 -12.5t13 -30.5v-43q0 -17 -13 -29.5t-32 -12.5z" />
    <glyph glyph-name="oslash" unicode="&#xf8;" horiz-adv-x="550" 
d="M502 547q14 -11 14 -30q0 -15 -9 -25l-49 -58q29 -38 36 -83q1 -5 1 -10q0 -18 -13 -30.5t-33 -12.5q-16 0 -28 9.5t-15 24.5q-20 97 -131 97q-51 0 -93 -36.5t-42 -87.5v-34q0 -17 -13 -30t-32 -13t-32 13t-13 30v34q0 85 66 145t159 60q68 0 120 -26l51 60q10 13 29 13
q16 0 27 -10zM205 154q-14 0 -26 10q-15 14 -15 31q0 14 9 24l127 152q10 13 29 13q16 0 27 -10q14 -11 14 -30q0 -14 -9 -25l-126 -151q-12 -14 -30 -14zM455 272q18 0 31.5 -12.5t13.5 -30.5v-34q0 -85 -66 -145t-159 -60q-91 0 -151 46l-45 -54q-12 -14 -30 -14
q-14 0 -26 10q-15 13 -15 31q0 13 9 24l57 67q-10 24 -15 51q-3 20 10.5 35.5t35.5 15.5q16 0 28 -9.5t14 -24.5q11 -53 41 -75t87 -22q51 0 93 36.5t42 87.5v34q0 18 13 30.5t32 12.5z" />
    <glyph glyph-name="ugrave" unicode="&#xf9;" 
d="M175 677q12 13 31 13q18 0 30 -13l62 -71q9 -10 9 -25q0 -18 -12 -30q-13 -13 -33 -13q-18 0 -27 12l-62 72q-11 13 -11 26q0 16 13 29zM252 -10q-90 0 -143.5 53.5t-53.5 142.5v281q0 18 13 30.5t32 12.5t32 -12.5t13 -30.5v-281q0 -52 28 -83.5t79 -31.5q26 0 49 10
q7 3 16 3q19 0 30 -12.5t11 -29.5q0 -29 -25 -38q-41 -14 -81 -14zM430 -10q-19 0 -32 12.5t-13 30.5v434q0 18 13 30.5t32 12.5t32 -12.5t13 -30.5v-434q0 -18 -13 -30.5t-32 -12.5z" />
    <glyph glyph-name="uacute" unicode="&#xfa;" 
d="M266 538q-20 0 -33 13q-12 12 -12 30q0 15 9 25l62 71q12 13 30 13q19 0 31 -13q13 -13 13 -29q0 -13 -11 -26l-62 -72q-9 -12 -27 -12zM252 -10q-90 0 -143.5 53.5t-53.5 142.5v281q0 18 13 30.5t32 12.5t32 -12.5t13 -30.5v-281q0 -52 28 -83.5t79 -31.5q26 0 49 10
q7 3 16 3q19 0 30 -12.5t11 -29.5q0 -29 -25 -38q-41 -14 -81 -14zM430 -10q-19 0 -32 12.5t-13 30.5v434q0 18 13 30.5t32 12.5t32 -12.5t13 -30.5v-434q0 -18 -13 -30.5t-32 -12.5z" />
    <glyph glyph-name="ucircumflex" unicode="&#xfb;" 
d="M370 598q8 -10 8 -22q0 -16 -11 -27q-12 -12 -30 -12q-16 0 -24 11l-49 57l-49 -57q-8 -11 -24 -11q-18 0 -30 12q-11 11 -11 27q0 12 8 22l63 72q17 20 44 20q26 0 43 -20zM252 -10q-90 0 -143.5 53.5t-53.5 142.5v281q0 18 13 30.5t32 12.5t32 -12.5t13 -30.5v-281
q0 -52 28 -83.5t79 -31.5q26 0 49 10q7 3 16 3q19 0 30 -12.5t11 -29.5q0 -29 -25 -38q-41 -14 -81 -14zM430 -10q-19 0 -32 12.5t-13 30.5v434q0 18 13 30.5t32 12.5t32 -12.5t13 -30.5v-434q0 -18 -13 -30.5t-32 -12.5z" />
    <glyph glyph-name="udieresis" unicode="&#xfc;" 
d="M168 562q-19 0 -32 12.5t-13 30.5v42q0 18 13 30.5t32 12.5t32 -12.5t13 -30.5v-42q0 -18 -13 -30.5t-32 -12.5zM362 562q-19 0 -32 12.5t-13 30.5v42q0 18 13 30.5t32 12.5q18 0 31.5 -12.5t13.5 -30.5v-42q0 -18 -13.5 -30.5t-31.5 -12.5zM252 -10q-90 0 -143.5 53.5
t-53.5 142.5v281q0 18 13 30.5t32 12.5t32 -12.5t13 -30.5v-281q0 -52 28 -83.5t79 -31.5q26 0 49 10q7 3 16 3q19 0 30 -12.5t11 -29.5q0 -29 -25 -38q-41 -14 -81 -14zM430 -10q-19 0 -32 12.5t-13 30.5v434q0 18 13 30.5t32 12.5t32 -12.5t13 -30.5v-434q0 -18 -13 -30.5
t-32 -12.5z" />
    <glyph glyph-name="yacute" unicode="&#xfd;" horiz-adv-x="525" 
d="M278 538q-20 0 -33 13q-12 12 -12 30q0 15 9 25l62 71q12 13 30 13q19 0 31 -13q13 -13 13 -29q0 -13 -11 -26l-62 -72q-9 -12 -27 -12zM200 101q-33 0 -42 28l-115 323q-2 8 -2 13q0 18 12.5 31.5t32.5 13.5q31 0 41 -28l116 -324q2 -4 2 -13q0 -32 -31 -42
q-10 -2 -14 -2zM81 -201q-16 0 -27 12t-11 29t11 29t27 12h21q38 0 70.5 25t45.5 62l180 513q10 29 41 29q20 0 33.5 -13.5t13.5 -30.5q0 -8 -3 -14l-186 -512q-21 -62 -74.5 -101.5t-120.5 -39.5h-21z" />
    <glyph glyph-name="ydieresis" unicode="&#xff;" horiz-adv-x="525" 
d="M160 562q-19 0 -32 12.5t-13 30.5v42q0 18 13 30.5t32 12.5t32 -12.5t13 -30.5v-42q0 -18 -13 -30.5t-32 -12.5zM354 562q-19 0 -32 12.5t-13 30.5v42q0 18 13 30.5t32 12.5q18 0 31.5 -12.5t13.5 -30.5v-42q0 -18 -13.5 -30.5t-31.5 -12.5zM200 101q-33 0 -42 28
l-115 323q-2 8 -2 13q0 18 12.5 31.5t32.5 13.5q31 0 41 -28l116 -324q2 -4 2 -13q0 -32 -31 -42q-10 -2 -14 -2zM81 -201q-16 0 -27 12t-11 29t11 29t27 12h21q38 0 70.5 25t45.5 62l180 513q10 29 41 29q20 0 33.5 -13.5t13.5 -30.5q0 -8 -3 -14l-186 -512
q-21 -62 -74.5 -101.5t-120.5 -39.5h-21z" />
    <glyph glyph-name="Amacron" unicode="&#x100;" horiz-adv-x="620" 
d="M185 756q-15 0 -24.5 10.5t-9.5 25.5t9.5 25.5t24.5 10.5h245q15 0 24.5 -10.5t9.5 -25.5t-9.5 -25.5t-24.5 -10.5h-245zM183 278q-24 0 -39.5 18.5t-7.5 41.5l111 322q9 30 44 30q26 0 39.5 -20.5t6.5 -40.5l-112 -321q-9 -30 -42 -30zM437 278q-34 0 -43 30l-64 184
q-8 22 7 41.5t40 19.5q34 0 43 -30l63 -185q7 -24 -7.5 -42t-38.5 -18zM84 -10q-25 0 -39.5 20t-7.5 41l58 168q10 33 46 33h338q34 0 45 -33l59 -168q7 -22 -8 -41.5t-39 -19.5q-34 0 -43 30l-52 152h-262l-52 -152q-9 -30 -43 -30z" />
    <glyph glyph-name="amacron" unicode="&#x101;" horiz-adv-x="506" 
d="M134 583q-15 0 -24.5 10.5t-9.5 25.5t9.5 25.5t24.5 10.5h245q15 0 24.5 -10.5t9.5 -25.5t-9.5 -25.5t-24.5 -10.5h-245zM405 3l-25 29q-23 26 -23 62v210q0 52 -28 83.5t-78 31.5h-124q-16 0 -27.5 11.5t-11.5 28.5t11.5 29t27.5 12h124q89 0 142.5 -53.5t53.5 -142.5
v-225l20 -23q9 -10 9 -24q0 -19 -12.5 -30.5t-28.5 -11.5q-18 0 -30 13zM198 0q-71 0 -113.5 41.5t-42.5 110.5q0 72 39 112t117 40h94q15 0 25.5 -11t10.5 -27t-10.5 -27t-25.5 -11h-94q-66 0 -66 -76q0 -71 66 -71h104q16 0 27 -11.5t11 -28.5t-11 -29t-27 -12h-104z" />
    <glyph glyph-name="Emacron" unicode="&#x112;" horiz-adv-x="555" 
d="M164 756q-15 0 -24.5 10.5t-9.5 25.5t9.5 25.5t24.5 10.5h245q15 0 24.5 -10.5t9.5 -25.5t-9.5 -25.5t-24.5 -10.5h-245zM113 423q-20 0 -34 13t-14 32v167q0 19 14 32t34 13h351q17 0 29 -12.5t12 -30.5t-12 -30.5t-29 -12.5h-304v-126q0 -19 -13.5 -32t-33.5 -13z
M113 0q-20 0 -34 13t-14 32v305q0 19 14 32t34 13h285q17 0 29 -12.5t12 -30.5t-12 -30.5t-29 -12.5h-238v-223h304q17 0 29 -12.5t12 -30.5t-12 -30.5t-29 -12.5h-351z" />
    <glyph glyph-name="emacron" unicode="&#x113;" 
d="M160 583q-15 0 -24.5 10.5t-9.5 25.5t9.5 25.5t24.5 10.5h245q15 0 24.5 -10.5t9.5 -25.5t-9.5 -25.5t-24.5 -10.5h-245zM271 0q-93 0 -158.5 61t-65.5 146v98q0 85 65.5 145t158.5 60q103 0 164 -56t61 -149q0 -77 -71 -77h-223q-15 0 -25.5 11t-10.5 27t10.5 27
t25.5 11h204q0 55 -35 90t-100 35q-50 0 -92 -36.5t-42 -87.5v-98q0 -51 42 -88.5t92 -37.5h64l33 29q11 9 25 9q18 0 30 -13.5t12 -29.5q0 -17 -12 -27l-30 -26q-26 -23 -63 -23h-59z" />
    <glyph glyph-name="Itilde" unicode="&#x128;" horiz-adv-x="229" 
d="M242 860q16 0 26.5 -11.5t10.5 -24.5q0 -5 -2 -11q-13 -31 -39 -55.5t-64 -24.5q-36 0 -82 36q-25 20 -36 20q-22 0 -37 -34q-8 -22 -32 -22q-17 0 -27 11t-10 25q0 5 2 11q37 80 103 80q37 0 82 -36q25 -20 37 -20q21 0 36 35q8 21 32 21zM113 690q20 0 33.5 -13
t13.5 -32v-610q0 -19 -13.5 -32t-33.5 -13t-34 13t-14 32v610q0 19 14 32t34 13z" />
    <glyph glyph-name="itilde" unicode="&#x129;" horiz-adv-x="229" 
d="M242 690q16 0 26.5 -11.5t10.5 -24.5q0 -5 -2 -11q-13 -31 -39 -55.5t-64 -24.5q-36 0 -82 36q-25 20 -36 20q-22 0 -37 -34q-8 -22 -32 -22q-17 0 -27 11t-10 25q0 5 2 11q37 80 103 80q37 0 82 -36q25 -20 37 -20q21 0 36 35q8 21 32 21zM100 -10q-18 0 -31.5 12.5
t-13.5 30.5l1 434q0 18 13.5 30.5t31.5 12.5q19 0 32 -12.5t13 -30.5v-434q-1 -18 -14 -30.5t-32 -12.5z" />
    <glyph glyph-name="imacron" unicode="&#x12b;" horiz-adv-x="273" 
d="M14 583q-15 0 -24.5 10.5t-9.5 25.5t9.5 25.5t24.5 10.5h245q15 0 24.5 -10.5t9.5 -25.5t-9.5 -25.5t-24.5 -10.5h-245zM100 -10q-18 0 -31.5 12.5t-13.5 30.5l1 434q0 18 13.5 30.5t31.5 12.5q19 0 32 -12.5t13 -30.5v-434q-1 -18 -14 -30.5t-32 -12.5z" />
    <glyph glyph-name="dotlessi" unicode="&#x131;" horiz-adv-x="201" 
d="M100 -10q-18 0 -31.5 12.5t-13.5 30.5l1 434q0 18 13.5 30.5t31.5 12.5q19 0 32 -12.5t13 -30.5v-434q-1 -18 -14 -30.5t-32 -12.5z" />
    <glyph glyph-name="nacute" unicode="&#x144;" 
d="M266 538q-20 0 -33 13q-12 12 -12 30q0 15 9 25l62 71q12 13 30 13q19 0 31 -13q13 -13 13 -29q0 -13 -11 -26l-62 -72q-9 -12 -27 -12zM100 -10q-19 0 -32 12.5t-13 30.5v434q0 18 13 30.5t32 12.5t32 -12.5t13 -30.5v-434q0 -18 -13 -30.5t-32 -12.5zM430 -10
q-19 0 -32 12.5t-13 30.5v281q0 53 -28 84t-83 31l-33 -29q-11 -9 -25 -9q-17 0 -29 12q-13 13 -13 30t12 27l31 27q27 23 62 23q89 0 142.5 -53.5t53.5 -142.5v-281q0 -18 -13 -30.5t-32 -12.5z" />
    <glyph glyph-name="Omacron" unicode="&#x14c;" horiz-adv-x="685" 
d="M221 756q-15 0 -24.5 10.5t-9.5 25.5t9.5 25.5t24.5 10.5h245q15 0 24.5 -10.5t9.5 -25.5t-9.5 -25.5t-24.5 -10.5h-245zM103 306q-20 0 -34 13.5t-14 32.5v52q0 118 84.5 202t203.5 84q114 0 196.5 -69t86.5 -174q1 -18 -13 -32t-35 -14q-17 0 -30.5 12t-15.5 28
q-10 72 -62 117.5t-127 45.5q-79 0 -136 -60t-57 -140v-52q0 -19 -14 -32.5t-33 -13.5zM343 -10q-114 0 -193 65.5t-91 177.5q-2 18 13 32t35 14q17 0 30 -10t16 -26q13 -76 60 -121.5t130 -45.5q79 0 135.5 60t56.5 140v52q0 19 14 32.5t34 13.5q19 0 33 -13.5t14 -32.5
v-52q0 -118 -84 -202t-203 -84z" />
    <glyph glyph-name="omacron" unicode="&#x14d;" horiz-adv-x="550" 
d="M149 583q-15 0 -24.5 10.5t-9.5 25.5t9.5 25.5t24.5 10.5h245q15 0 24.5 -10.5t9.5 -25.5t-9.5 -25.5t-24.5 -10.5h-245zM95 228q-19 0 -32 13t-13 30v34q0 85 66 145t159 60q89 0 148 -43.5t71 -115.5q1 -5 1 -10q0 -18 -13 -30.5t-33 -12.5q-16 0 -28 9.5t-15 24.5
q-20 97 -131 97q-51 0 -93 -36.5t-42 -87.5v-34q0 -17 -13 -30t-32 -13zM275 -10q-88 0 -146 42.5t-70 118.5q-3 20 10.5 35.5t35.5 15.5q16 0 28 -9.5t14 -24.5q11 -53 41 -75t87 -22q51 0 93 36.5t42 87.5v34q0 18 13 30.5t32 12.5q18 0 31.5 -12.5t13.5 -30.5v-34
q0 -85 -66 -145t-159 -60z" />
    <glyph glyph-name="OE" unicode="&#x152;" horiz-adv-x="975" 
d="M103 306q-20 0 -34 13.5t-14 32.5v52q0 119 82.5 202.5t202.5 83.5q51 0 98.5 -21t76.5 -63v29q0 19 14 32t34 13h321q17 0 29 -12.5t12 -30.5t-12 -30.5t-29 -12.5h-274v-136q0 -19 -14 -32t-35 -13q-15 0 -25.5 8.5t-13.5 16t-7 20.5q-20 67 -71 106.5t-106 39.5
q-77 0 -132.5 -60t-55.5 -140v-52q0 -19 -14 -32.5t-33 -13.5zM333 -10q-107 0 -183.5 66t-90.5 177q-2 18 13 32t35 14q17 0 30 -10t16 -26q14 -75 59 -121t121 -46q77 0 129.5 64t52.5 146v54q0 19 14 32t34 13h255q17 0 29 -12.5t12 -30.5t-12 -30.5t-29 -12.5h-208v-213
h274q17 0 29 -12.5t12 -30.5t-12 -30.5t-29 -12.5h-321q-20 0 -34 13t-14 32v41q-9 -35 -62.5 -65.5t-119.5 -30.5z" />
    <glyph glyph-name="oe" unicode="&#x153;" horiz-adv-x="873" 
d="M614 510q103 0 164 -56t61 -149q0 -77 -71 -77h-213q-15 0 -25.5 11t-10.5 27t10.5 27t25.5 11h194q0 55 -35 90t-100 35q-38 0 -78 -23.5t-52 -73.5q-3 -15 -15 -24.5t-30 -9.5q-16 0 -28 9.5t-15 24.5q-10 47 -39 72t-87 25q-48 0 -89 -36.5t-41 -87.5v-34
q0 -17 -13 -30t-32 -13t-32 13t-13 30v34q0 84 65 144.5t155 60.5q111 0 175 -79q63 79 169 79zM736 117q18 0 30 -13.5t12 -29.5t-12 -27l-30 -26q-26 -23 -63 -23h-49q-57 0 -106 24.5t-68 63.5q-23 -44 -72 -70t-108 -26q-84 0 -141.5 42.5t-69.5 118.5q-3 20 10.5 35.5
t35.5 15.5q16 0 28 -9.5t14 -24.5q11 -53 40.5 -75t82.5 -22q50 0 90 36t40 88v34q0 18 13 30.5t32 12.5q18 0 31.5 -12.5t13.5 -30.5v-24q0 -51 42 -88.5t92 -37.5h54l33 29q11 9 25 9z" />
    <glyph glyph-name="Utilde" unicode="&#x168;" horiz-adv-x="640" 
d="M457 860q16 0 26.5 -11.5t10.5 -24.5q0 -5 -2 -11q-13 -31 -39 -55.5t-64 -24.5q-36 0 -82 36q-25 20 -36 20q-22 0 -37 -34q-8 -22 -32 -22q-16 0 -26.5 11t-10.5 25q0 5 2 11q37 80 103 80q37 0 82 -36q25 -20 37 -20q21 0 36 35q8 21 32 21zM321 -10q-107 0 -181 71
t-74 174v410q0 19 14 32t34 13t33.5 -13t13.5 -32v-410q0 -65 46.5 -112t113.5 -47q90 0 136 76q13 19 36 19q18 0 33.5 -14.5t15.5 -32.5q0 -13 -8 -24q-36 -53 -92.5 -81.5t-120.5 -28.5zM529 194q-20 0 -34 13t-14 32v406q0 19 14 32t34 13t33.5 -13t13.5 -32v-406
q0 -19 -13.5 -32t-33.5 -13z" />
    <glyph glyph-name="utilde" unicode="&#x169;" 
d="M396 690q16 0 26.5 -11.5t10.5 -24.5q0 -5 -2 -11q-13 -31 -39 -55.5t-64 -24.5q-36 0 -82 36q-25 20 -36 20q-22 0 -37 -34q-8 -22 -32 -22q-17 0 -27 11t-10 25q0 5 2 11q37 80 103 80q37 0 82 -36q25 -20 37 -20q21 0 36 35q8 21 32 21zM252 -10q-90 0 -143.5 53.5
t-53.5 142.5v281q0 18 13 30.5t32 12.5t32 -12.5t13 -30.5v-281q0 -52 28 -83.5t79 -31.5q26 0 49 10q7 3 16 3q19 0 30 -12.5t11 -29.5q0 -29 -25 -38q-41 -14 -81 -14zM430 -10q-19 0 -32 12.5t-13 30.5v434q0 18 13 30.5t32 12.5t32 -12.5t13 -30.5v-434q0 -18 -13 -30.5
t-32 -12.5z" />
    <glyph glyph-name="Umacron" unicode="&#x16a;" horiz-adv-x="640" 
d="M198 756q-15 0 -24.5 10.5t-9.5 25.5t9.5 25.5t24.5 10.5h245q15 0 24.5 -10.5t9.5 -25.5t-9.5 -25.5t-24.5 -10.5h-245zM321 -10q-107 0 -181 71t-74 174v410q0 19 14 32t34 13t33.5 -13t13.5 -32v-410q0 -65 46.5 -112t113.5 -47q90 0 136 76q13 19 36 19
q18 0 33.5 -14.5t15.5 -32.5q0 -13 -8 -24q-36 -53 -92.5 -81.5t-120.5 -28.5zM529 194q-20 0 -34 13t-14 32v406q0 19 14 32t34 13t33.5 -13t13.5 -32v-406q0 -19 -13.5 -32t-33.5 -13z" />
    <glyph glyph-name="umacron" unicode="&#x16b;" 
d="M148 583q-15 0 -24.5 10.5t-9.5 25.5t9.5 25.5t24.5 10.5h245q15 0 24.5 -10.5t9.5 -25.5t-9.5 -25.5t-24.5 -10.5h-245zM252 -10q-90 0 -143.5 53.5t-53.5 142.5v281q0 18 13 30.5t32 12.5t32 -12.5t13 -30.5v-281q0 -52 28 -83.5t79 -31.5q26 0 49 10q7 3 16 3
q19 0 30 -12.5t11 -29.5q0 -29 -25 -38q-41 -14 -81 -14zM430 -10q-19 0 -32 12.5t-13 30.5v434q0 18 13 30.5t32 12.5t32 -12.5t13 -30.5v-434q0 -18 -13 -30.5t-32 -12.5z" />
    <glyph glyph-name="Uring" unicode="&#x16e;" horiz-adv-x="640" 
d="M268 798q-9 0 -16 7t-7 17q0 7 4 13q22 40 73 40t73 -40q4 -6 4 -13q0 -10 -7 -17t-16 -7q-16 0 -22 13q-9 20 -32 20t-32 -20q-6 -13 -22 -13zM322 710q-51 0 -73 40q-4 6 -4 13q0 10 7 17t16 7q16 0 22 -13q9 -20 32 -20t32 20q6 13 22 13q9 0 16 -7t7 -17q0 -7 -4 -13
q-22 -40 -73 -40zM321 -10q-107 0 -181 71t-74 174v410q0 19 14 32t34 13t33.5 -13t13.5 -32v-410q0 -65 46.5 -112t113.5 -47q90 0 136 76q13 19 36 19q18 0 33.5 -14.5t15.5 -32.5q0 -13 -8 -24q-36 -53 -92.5 -81.5t-120.5 -28.5zM529 194q-20 0 -34 13t-14 32v406
q0 19 14 32t34 13t33.5 -13t13.5 -32v-406q0 -19 -13.5 -32t-33.5 -13z" />
    <glyph glyph-name="uring" unicode="&#x16f;" 
d="M212 618q-9 0 -16 7t-7 17q0 7 4 13q22 40 73 40t73 -40q4 -6 4 -13q0 -10 -7 -17t-16 -7q-16 0 -22 13q-9 20 -32 20t-32 -20q-6 -13 -22 -13zM266 530q-51 0 -73 40q-4 6 -4 13q0 10 7 17t16 7q16 0 22 -13q9 -20 32 -20t32 20q6 13 22 13q9 0 16 -7t7 -17q0 -7 -4 -13
q-22 -40 -73 -40zM252 -10q-90 0 -143.5 53.5t-53.5 142.5v281q0 18 13 30.5t32 12.5t32 -12.5t13 -30.5v-281q0 -52 28 -83.5t79 -31.5q26 0 49 10q7 3 16 3q19 0 30 -12.5t11 -29.5q0 -29 -25 -38q-41 -14 -81 -14zM430 -10q-19 0 -32 12.5t-13 30.5v434q0 18 13 30.5
t32 12.5t32 -12.5t13 -30.5v-434q0 -18 -13 -30.5t-32 -12.5z" />
    <glyph glyph-name="Wcircumflex" unicode="&#x174;" horiz-adv-x="915" 
d="M566 769q8 -10 8 -22q0 -16 -11 -27q-12 -12 -30 -12q-16 0 -24 11l-49 57l-49 -57q-8 -11 -24 -11q-18 0 -30 12q-11 11 -11 27q0 12 8 22l63 72q17 20 44 20q26 0 43 -20zM251 0q-23 0 -43.5 13t-25.5 33l-139 584q-2 10 -2 14q0 33 32 44q5 2 16 2q34 0 43 -30l3 -11
l128 -563h29q18 0 30.5 -13t12.5 -31t-12.5 -30t-30.5 -12h-41zM688 119q-15 4 -24.5 16t-9.5 27q0 7 1 10l127 484q4 15 16.5 24t28.5 9q8 0 12 -1q16 -5 26 -17.5t10 -28.5q0 -7 -1 -10l-132 -483q-4 -14 -15.5 -23t-25.5 -9q-5 0 -13 2zM307 118q-32 8 -32 41q0 6 1 9
l93 407q5 19 25 32.5t44 13.5h45q19 0 31.5 -12.5t12.5 -31.5q0 -20 -12.5 -33.5t-31.5 -13.5h-34l-90 -383q-3 -14 -15 -22t-27 -8q-7 0 -10 1zM634 0q-21 0 -40.5 13t-24.5 33l-103 404q-2 8 -2 12q0 32 31 43q7 3 16 3q14 0 25.5 -8t14.5 -21l94 -393h27q17 0 29.5 -13
t12.5 -31t-12 -30t-30 -12h-38z" />
    <glyph glyph-name="wcircumflex" unicode="&#x175;" horiz-adv-x="776" 
d="M502 598q8 -10 8 -22q0 -16 -11 -27q-12 -12 -30 -12q-16 0 -24 11l-49 57l-49 -57q-8 -11 -24 -11q-18 0 -30 12q-11 11 -11 27q0 12 8 22l63 72q17 20 44 20q26 0 43 -20zM211 0q-22 0 -41.5 13.5t-24.5 33.5l-103 405q-1 4 -1 12q0 32 30 43q7 3 16 3q14 0 25.5 -8
t14.5 -21l96 -402h24q16 0 27.5 -12t11.5 -29q0 -16 -11 -27t-28 -11h-36zM608 106q-19 0 -31.5 12.5t-12.5 29.5q0 7 1 10l83 321q4 14 15.5 22.5t26.5 8.5q20 0 33 -12.5t13 -30.5q0 -7 -1 -11l-86 -319q-3 -14 -14.5 -22.5t-26.5 -8.5zM276 106q-16 0 -27.5 11t-11.5 26
q0 4 2 10l84 304q13 43 59 43h37q18 0 30 -11.5t12 -29.5q0 -19 -12 -32t-30 -13h-32l-77 -283q-7 -25 -34 -25zM548 0q-19 0 -38 13.5t-24 33.5l-80 295q-2 8 -2 12q0 16 12 28.5t31 12.5q30 0 38 -26l73 -290h25q16 0 27.5 -12t11.5 -29q0 -16 -11 -27t-28 -11h-35z" />
    <glyph glyph-name="Ycircumflex" unicode="&#x176;" horiz-adv-x="570" 
d="M392 769q8 -10 8 -22q0 -16 -11 -27q-12 -12 -30 -12q-16 0 -24 11l-49 57l-49 -57q-8 -11 -24 -11q-18 0 -30 12q-11 11 -11 27q0 12 8 22l63 72q17 20 44 20q26 0 43 -20zM285 -10q-20 0 -34 13t-14 32v205l-197 384q-5 10 -5 20q0 18 14 32t34 14q27 0 40 -24
l194 -375q15 -30 15 -68v-188q0 -19 -13.5 -32t-33.5 -13zM353 335q-21 0 -34.5 14.5t-13.5 32.5q0 10 5 20l137 264q13 24 40 24q21 0 34.5 -14.5t13.5 -31.5q0 -10 -5 -20q0 1 -5 -8.5l-14 -27.5l-20.5 -40l-25 -48.5l-26 -51l-25 -49t-21.5 -40.5q-13 -24 -40 -24z" />
    <glyph glyph-name="ycircumflex" unicode="&#x177;" horiz-adv-x="525" 
d="M368 598q8 -10 8 -22q0 -16 -11 -27q-12 -12 -30 -12q-16 0 -24 11l-49 57l-49 -57q-8 -11 -24 -11q-18 0 -30 12q-11 11 -11 27q0 12 8 22l63 72q17 20 44 20q26 0 43 -20zM200 101q-33 0 -42 28l-115 323q-2 8 -2 13q0 18 12.5 31.5t32.5 13.5q31 0 41 -28l116 -324
q2 -4 2 -13q0 -32 -31 -42q-10 -2 -14 -2zM81 -201q-16 0 -27 12t-11 29t11 29t27 12h21q38 0 70.5 25t45.5 62l180 513q10 29 41 29q20 0 33.5 -13.5t13.5 -30.5q0 -8 -3 -14l-186 -512q-21 -62 -74.5 -101.5t-120.5 -39.5h-21z" />
    <glyph glyph-name="Ydieresis" unicode="&#x178;" horiz-adv-x="570" 
d="M188 732q-19 0 -32 12.5t-13 30.5v43q0 17 13 29.5t32 12.5t32 -12.5t13 -29.5v-43q0 -18 -13 -30.5t-32 -12.5zM381 732q-19 0 -32 12.5t-13 30.5v43q0 17 13 29.5t32 12.5t32 -12.5t13 -29.5v-43q0 -18 -13 -30.5t-32 -12.5zM285 -10q-20 0 -34 13t-14 32v205l-197 384
q-5 10 -5 20q0 18 14 32t34 14q27 0 40 -24l194 -375q15 -30 15 -68v-188q0 -19 -13.5 -32t-33.5 -13zM353 335q-21 0 -34.5 14.5t-13.5 32.5q0 10 5 20l137 264q13 24 40 24q21 0 34.5 -14.5t13.5 -31.5q0 -10 -5 -20q0 1 -5 -8.5l-14 -27.5l-20.5 -40l-25 -48.5l-26 -51
l-25 -49t-21.5 -40.5q-13 -24 -40 -24z" />
    <glyph glyph-name="uni0237" unicode="&#x237;" horiz-adv-x="240" 
d="M140 510q19 0 32 -13t13 -30v-478q0 -40 -25 -68l-102 -118q-13 -13 -31 -13q-21 0 -33 14q-13 13 -13 33q0 15 9 26l105 121v483q0 17 13.5 30t31.5 13z" />
    <glyph glyph-name="circumflex" unicode="&#x2c6;" horiz-adv-x="318" 
d="M265 598q8 -10 8 -22q0 -16 -11 -27q-12 -12 -30 -12q-16 0 -24 11l-49 57l-49 -57q-8 -11 -24 -11q-18 0 -30 12q-11 11 -11 27q0 12 8 22l63 72q17 20 44 20q26 0 43 -20z" />
    <glyph glyph-name="caron" unicode="&#x2c7;" horiz-adv-x="318" 
d="M265 629l-62 -72q-17 -20 -43 -20q-27 0 -44 20l-63 72q-8 10 -8 22q0 16 11 27q12 12 30 12q16 0 24 -11l49 -57l49 57q8 11 24 11q18 0 30 -12q11 -11 11 -27q0 -12 -8 -22z" />
    <glyph glyph-name="breve" unicode="&#x2d8;" horiz-adv-x="388" 
d="M194 541q-58 0 -98.5 40.5t-40.5 98.5q0 15 10 25t25 10q14 0 24.5 -10.5t10.5 -24.5q0 -28 20.5 -48.5t48.5 -20.5t48.5 20.5t20.5 48.5q0 15 10 25t25 10q14 0 24.5 -10.5t10.5 -24.5q0 -58 -41 -98.5t-98 -40.5z" />
    <glyph glyph-name="dotaccent" unicode="&#x2d9;" horiz-adv-x="200" 
d="M100 582q-18 0 -31.5 12.5t-13.5 29.5v43q0 18 13.5 30.5t31.5 12.5q19 0 32 -12.5t13 -30.5v-43q0 -17 -13 -29.5t-32 -12.5z" />
    <glyph glyph-name="ring" unicode="&#x2da;" horiz-adv-x="263" 
d="M78 618q-9 0 -16 7t-7 17q0 7 4 13q22 40 73 40t73 -40q4 -6 4 -13q0 -10 -7 -17t-16 -7q-16 0 -22 13q-9 20 -32 20t-32 -20q-6 -13 -22 -13zM132 530q-51 0 -73 40q-4 6 -4 13q0 10 7 17t16 7q16 0 22 -13q9 -20 32 -20t32 20q6 13 22 13q9 0 16 -7t7 -17q0 -7 -4 -13
q-22 -40 -73 -40z" />
    <glyph glyph-name="tilde" unicode="&#x2dc;" horiz-adv-x="439" 
d="M347 690q16 0 26.5 -11.5t10.5 -24.5q0 -5 -2 -11q-13 -31 -39 -55.5t-64 -24.5q-36 0 -82 36q-25 20 -36 20q-22 0 -37 -34q-8 -22 -32 -22q-16 0 -26.5 11t-10.5 25q0 5 2 11q37 80 103 80q37 0 82 -36q25 -20 37 -20q21 0 36 35q8 21 32 21z" />
    <glyph glyph-name="Wgrave" unicode="&#x1e80;" horiz-adv-x="915" 
d="M356 848q13 13 31 13t30 -13l62 -71q9 -11 9 -25q0 -18 -12 -30q-13 -13 -33 -13q-18 0 -27 12l-62 72q-11 13 -11 26q0 16 13 29zM251 0q-23 0 -43.5 13t-25.5 33l-139 584q-2 10 -2 14q0 33 32 44q5 2 16 2q34 0 43 -30l3 -11l128 -563h29q18 0 30.5 -13t12.5 -31
t-12.5 -30t-30.5 -12h-41zM688 119q-15 4 -24.5 16t-9.5 27q0 7 1 10l127 484q4 15 16.5 24t28.5 9q8 0 12 -1q16 -5 26 -17.5t10 -28.5q0 -7 -1 -10l-132 -483q-4 -14 -15.5 -23t-25.5 -9q-5 0 -13 2zM307 118q-32 8 -32 41q0 6 1 9l93 407q5 19 25 32.5t44 13.5h45
q19 0 31.5 -12.5t12.5 -31.5q0 -20 -12.5 -33.5t-31.5 -13.5h-34l-90 -383q-3 -14 -15 -22t-27 -8q-7 0 -10 1zM634 0q-21 0 -40.5 13t-24.5 33l-103 404q-2 8 -2 12q0 32 31 43q7 3 16 3q14 0 25.5 -8t14.5 -21l94 -393h27q17 0 29.5 -13t12.5 -31t-12 -30t-30 -12h-38z
" />
    <glyph glyph-name="wgrave" unicode="&#x1e81;" horiz-adv-x="776" 
d="M296 677q12 13 31 13q18 0 30 -13l62 -71q9 -10 9 -25q0 -18 -12 -30q-13 -13 -33 -13q-18 0 -27 12l-62 72q-11 13 -11 26q0 16 13 29zM211 0q-22 0 -41.5 13.5t-24.5 33.5l-103 405q-1 4 -1 12q0 32 30 43q7 3 16 3q14 0 25.5 -8t14.5 -21l96 -402h24q16 0 27.5 -12
t11.5 -29q0 -16 -11 -27t-28 -11h-36zM608 106q-19 0 -31.5 12.5t-12.5 29.5q0 7 1 10l83 321q4 14 15.5 22.5t26.5 8.5q20 0 33 -12.5t13 -30.5q0 -7 -1 -11l-86 -319q-3 -14 -14.5 -22.5t-26.5 -8.5zM276 106q-16 0 -27.5 11t-11.5 26q0 4 2 10l84 304q13 43 59 43h37
q18 0 30 -11.5t12 -29.5q0 -19 -12 -32t-30 -13h-32l-77 -283q-7 -25 -34 -25zM548 0q-19 0 -38 13.5t-24 33.5l-80 295q-2 8 -2 12q0 16 12 28.5t31 12.5q30 0 38 -26l73 -290h25q16 0 27.5 -12t11.5 -29q0 -16 -11 -27t-28 -11h-35z" />
    <glyph glyph-name="Wacute" unicode="&#x1e82;" horiz-adv-x="915" 
d="M557 848q13 -13 13 -29q0 -13 -11 -26l-62 -72q-9 -12 -27 -12q-20 0 -33 13q-12 12 -12 30q0 14 9 25l62 71q12 13 30 13t31 -13zM251 0q-23 0 -43.5 13t-25.5 33l-139 584q-2 10 -2 14q0 33 32 44q5 2 16 2q34 0 43 -30l3 -11l128 -563h29q18 0 30.5 -13t12.5 -31
t-12.5 -30t-30.5 -12h-41zM688 119q-15 4 -24.5 16t-9.5 27q0 7 1 10l127 484q4 15 16.5 24t28.5 9q8 0 12 -1q16 -5 26 -17.5t10 -28.5q0 -7 -1 -10l-132 -483q-4 -14 -15.5 -23t-25.5 -9q-5 0 -13 2zM307 118q-32 8 -32 41q0 6 1 9l93 407q5 19 25 32.5t44 13.5h45
q19 0 31.5 -12.5t12.5 -31.5q0 -20 -12.5 -33.5t-31.5 -13.5h-34l-90 -383q-3 -14 -15 -22t-27 -8q-7 0 -10 1zM634 0q-21 0 -40.5 13t-24.5 33l-103 404q-2 8 -2 12q0 32 31 43q7 3 16 3q14 0 25.5 -8t14.5 -21l94 -393h27q17 0 29.5 -13t12.5 -31t-12 -30t-30 -12h-38z
" />
    <glyph glyph-name="wacute" unicode="&#x1e83;" horiz-adv-x="776" 
d="M409 538q-20 0 -33 13q-12 12 -12 30q0 15 9 25l62 71q12 13 30 13q19 0 31 -13q13 -13 13 -29q0 -13 -11 -26l-62 -72q-9 -12 -27 -12zM211 0q-22 0 -41.5 13.5t-24.5 33.5l-103 405q-1 4 -1 12q0 32 30 43q7 3 16 3q14 0 25.5 -8t14.5 -21l96 -402h24q16 0 27.5 -12
t11.5 -29q0 -16 -11 -27t-28 -11h-36zM608 106q-19 0 -31.5 12.5t-12.5 29.5q0 7 1 10l83 321q4 14 15.5 22.5t26.5 8.5q20 0 33 -12.5t13 -30.5q0 -7 -1 -11l-86 -319q-3 -14 -14.5 -22.5t-26.5 -8.5zM276 106q-16 0 -27.5 11t-11.5 26q0 4 2 10l84 304q13 43 59 43h37
q18 0 30 -11.5t12 -29.5q0 -19 -12 -32t-30 -13h-32l-77 -283q-7 -25 -34 -25zM548 0q-19 0 -38 13.5t-24 33.5l-80 295q-2 8 -2 12q0 16 12 28.5t31 12.5q30 0 38 -26l73 -290h25q16 0 27.5 -12t11.5 -29q0 -16 -11 -27t-28 -11h-35z" />
    <glyph glyph-name="Wdieresis" unicode="&#x1e84;" horiz-adv-x="915" 
d="M368 732q-19 0 -32 12.5t-13 30.5v43q0 17 13 29.5t32 12.5t32 -12.5t13 -29.5v-43q0 -18 -13 -30.5t-32 -12.5zM561 732q-19 0 -32 12.5t-13 30.5v43q0 17 13 29.5t32 12.5t32 -12.5t13 -29.5v-43q0 -18 -13 -30.5t-32 -12.5zM251 0q-23 0 -43.5 13t-25.5 33l-139 584
q-2 10 -2 14q0 33 32 44q5 2 16 2q34 0 43 -30l3 -11l128 -563h29q18 0 30.5 -13t12.5 -31t-12.5 -30t-30.5 -12h-41zM688 119q-15 4 -24.5 16t-9.5 27q0 7 1 10l127 484q4 15 16.5 24t28.5 9q8 0 12 -1q16 -5 26 -17.5t10 -28.5q0 -7 -1 -10l-132 -483q-4 -14 -15.5 -23
t-25.5 -9q-5 0 -13 2zM307 118q-32 8 -32 41q0 6 1 9l93 407q5 19 25 32.5t44 13.5h45q19 0 31.5 -12.5t12.5 -31.5q0 -20 -12.5 -33.5t-31.5 -13.5h-34l-90 -383q-3 -14 -15 -22t-27 -8q-7 0 -10 1zM634 0q-21 0 -40.5 13t-24.5 33l-103 404q-2 8 -2 12q0 32 31 43
q7 3 16 3q14 0 25.5 -8t14.5 -21l94 -393h27q17 0 29.5 -13t12.5 -31t-12 -30t-30 -12h-38z" />
    <glyph glyph-name="wdieresis" unicode="&#x1e85;" horiz-adv-x="776" 
d="M295 562q-19 0 -32 12.5t-13 30.5v42q0 18 13 30.5t32 12.5t32 -12.5t13 -30.5v-42q0 -18 -13 -30.5t-32 -12.5zM489 562q-19 0 -32 12.5t-13 30.5v42q0 18 13 30.5t32 12.5q18 0 31.5 -12.5t13.5 -30.5v-42q0 -18 -13.5 -30.5t-31.5 -12.5zM211 0q-22 0 -41.5 13.5
t-24.5 33.5l-103 405q-1 4 -1 12q0 32 30 43q7 3 16 3q14 0 25.5 -8t14.5 -21l96 -402h24q16 0 27.5 -12t11.5 -29q0 -16 -11 -27t-28 -11h-36zM608 106q-19 0 -31.5 12.5t-12.5 29.5q0 7 1 10l83 321q4 14 15.5 22.5t26.5 8.5q20 0 33 -12.5t13 -30.5q0 -7 -1 -11l-86 -319
q-3 -14 -14.5 -22.5t-26.5 -8.5zM276 106q-16 0 -27.5 11t-11.5 26q0 4 2 10l84 304q13 43 59 43h37q18 0 30 -11.5t12 -29.5q0 -19 -12 -32t-30 -13h-32l-77 -283q-7 -25 -34 -25zM548 0q-19 0 -38 13.5t-24 33.5l-80 295q-2 8 -2 12q0 16 12 28.5t31 12.5q30 0 38 -26
l73 -290h25q16 0 27.5 -12t11.5 -29q0 -16 -11 -27t-28 -11h-35z" />
    <glyph glyph-name="Ygrave" unicode="&#x1ef2;" horiz-adv-x="570" 
d="M185 848q13 13 31 13t30 -13l62 -71q9 -11 9 -25q0 -18 -12 -30q-13 -13 -33 -13q-18 0 -27 12l-62 72q-11 13 -11 26q0 16 13 29zM285 -10q-20 0 -34 13t-14 32v205l-197 384q-5 10 -5 20q0 18 14 32t34 14q27 0 40 -24l194 -375q15 -30 15 -68v-188q0 -19 -13.5 -32
t-33.5 -13zM353 335q-21 0 -34.5 14.5t-13.5 32.5q0 10 5 20l137 264q13 24 40 24q21 0 34.5 -14.5t13.5 -31.5q0 -10 -5 -20q0 1 -5 -8.5l-14 -27.5l-20.5 -40l-25 -48.5l-26 -51l-25 -49t-21.5 -40.5q-13 -24 -40 -24z" />
    <glyph glyph-name="ygrave" unicode="&#x1ef3;" horiz-adv-x="560" 
d="M169 677q12 13 31 13q18 0 30 -13l62 -71q9 -10 9 -25q0 -18 -12 -30q-13 -13 -33 -13q-18 0 -27 12l-62 72q-11 13 -11 26q0 16 13 29zM200 101q-33 0 -42 28l-115 323q-2 8 -2 13q0 18 12.5 31.5t32.5 13.5q31 0 41 -28l116 -324q2 -4 2 -13q0 -32 -31 -42
q-10 -2 -14 -2zM81 -201q-16 0 -27 12t-11 29t11 29t27 12h21q38 0 70.5 25t45.5 62l180 513q10 29 41 29q20 0 33.5 -13.5t13.5 -30.5q0 -8 -3 -14l-186 -512q-21 -62 -74.5 -101.5t-120.5 -39.5h-21z" />
    <glyph glyph-name="endash" unicode="&#x2013;" horiz-adv-x="579" 
d="M86 229q-15 0 -25.5 11t-10.5 26q0 16 10.5 27t25.5 11h407q15 0 25.5 -11t10.5 -27q0 -15 -10.5 -26t-25.5 -11h-407z" />
    <glyph glyph-name="emdash" unicode="&#x2014;" horiz-adv-x="709" 
d="M86 229q-15 0 -25.5 11t-10.5 26q0 16 10.5 27t25.5 11h537q15 0 25.5 -11t10.5 -27q0 -15 -10.5 -26t-25.5 -11h-537z" />
    <glyph glyph-name="quoteleft" unicode="&#x2018;" horiz-adv-x="200" 
d="M154 690q18 0 31 -13t13 -31q0 -14 -9 -25l-50 -57v-51q0 -17 -12.5 -28.5t-29.5 -11.5t-29.5 11.5t-12.5 28.5v65q0 17 10 30l60 69q12 13 29 13z" />
    <glyph glyph-name="quoteright" unicode="&#x2019;" horiz-adv-x="200" 
d="M46 473q-18 0 -31 13t-13 31q0 15 9 25l50 57v51q0 17 12.5 28.5t29.5 11.5t29.5 -11.5t12.5 -28.5v-65q0 -17 -10 -30l-60 -69q-12 -13 -29 -13z" />
    <glyph glyph-name="quotesinglbase" unicode="&#x201a;" horiz-adv-x="600" 
d="M46 -100q-18 0 -31 13t-13 31q0 15 9 25l50 57v51q0 17 12.5 28.5t29.5 11.5t29.5 -11.5t12.5 -28.5v-65q0 -17 -10 -30l-60 -69q-12 -13 -29 -13z" />
    <glyph glyph-name="quotedblleft" unicode="&#x201c;" horiz-adv-x="371" 
d="M154 690q18 0 31 -13t13 -31q0 -14 -9 -25l-50 -57v-51q0 -17 -12.5 -28.5t-29.5 -11.5t-29.5 11.5t-12.5 28.5v65q0 17 10 30l60 69q12 13 29 13zM325 690q18 0 31 -13t13 -31q0 -14 -9 -25l-50 -57v-51q0 -17 -12.5 -28.5t-29.5 -11.5t-29.5 11.5t-12.5 28.5v65
q0 17 10 30l60 69q12 13 29 13z" />
    <glyph glyph-name="quotedblright" unicode="&#x201d;" horiz-adv-x="371" 
d="M46 473q-18 0 -31 13t-13 31q0 15 9 25l50 57v51q0 17 12.5 28.5t29.5 11.5t29.5 -11.5t12.5 -28.5v-65q0 -17 -10 -30l-60 -69q-12 -13 -29 -13zM217 473q-18 0 -31 13t-13 31q0 15 9 25l50 57v51q0 17 12.5 28.5t29.5 11.5t29.5 -11.5t12.5 -28.5v-65q0 -17 -10 -30
l-60 -69q-12 -13 -29 -13z" />
    <glyph glyph-name="quotedblbase" unicode="&#x201e;" horiz-adv-x="600" 
d="M103 117q17 0 29.5 -11.5t12.5 -28.5v-65q0 -17 -10 -30l-60 -69q-12 -13 -29 -13q-18 0 -31 13t-13 31q0 15 9 25l50 57v51q0 17 12.5 28.5t29.5 11.5z" />
    <glyph glyph-name="bullet" unicode="&#x2022;" horiz-adv-x="282" 
d="M112 191q-23 0 -40 17.5t-17 42.5q0 24 17 41.5t40 18.5h58q24 -1 40.5 -18t16.5 -42t-16.5 -42.5t-40.5 -17.5h-58z" />
    <glyph glyph-name="ellipsis" unicode="&#x2026;" horiz-adv-x="570" 
d="M100 -10q-19 0 -32 12.5t-13 29.5v43q0 18 13 30.5t32 12.5t32 -12.5t13 -30.5v-43q0 -17 -13 -29.5t-32 -12.5zM285 -10q-19 0 -32 12.5t-13 29.5v43q0 18 13 30.5t32 12.5t32 -12.5t13 -30.5v-43q0 -17 -13 -29.5t-32 -12.5zM470 -10q-19 0 -32 12.5t-13 29.5v43
q0 18 13 30.5t32 12.5t32 -12.5t13 -30.5v-43q0 -17 -13 -29.5t-32 -12.5z" />
    <glyph glyph-name="perthousand" unicode="&#x2030;" horiz-adv-x="1073" 
d="M90 535q-14 0 -24.5 9.5t-10.5 22.5q0 54 39.5 88.5t94.5 34.5q53 0 87.5 -26t41.5 -70q2 -15 -8.5 -26t-26.5 -11q-13 0 -22.5 7t-11.5 18q-5 26 -18.5 36.5t-41.5 10.5q-26 0 -45 -18t-19 -44q0 -14 -10 -23t-25 -9zM133 -2q-17 10 -17 31q0 11 6 20l438 626
q9 15 28 15q13 0 24 -7q16 -10 16 -30q0 -13 -7 -21l-436 -626q-11 -16 -30 -16q-11 0 -22 8zM189 388q-53 0 -87.5 26t-41.5 70q-2 15 8.5 26t26.5 11q13 0 22.5 -7t11.5 -18q5 -26 18.5 -36.5t41.5 -10.5q26 0 45 18t19 44q0 14 10 23t25 9q14 0 24.5 -9.5t10.5 -22.5
q0 -54 -39.5 -88.5t-94.5 -34.5zM465 137q-14 0 -24.5 9.5t-10.5 22.5q0 56 35 89.5t99 33.5q53 0 87.5 -26t41.5 -70q2 -15 -8.5 -26t-26.5 -11q-13 0 -22.5 7t-11.5 18q-5 26 -18.5 36.5t-41.5 10.5q-26 0 -45 -18t-19 -44q0 -14 -10 -23t-25 -9zM785 137q-14 0 -24.5 9.5
t-10.5 22.5q0 56 35 89.5t99 33.5q53 0 87.5 -26t41.5 -70q2 -15 -8.5 -26t-26.5 -11q-13 0 -22.5 7t-11.5 18q-5 26 -18.5 36.5t-41.5 10.5q-26 0 -45 -18t-19 -44q0 -14 -10 -23t-25 -9zM564 -10q-53 0 -87.5 26t-41.5 70q-2 15 8.5 26t26.5 11q13 0 22.5 -7t11.5 -18
q5 -26 18.5 -36.5t41.5 -10.5q26 0 45 18t19 44q0 14 10 23t25 9q14 0 24.5 -9.5t10.5 -22.5q0 -54 -39.5 -88.5t-94.5 -34.5zM884 -10q-53 0 -87.5 26t-41.5 70q-2 15 8.5 26t26.5 11q13 0 22.5 -7t11.5 -18q5 -26 18.5 -36.5t41.5 -10.5q26 0 45 18t19 44q0 14 10 23t25 9
q14 0 24.5 -9.5t10.5 -22.5q0 -54 -39.5 -88.5t-94.5 -34.5z" />
    <glyph glyph-name="guilsinglleft" unicode="&#x2039;" horiz-adv-x="408" 
d="M314 64q-4 0 -12 2l-196 117q-51 31 -51 74t51 74l196 117q8 2 12 2q16 0 27.5 -11t11.5 -28q0 -23 -24 -37l-198 -117l198 -117q24 -14 24 -37q0 -17 -11.5 -28t-27.5 -11z" />
    <glyph glyph-name="guilsinglright" unicode="&#x203a;" horiz-adv-x="408" 
d="M94 64q-16 0 -27.5 11t-11.5 28q0 23 24 37l198 117l-198 117q-24 14 -24 37q0 17 11.5 28t27.5 11q4 0 12 -2l196 -117q51 -31 51 -74t-51 -74l-196 -117q-8 -2 -12 -2z" />
    <glyph glyph-name="fraction" unicode="&#x2044;" horiz-adv-x="600" 
 />
    <glyph glyph-name="uni2082" unicode="&#x2082;" horiz-adv-x="328" 
d="M75 -118q-14 0 -23.5 9.5t-9.5 22.5v26q0 22 17 39l128 118q20 22 20 44q0 20 -14.5 33.5t-35.5 13.5q-33 0 -60 -14q-6 -3 -14 -3q-11 0 -20 8.5t-9 23.5q0 18 20 27q35 16 84 16q74 0 105 -68q9 -20 9 -41q0 -48 -37 -82l-127 -115v-26q0 -13 -9.5 -22.5t-23.5 -9.5z
M163 -116q-12 0 -20.5 8.5t-8.5 21.5t8.5 22t20.5 9h93q13 0 21.5 -9t8.5 -22t-8.5 -21.5t-21.5 -8.5h-93z" />
    <glyph glyph-name="uni2083" unicode="&#x2083;" horiz-adv-x="309" 
d="M229 97q-13 0 -22.5 9t-9.5 22q0 31 -15 48q-12 12 -35 12q-21 0 -52 -11q-9 -3 -14 -3q-13 0 -21.5 8.5t-8.5 21.5q0 21 20 29q43 13 75 13q40 0 67.5 -19.5t38.5 -47.5q14 -37 5 -63q-7 -19 -28 -19zM153 -121q-52 0 -93 19q-18 7 -18 28q0 13 8.5 22t21.5 9q6 0 12 -3
q35 -17 69 -17q22 0 35.5 14t13.5 37q0 46 -49 46h-38q-11 0 -19.5 8.5t-8.5 20.5q0 13 8 21.5t20 8.5h38q53 0 83.5 -29t30.5 -76t-32.5 -78t-81.5 -31z" />
    <glyph glyph-name="Euro" unicode="&#x20ac;" horiz-adv-x="624" 
d="M63 378q-16 0 -27 11.5t-11 27.5q0 17 11 28.5t27 11.5h57q17 110 88.5 171.5t172.5 61.5q138 0 197 -110q10 -16 5 -34t-21 -27t-33.5 -4t-27.5 21q-42 68 -126 68q-59 0 -99.5 -38.5t-55.5 -108.5h186q16 0 27 -11.5t11 -28.5q0 -16 -11 -27.5t-27 -11.5h-343zM561 163
q17 -10 22 -27t-5 -33q-60 -113 -197 -113q-102 0 -174 63t-87 175h-57q-16 0 -27 11.5t-11 27.5q0 17 11 28.5t27 11.5h283q16 0 27 -11.5t11 -28.5q0 -16 -11 -27.5t-27 -11.5h-128q15 -71 56.5 -111.5t99.5 -40.5q82 0 127 71q10 17 27 21.5t33 -5.5z" />
    <glyph glyph-name="trademark" unicode="&#x2122;" horiz-adv-x="724" 
d="M366 330q-12 0 -20.5 8t-8.5 20v289q0 16 12.5 27t30.5 11q26 0 38 -25l91 -236h13q11 0 19 -9t8 -20q0 -12 -7.5 -20t-19.5 -8h-14q-34 0 -45 31l-68 181v-221q0 -12 -8.5 -20t-20.5 -8zM649 330q-11 0 -19 8.5t-8 19.5v223l-46 -125q-7 -18 -26 -18q-16 0 -24.5 13.5
t-2.5 24.5l74 183q11 26 40 26q18 0 30 -11t12 -27v-289q0 -12 -8.5 -20t-21.5 -8zM168 330q-11 0 -20.5 8.5t-9.5 19.5v268h-66q-11 0 -19 8t-8 19t8 19t19 8h75q20 0 35 -14t15 -34v-274q0 -12 -8.5 -20t-20.5 -8zM239 626q-11 0 -19 8t-8 19t8 19t19 8h41q10 0 17.5 -8
t7.5 -19t-7.5 -19t-17.5 -8h-41z" />
    <glyph glyph-name="arrowleft" unicode="&#x2190;" horiz-adv-x="714" 
d="M77 293q-17 0 -29.5 13t-12.5 30q0 20 15 33l240 239q12 12 29 12q18 0 31 -13q12 -12 12 -30t-12 -30l-167 -168h464q17 0 29.5 -12.5t12.5 -30.5q0 -17 -12.5 -30t-29.5 -13h-570zM287 67l-127 126q-13 13 -13 31t14 32q13 13 33 13q18 0 30 -12l126 -127
q12 -12 12 -30q0 -19 -13 -32q-14 -14 -32 -14q-17 0 -30 13z" />
    <glyph glyph-name="arrowup" unicode="&#x2191;" horiz-adv-x="632" 
d="M318 -10q-19 0 -32 12.5t-13 30.5v508l-170 -169q-12 -12 -30 -12t-30 12q-13 13 -13 31q0 17 12 29l240 241q14 17 36 17q18 0 31.5 -12.5t13.5 -30.5v-614q0 -18 -13.5 -30.5t-31.5 -12.5zM526 372l-127 126q-12 12 -12 30q0 20 13 33q14 14 32 14t31 -13l126 -127
q13 -13 13 -30q0 -18 -14 -32q-13 -13 -32 -13q-18 0 -30 12z" />
    <glyph glyph-name="arrowright" unicode="&#x2192;" horiz-adv-x="714" 
d="M67 293q-17 0 -29.5 13t-12.5 30q0 18 12.5 30.5t29.5 12.5h464l-167 168q-12 12 -12 30t12 30q13 13 31 13q17 0 29 -12l240 -239q15 -13 15 -33q0 -17 -12.5 -30t-29.5 -13h-570zM427 67q-13 -13 -30 -13q-18 0 -32 14q-13 13 -13 32q0 18 12 30l126 127q12 12 30 12
q20 0 33 -13q14 -14 14 -32t-13 -31z" />
    <glyph glyph-name="arrowdown" unicode="&#x2193;" horiz-adv-x="642" 
d="M319 -10q-18 0 -31.5 12.5t-13.5 30.5v614q0 18 13.5 30.5t31.5 12.5q19 0 32 -12.5t13 -30.5v-508l170 169q12 12 30 12t30 -12q13 -13 13 -31q0 -17 -12 -29l-240 -241q-14 -17 -36 -17zM174 118l-126 127q-13 13 -13 30q0 18 14 32q13 13 32 13q18 0 30 -12l127 -126
q12 -12 12 -30q0 -20 -13 -33q-14 -14 -32 -14t-31 13z" />
    <glyph glyph-name="arrowboth" unicode="&#x2194;" horiz-adv-x="920" 
d="M630 64q-12 -12 -29 -12q-18 0 -31 13q-12 12 -12 30t12 30l167 168h-660q-17 0 -29.5 13t-12.5 30q0 20 15 33l240 239q12 12 29 12q18 0 31 -13q12 -12 12 -30t-12 -30l-167 -168h660q17 0 29.5 -13t12.5 -30q0 -20 -15 -33zM696 415l-126 127q-12 12 -12 30
q0 19 13 32q14 14 32 14q17 0 30 -13l127 -126q13 -13 13 -31t-14 -32q-13 -13 -33 -13q-18 0 -30 12zM287 67l-127 126q-13 13 -13 31t14 32q13 13 33 13q18 0 30 -12l126 -127q12 -12 12 -30q0 -19 -13 -32q-14 -14 -32 -14q-17 0 -30 13z" />
    <glyph glyph-name="arrowupdn" unicode="&#x2195;" horiz-adv-x="647" 
d="M324 -83q-18 0 -31.5 12.5t-13.5 30.5v658l-171 -170q-12 -12 -30 -12t-30 12q-13 13 -13 31q0 17 12 29l241 242l7 6q13 10 29 10q19 0 32 -12.5t13 -30.5v-657l170 169q12 12 30 12t30 -12q13 -13 13 -31q0 -17 -12 -29l-240 -241q-14 -17 -36 -17zM531 448l-127 126
q-12 12 -12 30q0 20 13 33q14 14 32 14t31 -13l126 -127q13 -13 13 -30q0 -18 -14 -32q-13 -13 -32 -13q-18 0 -30 12zM179 45l-126 127q-13 13 -13 30q0 18 14 32q13 13 32 13q18 0 30 -12l127 -126q12 -12 12 -30q0 -20 -13 -33q-14 -14 -32 -14t-31 13z" />
    <glyph glyph-name="uni2196" unicode="&#x2196;" horiz-adv-x="601" 
d="M502 2l-425 425q-10 10 -12 27v4q0 18 12 30.5t29 11.5h350q17 0 28.5 -12t11.5 -30q0 -17 -11.5 -28.5t-28.5 -12.5h-247l354 -354q13 -13 13 -30t-14 -31q-12 -12 -30 -12t-30 12zM110 72q-19 0 -32 12.5t-13 30.5v179q0 18 13 31t32 13q18 0 31.5 -13t12.5 -31v-179
q0 -17 -13 -30t-31 -13z" />
    <glyph glyph-name="uni2197" unicode="&#x2197;" horiz-adv-x="601" 
d="M39 2q-14 14 -14 31t13 30l354 354h-247q-17 1 -28.5 12.5t-11.5 28.5q0 18 11.5 30t28.5 12h350q17 1 29 -11.5t12 -30.5v-4q-2 -17 -12 -27l-425 -425q-12 -12 -30 -12t-30 12zM491 72q-18 0 -31 13t-13 30v179q-1 18 12.5 31t31.5 13q19 0 32 -13t13 -31v-179
q0 -18 -13 -30.5t-32 -12.5z" />
    <glyph glyph-name="uni2198" unicode="&#x2198;" horiz-adv-x="600" 
d="M462 11l-425 426q-12 12 -12 29q0 18 13 31t30 13q18 0 30 -13l350 -350l1 237q0 18 12.5 30.5t29.5 12.5q19 0 31 -12.5t12 -29.5l1 -342q0 -16 -9 -27l-4 -4q-13 -13 -31 -13q-17 0 -29 12zM154 0q-18 0 -30.5 13t-12.5 32q0 18 13 31t30 14h179q17 1 30.5 -12.5
t13.5 -31.5q0 -19 -13 -32.5t-31 -13.5h-179z" />
    <glyph glyph-name="uni2199" unicode="&#x2199;" horiz-adv-x="600" 
d="M138 11q-12 -12 -29 -12q-18 0 -31 13l-4 4q-9 11 -9 27l1 342q0 17 12 29.5t31 12.5q17 0 29.5 -12.5t12.5 -30.5l1 -237l350 350q13 13 30 13q18 0 30 -13q13 -13 13 -31q0 -17 -12 -29zM267 0q-18 0 -31 13.5t-13 32.5q0 18 13.5 31.5t30.5 12.5h179q17 -1 30 -14
t13 -31q0 -19 -12.5 -32t-30.5 -13h-179z" />
    <glyph glyph-name="emptyset" unicode="&#x2205;" horiz-adv-x="810" 
d="M143 -33q-17 10 -17 31q0 11 6 20l483 689q9 15 28 15q13 0 24 -7q16 -10 16 -30q0 -13 -7 -21l-481 -689q-11 -16 -30 -16q-11 0 -22 8zM522 622q-13 -18 -34 -10q-39 12 -83 12q-118 0 -201 -83t-83 -201q0 -93 55 -167q7 -10 7 -22q0 -14 -10 -24q-12 -10 -22 -10
q-17 0 -28 16q-68 92 -68 207q0 145 102.5 247.5t247.5 102.5q52 0 100 -15q18 -5 23 -21.5t-6 -31.5zM284 57q13 19 35 12q40 -13 86 -13q118 0 201 83.5t83 200.5q0 94 -54 167q-8 11 -8 23q0 13 10 23q9 9 21 9q17 0 29 -16q68 -92 68 -206q0 -144 -102.5 -247
t-247.5 -103q-56 0 -104 16q-17 5 -22 20.5t5 30.5z" />
    <glyph glyph-name="minus" unicode="&#x2212;" horiz-adv-x="497" 
d="M83 225q-16 0 -27 11.5t-11 27.5q0 17 11 28.5t27 11.5h331q16 0 27 -11.5t11 -28.5q0 -16 -11 -27.5t-27 -11.5h-331z" />
    <glyph glyph-name="infinity" unicode="&#x221e;" horiz-adv-x="805" 
d="M402 233q-29 -29 -45 -43.5t-42 -34t-50.5 -27.5t-52.5 -8q-67 0 -114.5 47.5t-47.5 114.5t47.5 114t115.5 47q69 0 141 -63q13 -11 13.5 -26t-10.5 -26q-25 -25 -52 0q-50 47 -92 47q-37 0 -63 -27t-26 -66t25.5 -66.5t62.5 -27.5q22 0 46.5 14.5t39 28l54.5 52.5l50 50
q37 37 60.5 56.5t59 36.5t71.5 17q68 0 115 -47t47 -114q0 -68 -47.5 -115t-114.5 -47q-68 0 -143 66q-12 11 -12.5 26t10.5 26q10 11 25 10.5t26 -11.5q54 -49 94 -49q37 0 62.5 27t25.5 67q0 39 -25.5 66t-63.5 27q-32 0 -60.5 -20.5t-79.5 -71.5z" />
    <glyph glyph-name="approxequal" unicode="&#x2248;" horiz-adv-x="527" 
d="M433 430q20 0 31.5 -15t4.5 -35q-17 -45 -51 -72t-75 -27q-49 0 -104 46q-33 28 -53 28q-39 0 -58 -52q-10 -22 -34 -22q-21 0 -32.5 16t-3.5 35q21 47 54 72.5t72 25.5q50 0 103 -45q36 -29 56 -29q33 0 56 53q8 21 34 21zM433 252q20 0 32 -15.5t4 -35.5
q-18 -44 -52 -71t-74 -27q-53 0 -104 45q-32 29 -53 29q-39 0 -58 -53q-10 -21 -34 -21q-21 0 -32.5 15.5t-3.5 34.5q20 47 53.5 73t72.5 26q48 0 103 -46q34 -28 56 -28q37 0 56 52q8 22 34 22z" />
    <glyph glyph-name="notequal" unicode="&#x2260;" horiz-adv-x="500" 
d="M93 320q-16 0 -27 11.5t-11 27.5q0 17 11 28.5t27 11.5h199l77 134q7 15 27 17q13 2 24 -4q19 -9 19 -29q0 -13 -5 -21l-56 -97h76q16 0 27 -11.5t11 -28.5q0 -16 -11 -27.5t-27 -11.5h-361zM454 209q16 0 27 -11.5t11 -28.5q0 -16 -11 -27.5t-27 -11.5h-191l-86 -150
q-7 -15 -27 -17q-13 -2 -24 4q-19 9 -19 29q0 14 5 21l65 113h-84q-16 0 -27 11.5t-11 27.5q0 17 11 28.5t27 11.5h361z" />
    <glyph glyph-name="lessequal" unicode="&#x2264;" horiz-adv-x="480" 
d="M417 146q-4 0 -12 2l-296 107q-54 19 -54 74q0 54 54 74l296 107q8 2 12 2q16 0 27.5 -11t11.5 -28q0 -29 -24 -37l-293 -107l293 -107q24 -8 24 -37q0 -17 -11.5 -28t-27.5 -11zM93 23q-16 0 -27 11.5t-11 27.5q0 17 11 28.5t27 11.5h325q16 0 27 -11.5t11 -28.5
q0 -16 -11 -27.5t-27 -11.5h-325z" />
    <glyph glyph-name="greaterequal" unicode="&#x2265;" horiz-adv-x="511" 
d="M94 144q-16 0 -27.5 11t-11.5 28q0 29 24 37l293 107l-293 107q-24 8 -24 37q0 17 11.5 28t27.5 11q4 0 12 -2l296 -107q54 -20 54 -74q0 -55 -54 -74l-296 -107q-8 -2 -12 -2zM93 23q-16 0 -27 11.5t-11 27.5q0 17 11 28.5t27 11.5h325q16 0 27 -11.5t11 -28.5
q0 -16 -11 -27.5t-27 -11.5h-325z" />
    <glyph glyph-name="lozenge" unicode="&#x25ca;" horiz-adv-x="472" 
d="M46 391q0 5 2 13l117 235q25 51 75 51q48 0 73 -51l117 -235q2 -8 2 -13q0 -15 -11 -26.5t-28 -11.5q-26 0 -37 24l-117 234l-117 -234q-11 -24 -37 -24q-17 0 -28 11.5t-11 26.5zM432 288q0 -5 -2 -13l-117 -234q-25 -51 -75 -51q-48 0 -73 51l-117 234q-2 8 -2 13
q0 15 11 26.5t28 11.5q24 0 37 -24l117 -233l117 233q13 24 37 24q17 0 28 -11.5t11 -26.5z" />
    <glyph glyph-name="Acute" unicode="&#xf6c9;" horiz-adv-x="255" 
d="M187 848q13 -13 13 -29q0 -13 -11 -26l-62 -72q-9 -12 -27 -12q-20 0 -33 13q-12 12 -12 30q0 14 9 25l62 71q12 13 30 13t31 -13z" />
    <glyph glyph-name="Caron" unicode="&#xf6ca;" horiz-adv-x="318" 
d="M265 806l-62 -72q-17 -20 -43 -20q-27 0 -44 20l-63 72q-8 10 -8 22q0 16 11 27q12 12 30 12q16 0 24 -11l49 -57l49 57q8 11 24 11q18 0 30 -12q11 -11 11 -27q0 -12 -8 -22z" />
    <glyph glyph-name="Dieresis" unicode="&#xf6cb;" horiz-adv-x="393" 
d="M100 732q-19 0 -32 12.5t-13 30.5v43q0 17 13 29.5t32 12.5t32 -12.5t13 -29.5v-43q0 -18 -13 -30.5t-32 -12.5zM293 732q-19 0 -32 12.5t-13 30.5v43q0 17 13 29.5t32 12.5t32 -12.5t13 -29.5v-43q0 -18 -13 -30.5t-32 -12.5z" />
    <glyph glyph-name="Grave" unicode="&#xf6ce;" horiz-adv-x="255" 
d="M68 848q13 13 31 13t30 -13l62 -71q9 -11 9 -25q0 -18 -12 -30q-13 -13 -33 -13q-18 0 -27 12l-62 72q-11 13 -11 26q0 16 13 29z" />
    <glyph glyph-name="Macron" unicode="&#xf6d0;" horiz-adv-x="413" 
d="M84 756q-15 0 -24.5 10.5t-9.5 25.5t9.5 25.5t24.5 10.5h245q15 0 24.5 -10.5t9.5 -25.5t-9.5 -25.5t-24.5 -10.5h-245z" />
    <glyph glyph-name="f.002" horiz-adv-x="345" 
d="M140 -10q-19 0 -32 12.5t-13 30.5v396h-51q-14 0 -24 10.5t-10 24.5q0 15 10 25.5t24 10.5h51v29q0 87 52 129t145 42q16 0 27 -12t11 -29t-11 -28.5t-27 -11.5q-54 0 -80.5 -20t-26.5 -70v-496q0 -18 -13 -30.5t-32 -12.5zM248 429q-14 0 -24 10.5t-10 24.5
q0 15 10 25.5t24 10.5h43q14 0 24 -10.5t10 -25.5q0 -14 -10 -24.5t-24 -10.5h-43z" />
    <glyph glyph-name="middot" horiz-adv-x="200" 
d="M100 241q-19 0 -32 12.5t-13 29.5v43q0 18 13 30.5t32 12.5t32 -12.5t13 -30.5v-43q0 -17 -13 -29.5t-32 -12.5z" />
    <glyph glyph-name="bullet.001" horiz-adv-x="335" 
d="M166 268q-34 0 -57.5 24t-23.5 58t23.5 58.5t57.5 24.5q35 0 59.5 -24.5t24.5 -58.5t-24.5 -58t-59.5 -24z" />
    <glyph glyph-name="quotedblbase.001" horiz-adv-x="371" 
d="M46 -100q-18 0 -31 13t-13 31q0 15 9 25l50 57v51q0 17 12.5 28.5t29.5 11.5t29.5 -11.5t12.5 -28.5v-65q0 -17 -10 -30l-60 -69q-12 -13 -29 -13zM217 -100q-18 0 -31 13t-13 31q0 15 9 25l50 57v51q0 17 12.5 28.5t29.5 11.5t29.5 -11.5t12.5 -28.5v-65q0 -17 -10 -30
l-60 -69q-12 -13 -29 -13z" />
    <glyph glyph-name="perthousand.001" horiz-adv-x="1069" 
d="M85 539q-14 0 -24.5 9.5t-10.5 22.5q0 54 39.5 88.5t94.5 34.5q53 0 87.5 -26t41.5 -70q2 -15 -8.5 -26t-26.5 -11q-13 0 -22.5 7t-11.5 18q-5 26 -18.5 36.5t-41.5 10.5q-26 0 -45 -18t-19 -44q0 -14 -10 -23t-25 -9zM128 2q-17 10 -17 31q0 11 6 20l438 626q9 15 28 15
q13 0 24 -7q16 -10 16 -30q0 -13 -7 -21l-436 -626q-11 -16 -30 -16q-11 0 -22 8zM184 392q-53 0 -87.5 26t-41.5 70q-2 15 8.5 26t26.5 11q13 0 22.5 -7t11.5 -18q5 -26 18.5 -36.5t41.5 -10.5q26 0 45 18t19 44q0 14 10 23t25 9q14 0 24.5 -9.5t10.5 -22.5
q0 -54 -39.5 -88.5t-94.5 -34.5zM460 141q-14 0 -24.5 9.5t-10.5 22.5q0 56 35 89.5t99 33.5q53 0 87.5 -26t41.5 -70q2 -15 -8.5 -26t-26.5 -11q-13 0 -22.5 7t-11.5 18q-5 26 -18.5 36.5t-41.5 10.5q-26 0 -45 -18t-19 -44q0 -14 -10 -23t-25 -9zM781 141q-14 0 -24.5 9.5
t-10.5 22.5q0 56 35 89.5t99 33.5q53 0 87.5 -26t41.5 -70q2 -15 -8.5 -26t-26.5 -11q-13 0 -22.5 7t-11.5 18q-5 26 -18.5 36.5t-41.5 10.5q-26 0 -45 -18t-19 -44q0 -14 -10 -23t-25 -9zM559 -6q-53 0 -87.5 26t-41.5 70q-2 15 8.5 26t26.5 11q13 0 22.5 -7t11.5 -18
q5 -26 18.5 -36.5t41.5 -10.5q26 0 45 18t19 44q0 14 10 23t25 9q14 0 24.5 -9.5t10.5 -22.5q0 -54 -39.5 -88.5t-94.5 -34.5zM880 -6q-53 0 -87.5 26t-41.5 70q-2 15 8.5 26t26.5 11q13 0 22.5 -7t11.5 -18q5 -26 18.5 -36.5t41.5 -10.5q26 0 45 18t19 44q0 14 10 23t25 9
q14 0 24.5 -9.5t10.5 -22.5q0 -54 -39.5 -88.5t-94.5 -34.5z" />
    <glyph glyph-name="Breve" horiz-adv-x="388" 
d="M194 712q-58 0 -98.5 40.5t-40.5 98.5q0 15 10 25t25 10q14 0 24.5 -10.5t10.5 -24.5q0 -29 20.5 -49t48.5 -20t48.5 20t20.5 49q0 15 10 25t25 10q14 0 24.5 -10.5t10.5 -24.5q0 -58 -41 -98.5t-98 -40.5z" />
    <glyph glyph-name="Cedilla" horiz-adv-x="253" 
d="M127 -216q-13 -13 -29 -13q-19 0 -31 14q-12 13 -12 30q0 15 9 25l49 57v27q0 16 12.5 28t29.5 12q18 0 30.5 -11.5t12.5 -28.5v-41q0 -18 -9 -28z" />
    <glyph glyph-name="Circumflex" horiz-adv-x="338" 
d="M275 769q8 -10 8 -22q0 -16 -11 -27q-12 -12 -30 -12q-16 0 -24 11l-49 57l-49 -57q-8 -11 -24 -11q-18 0 -30 12q-11 11 -11 27q0 12 8 22l63 72q17 20 44 20q26 0 43 -20z" />
    <glyph glyph-name="Dotaccent" horiz-adv-x="200" 
d="M100 732q-18 0 -31.5 12.5t-13.5 29.5v43q0 18 13.5 30.5t31.5 12.5q19 0 32 -12.5t13 -30.5v-43q0 -17 -13 -29.5t-32 -12.5z" />
    <glyph glyph-name="Ring" horiz-adv-x="264" 
d="M78 798q-9 0 -16 7t-7 17q0 7 4 13q22 40 73 40t73 -40q4 -6 4 -13q0 -10 -7 -17t-16 -7q-16 0 -22 13q-9 20 -32 20t-32 -20q-6 -13 -22 -13zM132 710q-51 0 -73 40q-4 6 -4 13q0 10 7 17t16 7q16 0 22 -13q9 -20 32 -20t32 20q6 13 22 13q9 0 16 -7t7 -17q0 -7 -4 -13
q-22 -40 -73 -40z" />
    <glyph glyph-name="Tilde" horiz-adv-x="439" 
d="M347 860q16 0 26.5 -11.5t10.5 -24.5q0 -5 -2 -11q-13 -31 -39 -55.5t-64 -24.5q-36 0 -82 36q-25 20 -36 20q-22 0 -37 -34q-8 -22 -32 -22q-16 0 -26.5 11t-10.5 25q0 5 2 11q37 80 103 80q37 0 82 -36q25 -20 37 -20q21 0 36 35q8 21 32 21z" />
    </font>
</defs>
</svg>
